%TF.GenerationSoftware,KiCad,Pcbnew,9.0.5*%
%TF.CreationDate,2025-12-06T10:01:17-08:00*%
%TF.ProjectId,project_byte_hamr,70726f6a-6563-4745-9f62-7974655f6861,rev?*%
%TF.SameCoordinates,Original*%
%TF.FileFunction,Soldermask,Bot*%
%TF.FilePolarity,Negative*%
%FSLAX46Y46*%
G04 Gerber Fmt 4.6, Leading zero omitted, Abs format (unit mm)*
G04 Created by KiCad (PCBNEW 9.0.5) date 2025-12-06 10:01:17*
%MOMM*%
%LPD*%
G01*
G04 APERTURE LIST*
G04 Aperture macros list*
%AMRoundRect*
0 Rectangle with rounded corners*
0 $1 Rounding radius*
0 $2 $3 $4 $5 $6 $7 $8 $9 X,Y pos of 4 corners*
0 Add a 4 corners polygon primitive as box body*
4,1,4,$2,$3,$4,$5,$6,$7,$8,$9,$2,$3,0*
0 Add four circle primitives for the rounded corners*
1,1,$1+$1,$2,$3*
1,1,$1+$1,$4,$5*
1,1,$1+$1,$6,$7*
1,1,$1+$1,$8,$9*
0 Add four rect primitives between the rounded corners*
20,1,$1+$1,$2,$3,$4,$5,0*
20,1,$1+$1,$4,$5,$6,$7,0*
20,1,$1+$1,$6,$7,$8,$9,0*
20,1,$1+$1,$8,$9,$2,$3,0*%
G04 Aperture macros list end*
%ADD10C,0.050000*%
%ADD11R,1.700000X1.700000*%
%ADD12C,1.700000*%
%ADD13C,6.000000*%
%ADD14RoundRect,0.350000X0.350000X3.206000X-0.350000X3.206000X-0.350000X-3.206000X0.350000X-3.206000X0*%
%ADD15RoundRect,0.225000X0.250000X-0.225000X0.250000X0.225000X-0.250000X0.225000X-0.250000X-0.225000X0*%
%ADD16RoundRect,0.225000X-0.250000X0.225000X-0.250000X-0.225000X0.250000X-0.225000X0.250000X0.225000X0*%
%ADD17RoundRect,0.200000X0.275000X-0.200000X0.275000X0.200000X-0.275000X0.200000X-0.275000X-0.200000X0*%
%ADD18RoundRect,0.225000X-0.225000X-0.250000X0.225000X-0.250000X0.225000X0.250000X-0.225000X0.250000X0*%
%ADD19RoundRect,0.225000X0.225000X0.250000X-0.225000X0.250000X-0.225000X-0.250000X0.225000X-0.250000X0*%
G04 APERTURE END LIST*
%TO.C,J3*%
D10*
X50253325Y-130405513D02*
X115912325Y-130405513D01*
X115912325Y-137898513D01*
X50253325Y-137898513D01*
X50253325Y-130405513D01*
G36*
X50253325Y-130405513D02*
G01*
X115912325Y-130405513D01*
X115912325Y-137898513D01*
X50253325Y-137898513D01*
X50253325Y-130405513D01*
G37*
%TD*%
D11*
%TO.C,J1*%
X143500000Y-75560000D03*
D12*
X143500000Y-78100000D03*
X143500000Y-80640000D03*
X143500000Y-83180000D03*
X143500000Y-85720000D03*
X143500000Y-88260000D03*
X143500000Y-90800000D03*
X143500000Y-93340000D03*
X143500000Y-95880000D03*
X143500000Y-98420000D03*
X143500000Y-100960000D03*
X143500000Y-103500000D03*
%TD*%
D13*
%TO.C,H2*%
X171750000Y-53750000D03*
%TD*%
D14*
%TO.C,J3*%
X113499325Y-133580513D03*
X110959325Y-133580513D03*
X108419325Y-133580513D03*
X105879325Y-133580513D03*
X103339325Y-133580513D03*
X100799325Y-133580513D03*
X98259325Y-133580513D03*
X95719325Y-133580513D03*
X93179325Y-133580513D03*
X90639325Y-133580513D03*
X88099325Y-133580513D03*
X85559325Y-133580513D03*
X83019325Y-133580513D03*
X80479325Y-133580513D03*
X77939325Y-133580513D03*
X75399325Y-133580513D03*
X72859325Y-133580513D03*
X70319325Y-133580513D03*
X67779325Y-133580513D03*
X65239325Y-133580513D03*
X62699325Y-133580513D03*
X60159325Y-133580513D03*
X57619325Y-133580513D03*
X55079325Y-133580513D03*
X52539325Y-133580513D03*
%TD*%
D13*
%TO.C,H1*%
X53750000Y-53750000D03*
%TD*%
%TO.C,H4*%
X53750000Y-120750000D03*
%TD*%
D11*
%TO.C,J4*%
X56500000Y-112000000D03*
D12*
X53960000Y-112000000D03*
X56500000Y-109460000D03*
X53960000Y-109460000D03*
X56500000Y-106920000D03*
X53960000Y-106920000D03*
%TD*%
D13*
%TO.C,H3*%
X171750000Y-120750000D03*
%TD*%
D15*
%TO.C,C25*%
X89000000Y-101000000D03*
X89000000Y-99450000D03*
%TD*%
D16*
%TO.C,C33*%
X100000000Y-94450000D03*
X100000000Y-96000000D03*
%TD*%
D17*
%TO.C,R31*%
X85000000Y-108000000D03*
X85000000Y-106350000D03*
%TD*%
D16*
%TO.C,C27*%
X90000000Y-95950000D03*
X90000000Y-97500000D03*
%TD*%
D18*
%TO.C,C51*%
X93225000Y-107000000D03*
X94775000Y-107000000D03*
%TD*%
D17*
%TO.C,R32*%
X82000000Y-108000000D03*
X82000000Y-106350000D03*
%TD*%
D15*
%TO.C,C50*%
X99000000Y-90550000D03*
X99000000Y-89000000D03*
%TD*%
D19*
%TO.C,C31*%
X87775000Y-93500000D03*
X86225000Y-93500000D03*
%TD*%
D16*
%TO.C,C28*%
X88000000Y-95950000D03*
X88000000Y-97500000D03*
%TD*%
D17*
%TO.C,R27*%
X62500000Y-111650000D03*
X62500000Y-110000000D03*
%TD*%
D16*
%TO.C,C30*%
X94000000Y-94450000D03*
X94000000Y-96000000D03*
%TD*%
D18*
%TO.C,C53*%
X90150070Y-94349930D03*
X91700070Y-94349930D03*
%TD*%
D16*
%TO.C,C29*%
X84500000Y-94725000D03*
X84500000Y-96275000D03*
%TD*%
%TO.C,C52*%
X85500000Y-80450000D03*
X85500000Y-82000000D03*
%TD*%
%TO.C,C49*%
X78500000Y-89500000D03*
X78500000Y-91050000D03*
%TD*%
D15*
%TO.C,C35*%
X55500000Y-97500000D03*
X55500000Y-95950000D03*
%TD*%
D16*
%TO.C,C26*%
X86500000Y-97225000D03*
X86500000Y-98775000D03*
%TD*%
D17*
%TO.C,R33*%
X87000000Y-105000000D03*
X87000000Y-103350000D03*
%TD*%
M02*
