%TF.GenerationSoftware,KiCad,Pcbnew,9.0.5*%
%TF.CreationDate,2025-12-06T10:01:17-08:00*%
%TF.ProjectId,project_byte_hamr,70726f6a-6563-4745-9f62-7974655f6861,rev?*%
%TF.SameCoordinates,Original*%
%TF.FileFunction,Copper,L4,Bot*%
%TF.FilePolarity,Positive*%
%FSLAX46Y46*%
G04 Gerber Fmt 4.6, Leading zero omitted, Abs format (unit mm)*
G04 Created by KiCad (PCBNEW 9.0.5) date 2025-12-06 10:01:17*
%MOMM*%
%LPD*%
G01*
G04 APERTURE LIST*
G04 Aperture macros list*
%AMRoundRect*
0 Rectangle with rounded corners*
0 $1 Rounding radius*
0 $2 $3 $4 $5 $6 $7 $8 $9 X,Y pos of 4 corners*
0 Add a 4 corners polygon primitive as box body*
4,1,4,$2,$3,$4,$5,$6,$7,$8,$9,$2,$3,0*
0 Add four circle primitives for the rounded corners*
1,1,$1+$1,$2,$3*
1,1,$1+$1,$4,$5*
1,1,$1+$1,$6,$7*
1,1,$1+$1,$8,$9*
0 Add four rect primitives between the rounded corners*
20,1,$1+$1,$2,$3,$4,$5,0*
20,1,$1+$1,$4,$5,$6,$7,0*
20,1,$1+$1,$6,$7,$8,$9,0*
20,1,$1+$1,$8,$9,$2,$3,0*%
G04 Aperture macros list end*
%TA.AperFunction,ComponentPad*%
%ADD10R,1.700000X1.700000*%
%TD*%
%TA.AperFunction,ComponentPad*%
%ADD11C,1.700000*%
%TD*%
%TA.AperFunction,ComponentPad*%
%ADD12C,6.000000*%
%TD*%
%TA.AperFunction,ConnectorPad*%
%ADD13RoundRect,0.350000X0.350000X3.206000X-0.350000X3.206000X-0.350000X-3.206000X0.350000X-3.206000X0*%
%TD*%
%TA.AperFunction,SMDPad,CuDef*%
%ADD14RoundRect,0.225000X0.250000X-0.225000X0.250000X0.225000X-0.250000X0.225000X-0.250000X-0.225000X0*%
%TD*%
%TA.AperFunction,SMDPad,CuDef*%
%ADD15RoundRect,0.225000X-0.250000X0.225000X-0.250000X-0.225000X0.250000X-0.225000X0.250000X0.225000X0*%
%TD*%
%TA.AperFunction,SMDPad,CuDef*%
%ADD16RoundRect,0.200000X0.275000X-0.200000X0.275000X0.200000X-0.275000X0.200000X-0.275000X-0.200000X0*%
%TD*%
%TA.AperFunction,SMDPad,CuDef*%
%ADD17RoundRect,0.225000X-0.225000X-0.250000X0.225000X-0.250000X0.225000X0.250000X-0.225000X0.250000X0*%
%TD*%
%TA.AperFunction,SMDPad,CuDef*%
%ADD18RoundRect,0.225000X0.225000X0.250000X-0.225000X0.250000X-0.225000X-0.250000X0.225000X-0.250000X0*%
%TD*%
%TA.AperFunction,ViaPad*%
%ADD19C,0.350000*%
%TD*%
%TA.AperFunction,Conductor*%
%ADD20C,0.152500*%
%TD*%
%TA.AperFunction,Conductor*%
%ADD21C,0.400000*%
%TD*%
%TA.AperFunction,Conductor*%
%ADD22C,0.300000*%
%TD*%
%TA.AperFunction,Conductor*%
%ADD23C,0.200000*%
%TD*%
%TA.AperFunction,Conductor*%
%ADD24C,0.500000*%
%TD*%
%TA.AperFunction,Conductor*%
%ADD25C,0.153000*%
%TD*%
G04 APERTURE END LIST*
D10*
%TO.P,J1,1,Pin_1*%
%TO.N,I{slash}O_PIN_12*%
X143500000Y-75560000D03*
D11*
%TO.P,J1,2,Pin_2*%
%TO.N,I{slash}O_PIN_11*%
X143500000Y-78100000D03*
%TO.P,J1,3,Pin_3*%
%TO.N,I{slash}O_PIN_10*%
X143500000Y-80640000D03*
%TO.P,J1,4,Pin_4*%
%TO.N,I{slash}O_PIN_9*%
X143500000Y-83180000D03*
%TO.P,J1,5,Pin_5*%
%TO.N,I{slash}O_PIN_8*%
X143500000Y-85720000D03*
%TO.P,J1,6,Pin_6*%
%TO.N,I{slash}O_PIN_7*%
X143500000Y-88260000D03*
%TO.P,J1,7,Pin_7*%
%TO.N,I{slash}O_PIN_6*%
X143500000Y-90800000D03*
%TO.P,J1,8,Pin_8*%
%TO.N,I{slash}O_PIN_5*%
X143500000Y-93340000D03*
%TO.P,J1,9,Pin_9*%
%TO.N,I{slash}O_PIN_4*%
X143500000Y-95880000D03*
%TO.P,J1,10,Pin_10*%
%TO.N,I{slash}O_PIN_3*%
X143500000Y-98420000D03*
%TO.P,J1,11,Pin_11*%
%TO.N,I{slash}O_PIN_2*%
X143500000Y-100960000D03*
%TO.P,J1,12,Pin_12*%
%TO.N,I{slash}O_PIN_1*%
X143500000Y-103500000D03*
%TD*%
D12*
%TO.P,H2,1,1*%
%TO.N,GND*%
X171750000Y-53750000D03*
%TD*%
D13*
%TO.P,J3,26,GND*%
%TO.N,GND*%
X113499325Y-133580513D03*
%TO.P,J3,27,DMA_IN*%
%TO.N,DMA_IN_5V*%
X110959325Y-133580513D03*
%TO.P,J3,28,INT_IN*%
%TO.N,INT_IN_5V*%
X108419325Y-133580513D03*
%TO.P,J3,29,~{NMI}*%
%TO.N,~{NMI}_5V*%
X105879325Y-133580513D03*
%TO.P,J3,30,~{IRQ}*%
%TO.N,unconnected-(J3-~{IRQ}-Pad30)*%
X103339325Y-133580513D03*
%TO.P,J3,31,~{RES}*%
%TO.N,~{RES}_5V*%
X100799325Y-133580513D03*
%TO.P,J3,32,~{INH}*%
%TO.N,~{INH}_5V*%
X98259325Y-133580513D03*
%TO.P,J3,33,-12V*%
%TO.N,CARD-12V*%
X95719325Y-133580513D03*
%TO.P,J3,34,-5V*%
%TO.N,CARD-5V*%
X93179325Y-133580513D03*
%TO.P,J3,35,TESTPIN*%
%TO.N,unconnected-(J3-TESTPIN-Pad35)*%
X90639325Y-133580513D03*
%TO.P,J3,36,7M*%
%TO.N,7M_5V*%
X88099325Y-133580513D03*
%TO.P,J3,37,Q3*%
%TO.N,Q3_5V*%
X85559325Y-133580513D03*
%TO.P,J3,38,\u03A61*%
%TO.N,PHI1_5V*%
X83019325Y-133580513D03*
%TO.P,J3,39,USER1*%
%TO.N,USER1_5V*%
X80479325Y-133580513D03*
%TO.P,J3,40,\u03A60*%
%TO.N,PHI0_5V*%
X77939325Y-133580513D03*
%TO.P,J3,41,~{DEVICE_SELECT}*%
%TO.N,~{DEVICE_SELECT}_5V*%
X75399325Y-133580513D03*
%TO.P,J3,42,D7*%
%TO.N,D7_5V*%
X72859325Y-133580513D03*
%TO.P,J3,43,D6*%
%TO.N,D6_5V*%
X70319325Y-133580513D03*
%TO.P,J3,44,D5*%
%TO.N,D5_5V*%
X67779325Y-133580513D03*
%TO.P,J3,45,D4*%
%TO.N,D4_5V*%
X65239325Y-133580513D03*
%TO.P,J3,46,D3*%
%TO.N,D3_5V*%
X62699325Y-133580513D03*
%TO.P,J3,47,D2*%
%TO.N,D2_5V*%
X60159325Y-133580513D03*
%TO.P,J3,48,D1*%
%TO.N,D1_5V*%
X57619325Y-133580513D03*
%TO.P,J3,49,D0*%
%TO.N,D0_5V*%
X55079325Y-133580513D03*
%TO.P,J3,50,+12V*%
%TO.N,CARD12V*%
X52539325Y-133580513D03*
%TD*%
D12*
%TO.P,H1,1,1*%
%TO.N,GND*%
X53750000Y-53750000D03*
%TD*%
%TO.P,H4,1,1*%
%TO.N,GND*%
X53750000Y-120750000D03*
%TD*%
D10*
%TO.P,J4,1,Pin_1*%
%TO.N,GND*%
X56500000Y-112000000D03*
D11*
%TO.P,J4,2,Pin_2*%
%TO.N,+3V3*%
X53960000Y-112000000D03*
%TO.P,J4,3,Pin_3*%
%TO.N,JTAG_TDI*%
X56500000Y-109460000D03*
%TO.P,J4,4,Pin_4*%
%TO.N,JTAG_TCK*%
X53960000Y-109460000D03*
%TO.P,J4,5,Pin_5*%
%TO.N,JTAG_TMS*%
X56500000Y-106920000D03*
%TO.P,J4,6,Pin_6*%
%TO.N,JTAG_TDO*%
X53960000Y-106920000D03*
%TD*%
D12*
%TO.P,H3,1,1*%
%TO.N,GND*%
X171750000Y-120750000D03*
%TD*%
D14*
%TO.P,C25,1*%
%TO.N,+3V3*%
X89000000Y-101000000D03*
%TO.P,C25,2*%
%TO.N,GND*%
X89000000Y-99450000D03*
%TD*%
D15*
%TO.P,C33,1*%
%TO.N,+3V3*%
X100000000Y-94450000D03*
%TO.P,C33,2*%
%TO.N,GND*%
X100000000Y-96000000D03*
%TD*%
D16*
%TO.P,R31,1*%
%TO.N,+3V3*%
X85000000Y-108000000D03*
%TO.P,R31,2*%
%TO.N,/flash/FPGA_PROGRAMN*%
X85000000Y-106350000D03*
%TD*%
D15*
%TO.P,C27,1*%
%TO.N,+1V1*%
X90000000Y-95950000D03*
%TO.P,C27,2*%
%TO.N,GND*%
X90000000Y-97500000D03*
%TD*%
D17*
%TO.P,C51,1*%
%TO.N,+3V3*%
X93225000Y-107000000D03*
%TO.P,C51,2*%
%TO.N,GND*%
X94775000Y-107000000D03*
%TD*%
D16*
%TO.P,R32,1*%
%TO.N,+3V3*%
X82000000Y-108000000D03*
%TO.P,R32,2*%
%TO.N,/flash/FPGA_DONE*%
X82000000Y-106350000D03*
%TD*%
D14*
%TO.P,C50,1*%
%TO.N,+3V3*%
X99000000Y-90550000D03*
%TO.P,C50,2*%
%TO.N,GND*%
X99000000Y-89000000D03*
%TD*%
D18*
%TO.P,C31,1*%
%TO.N,+3V3*%
X87775000Y-93500000D03*
%TO.P,C31,2*%
%TO.N,GND*%
X86225000Y-93500000D03*
%TD*%
D15*
%TO.P,C28,1*%
%TO.N,+1V1*%
X88000000Y-95950000D03*
%TO.P,C28,2*%
%TO.N,GND*%
X88000000Y-97500000D03*
%TD*%
D16*
%TO.P,R27,1*%
%TO.N,+3V3*%
X62500000Y-111650000D03*
%TO.P,R27,2*%
%TO.N,/flash/FLASH_MOSI*%
X62500000Y-110000000D03*
%TD*%
D15*
%TO.P,C30,1*%
%TO.N,+2V5*%
X94000000Y-94450000D03*
%TO.P,C30,2*%
%TO.N,GND*%
X94000000Y-96000000D03*
%TD*%
D17*
%TO.P,C53,1*%
%TO.N,+3V3*%
X90150070Y-94349930D03*
%TO.P,C53,2*%
%TO.N,GND*%
X91700070Y-94349930D03*
%TD*%
D15*
%TO.P,C29,1*%
%TO.N,+2V5*%
X84500000Y-94725000D03*
%TO.P,C29,2*%
%TO.N,GND*%
X84500000Y-96275000D03*
%TD*%
%TO.P,C52,1*%
%TO.N,+3V3*%
X85500000Y-80450000D03*
%TO.P,C52,2*%
%TO.N,GND*%
X85500000Y-82000000D03*
%TD*%
%TO.P,C49,1*%
%TO.N,+3V3*%
X78500000Y-89500000D03*
%TO.P,C49,2*%
%TO.N,GND*%
X78500000Y-91050000D03*
%TD*%
D14*
%TO.P,C35,1*%
%TO.N,+3V3*%
X55500000Y-97500000D03*
%TO.P,C35,2*%
%TO.N,GND*%
X55500000Y-95950000D03*
%TD*%
D15*
%TO.P,C26,1*%
%TO.N,+3V3*%
X86500000Y-97225000D03*
%TO.P,C26,2*%
%TO.N,GND*%
X86500000Y-98775000D03*
%TD*%
D16*
%TO.P,R33,1*%
%TO.N,+3V3*%
X87000000Y-105000000D03*
%TO.P,R33,2*%
%TO.N,/flash/FPGA_INITN*%
X87000000Y-103350000D03*
%TD*%
D19*
%TO.N,+3V3*%
X85869360Y-95235770D03*
%TO.N,I{slash}O_PIN_10*%
X106264604Y-92418733D03*
%TO.N,I{slash}O_PIN_9*%
X107322632Y-92551458D03*
%TO.N,I{slash}O_PIN_12*%
X102958526Y-92073385D03*
%TO.N,I{slash}O_PIN_11*%
X103429159Y-92316266D03*
%TO.N,I{slash}O_PIN_8*%
X104772028Y-94000078D03*
%TO.N,I{slash}O_PIN_7*%
X104776522Y-94601892D03*
%TO.N,I{slash}O_PIN_6*%
X104341776Y-95001073D03*
%TO.N,I{slash}O_PIN_5*%
X103856803Y-95396357D03*
%TO.N,I{slash}O_PIN_4*%
X103334501Y-95844249D03*
%TO.N,I{slash}O_PIN_3*%
X102908836Y-96235263D03*
%TO.N,I{slash}O_PIN_2*%
X102424245Y-96636963D03*
%TO.N,I{slash}O_PIN_1*%
X102000000Y-97000000D03*
%TO.N,+5V*%
X119000000Y-113500000D03*
X128399080Y-94000000D03*
X119000000Y-77500000D03*
X126199080Y-81800000D03*
X122749080Y-102700000D03*
X125599080Y-89800000D03*
X117293021Y-93477912D03*
X52500000Y-97500000D03*
X117110888Y-104223717D03*
X125599080Y-88200000D03*
X61000000Y-86000000D03*
%TO.N,GND*%
X83600000Y-102300000D03*
X116249080Y-107700000D03*
X85800000Y-124000000D03*
X87505014Y-102399221D03*
X86691757Y-99992581D03*
X92276615Y-96007808D03*
X83600000Y-91300000D03*
X118399080Y-98200000D03*
X91600000Y-90300000D03*
X64600000Y-124000000D03*
X91497687Y-100098335D03*
X95584444Y-94484034D03*
X82217437Y-82217437D03*
X92260324Y-98456174D03*
X89907650Y-97592692D03*
X61000000Y-101500000D03*
X86624708Y-95994563D03*
X129399080Y-102600000D03*
X90693505Y-102407395D03*
X96285008Y-103186510D03*
X113500000Y-76000000D03*
X88303495Y-97580983D03*
X82168755Y-83800000D03*
X89100000Y-95300000D03*
X96210616Y-100710277D03*
X96061093Y-79727816D03*
X127842519Y-88225629D03*
X89105573Y-97580983D03*
X106800000Y-123800000D03*
X96000000Y-107000000D03*
X115500000Y-121000000D03*
X86600000Y-90300000D03*
X82600000Y-95300000D03*
X123199080Y-92800000D03*
X95585092Y-90483333D03*
X81946128Y-97646128D03*
X82000000Y-77500000D03*
X96000000Y-75000000D03*
X80500000Y-120000000D03*
X85888588Y-103202134D03*
X84500000Y-61000000D03*
X89096533Y-93648824D03*
X95600000Y-118600000D03*
X83500000Y-100000000D03*
X117599080Y-87600000D03*
X76400000Y-122800000D03*
X59000000Y-94500000D03*
X83600000Y-94300000D03*
X91496033Y-102397487D03*
X86702219Y-93576870D03*
X91469233Y-93601654D03*
%TO.N,+3V3*%
X92297230Y-95162328D03*
X104500000Y-91500000D03*
X78800000Y-101200000D03*
X88000000Y-115000000D03*
X52000000Y-93500000D03*
X94800000Y-84493620D03*
X109999080Y-88600000D03*
X70000000Y-115000000D03*
X119400000Y-115600000D03*
X85869360Y-97589168D03*
X82689278Y-100851900D03*
X64905000Y-106405000D03*
X81500000Y-88500000D03*
X88305876Y-92866896D03*
X82104580Y-75000000D03*
X93000000Y-61000000D03*
X88000000Y-100000000D03*
X100400000Y-124000000D03*
X56500000Y-100500000D03*
X95813086Y-73400000D03*
X95809782Y-77400000D03*
X95813996Y-82197060D03*
X82110949Y-79800000D03*
X59600000Y-120200000D03*
X78500000Y-88000000D03*
X89895430Y-92873242D03*
X78800000Y-115400000D03*
X79600000Y-120600000D03*
X62500000Y-92500000D03*
X82693640Y-101576098D03*
X92303474Y-97566478D03*
X113000000Y-120000000D03*
%TO.N,+1V1*%
X87428210Y-98494137D03*
X89944666Y-99144666D03*
X92000000Y-100500000D03*
X90713243Y-95155832D03*
X90766514Y-98482299D03*
X110249080Y-101700000D03*
X87000000Y-100520581D03*
X87440048Y-95138076D03*
%TO.N,+2V5*%
X92945220Y-100068273D03*
X85350000Y-100050000D03*
X85121803Y-92821803D03*
X93006669Y-92902106D03*
X109701470Y-93200000D03*
%TO.N,CARD5V*%
X86990597Y-121026187D03*
X58000000Y-126500000D03*
X99000000Y-127000000D03*
X68000000Y-125044617D03*
X111800000Y-125200000D03*
X78500000Y-127000000D03*
X115800000Y-126800000D03*
X89000000Y-125000000D03*
%TO.N,D2_5V*%
X70800000Y-124600000D03*
%TO.N,D0_5V*%
X70000000Y-122800000D03*
%TO.N,~{INH}_5V*%
X91800000Y-127800000D03*
%TO.N,7M_5V*%
X89000000Y-127400000D03*
%TO.N,~{RES}_5V*%
X102648396Y-125500000D03*
%TO.N,D1_5V*%
X70800000Y-123400000D03*
%TO.N,Q3_5V*%
X89000000Y-126200000D03*
%TO.N,~{NMI}_5V*%
X104600000Y-128600000D03*
%TO.N,D7_5V*%
X74200000Y-127400000D03*
%TO.N,DMA_IN_5V*%
X105800000Y-125200000D03*
%TO.N,INT_IN_5V*%
X105800000Y-128600000D03*
%TO.N,PHI0_5V*%
X92667771Y-122613449D03*
%TO.N,PHI1_5V*%
X93200000Y-123800000D03*
%TO.N,~{DEVICE_SELECT}_5V*%
X81200000Y-125800000D03*
%TO.N,D5_5V*%
X71800000Y-127000000D03*
%TO.N,D6_5V*%
X72800000Y-127400000D03*
%TO.N,D4_5V*%
X67400000Y-126800000D03*
%TO.N,USER1_5V*%
X112200000Y-121600000D03*
%TO.N,D3_5V*%
X70800000Y-125600000D03*
%TO.N,/flash/FLASH_nWP*%
X64000000Y-109500000D03*
X82622054Y-104724587D03*
%TO.N,/flash/FLASH_nHOLD*%
X81844171Y-103944171D03*
X63500000Y-106000000D03*
%TO.N,/flash/FLASH_MOSI*%
X82651444Y-103943198D03*
X64000000Y-108500000D03*
%TO.N,/flash/FLASH_MISO*%
X63635000Y-99865000D03*
X81920694Y-102420694D03*
%TO.N,/flash/FLASH_SCK*%
X82746161Y-102353839D03*
X64000000Y-107500000D03*
%TO.N,/flash/FLASH_nCS*%
X81912060Y-100787940D03*
X64905000Y-99636938D03*
%TO.N,/flash/FPGA_PROGRAMN*%
X83500000Y-104000000D03*
%TO.N,/flash/FPGA_DONE*%
X83500000Y-104800000D03*
%TO.N,/flash/FPGA_INITN*%
X83428247Y-103124177D03*
%TO.N,USB_FTDI_D-*%
X59500000Y-90500000D03*
X55295483Y-90341836D03*
%TO.N,USB_FTDI_D+*%
X55500000Y-91479437D03*
X56500000Y-93000000D03*
%TO.N,7M_3V3*%
X98500000Y-104500000D03*
X94797358Y-100897358D03*
%TO.N,SDRAM_D0*%
X96500000Y-83500000D03*
X85865699Y-91165699D03*
%TO.N,SDRAM_D13*%
X85106287Y-90389280D03*
X82316198Y-80600000D03*
%TO.N,Q3_3V3*%
X98500000Y-105500000D03*
X95500000Y-102400000D03*
%TO.N,JTAG_TDO*%
X56500000Y-94000000D03*
X84229955Y-103125404D03*
%TO.N,SDRAM_D15*%
X82144493Y-83000000D03*
X87521009Y-90419267D03*
%TO.N,JTAG_TDI*%
X58937500Y-97562500D03*
X84327261Y-100026579D03*
%TO.N,~{INH}_3V3*%
X94700000Y-100000000D03*
X98494014Y-103744014D03*
%TO.N,JTAG_TCK*%
X59937500Y-96562500D03*
X84307190Y-100803406D03*
%TO.N,SDRAM_D1*%
X85045058Y-91249071D03*
X97000000Y-81500000D03*
%TO.N,SDRAM_D14*%
X82146693Y-81378285D03*
X85915021Y-90418040D03*
%TO.N,JTAG_TMS*%
X85005208Y-102310111D03*
X59040042Y-96062500D03*
%TO.N,~{I{slash}O_STROBE}_3V3*%
X103950368Y-119417529D03*
X102000000Y-120000000D03*
%TO.N,A9_3V3*%
X91000000Y-106000000D03*
X93861449Y-98441250D03*
%TO.N,A14_3V3*%
X95500000Y-100000000D03*
X98500000Y-103000000D03*
%TO.N,A10_3V3*%
X93885949Y-99214051D03*
X92000000Y-106000000D03*
%TO.N,A11_3V3*%
X93000000Y-106000000D03*
X94698036Y-99214662D03*
%TO.N,A8_3V3*%
X93930385Y-97630385D03*
X90000000Y-106000000D03*
%TD*%
D20*
%TO.N,I{slash}O_PIN_10*%
X106264604Y-92418733D02*
X107183337Y-91500000D01*
X107183337Y-91500000D02*
X132640000Y-91500000D01*
X132640000Y-91500000D02*
X143500000Y-80640000D01*
%TO.N,I{slash}O_PIN_12*%
X131500000Y-89500000D02*
X131500000Y-87560000D01*
X131500000Y-87560000D02*
X143500000Y-75560000D01*
%TO.N,I{slash}O_PIN_11*%
X132500000Y-90500000D02*
X132500000Y-89100000D01*
X132500000Y-89100000D02*
X143500000Y-78100000D01*
%TO.N,I{slash}O_PIN_9*%
X107322632Y-92551458D02*
X107874090Y-92000000D01*
X134680000Y-92000000D02*
X143500000Y-83180000D01*
X107874090Y-92000000D02*
X134680000Y-92000000D01*
%TO.N,I{slash}O_PIN_8*%
X104772028Y-94000078D02*
X127794779Y-94000078D01*
X128294857Y-93500000D02*
X135720000Y-93500000D01*
X127794779Y-94000078D02*
X128294857Y-93500000D01*
X135720000Y-93500000D02*
X143500000Y-85720000D01*
%TO.N,I{slash}O_PIN_7*%
X104776522Y-94601892D02*
X137158108Y-94601892D01*
X137158108Y-94601892D02*
X143500000Y-88260000D01*
%TO.N,I{slash}O_PIN_6*%
X104341776Y-95001073D02*
X105340703Y-96000000D01*
X105340703Y-96000000D02*
X138300000Y-96000000D01*
X138300000Y-96000000D02*
X143500000Y-90800000D01*
%TO.N,I{slash}O_PIN_5*%
X103856803Y-95396357D02*
X105460446Y-97000000D01*
X105460446Y-97000000D02*
X139840000Y-97000000D01*
X139840000Y-97000000D02*
X143500000Y-93340000D01*
%TO.N,I{slash}O_PIN_4*%
X103334501Y-95844249D02*
X105263002Y-97772750D01*
X105263002Y-97772750D02*
X141607250Y-97772750D01*
X141607250Y-97772750D02*
X143500000Y-95880000D01*
%TO.N,I{slash}O_PIN_3*%
X135520817Y-98935088D02*
X136035905Y-98420000D01*
X136035905Y-98420000D02*
X143500000Y-98420000D01*
%TO.N,I{slash}O_PIN_2*%
X102424245Y-96636963D02*
X105239435Y-99452153D01*
X141992153Y-99452153D02*
X143500000Y-100960000D01*
X105239435Y-99452153D02*
X141992153Y-99452153D01*
%TO.N,I{slash}O_PIN_1*%
X102000000Y-97000000D02*
X105000000Y-100000000D01*
X105000000Y-100000000D02*
X140000000Y-100000000D01*
X140000000Y-100000000D02*
X143500000Y-103500000D01*
%TO.N,I{slash}O_PIN_11*%
X132000000Y-91000000D02*
X132500000Y-90500000D01*
X107000000Y-91000000D02*
X132000000Y-91000000D01*
X103486117Y-92259308D02*
X105740692Y-92259308D01*
X105740692Y-92259308D02*
X107000000Y-91000000D01*
%TO.N,I{slash}O_PIN_12*%
X130500000Y-90500000D02*
X131500000Y-89500000D01*
X106500000Y-90500000D02*
X130500000Y-90500000D01*
X104323027Y-91927250D02*
X105072750Y-91927250D01*
X105072750Y-91927250D02*
X106500000Y-90500000D01*
%TO.N,I{slash}O_PIN_11*%
X103429159Y-92316266D02*
X103486117Y-92259308D01*
%TO.N,I{slash}O_PIN_12*%
X104213027Y-91817250D02*
X104323027Y-91927250D01*
X103214661Y-91817250D02*
X104213027Y-91817250D01*
X102958526Y-92073385D02*
X103214661Y-91817250D01*
%TO.N,I{slash}O_PIN_3*%
X105608661Y-98935088D02*
X135520817Y-98935088D01*
X102908836Y-96235263D02*
X105608661Y-98935088D01*
D21*
%TO.N,+5V*%
X125599080Y-89800000D02*
X125599080Y-88200000D01*
D22*
%TO.N,GND*%
X87678470Y-97500000D02*
X88000000Y-97500000D01*
X84500000Y-96275000D02*
X86344271Y-96275000D01*
X86344271Y-96275000D02*
X86624708Y-95994563D01*
X94775000Y-107000000D02*
X96000000Y-107000000D01*
D23*
X91700070Y-94349930D02*
X91700070Y-93832491D01*
D24*
X113499325Y-128532225D02*
X108767100Y-123800000D01*
D22*
X91700070Y-93832491D02*
X91469233Y-93601654D01*
X86500000Y-98678470D02*
X87678470Y-97500000D01*
X97068425Y-89000000D02*
X95585092Y-90483333D01*
X86500000Y-98775000D02*
X86500000Y-98678470D01*
D23*
X83400000Y-94500000D02*
X81607366Y-94500000D01*
D22*
X86702219Y-93576870D02*
X86301870Y-93576870D01*
X84700000Y-83800000D02*
X82168755Y-83800000D01*
X85500000Y-83000000D02*
X84700000Y-83800000D01*
X99000000Y-89000000D02*
X97068425Y-89000000D01*
D23*
X81607366Y-94500000D02*
X78500000Y-91392634D01*
X88225000Y-97502488D02*
X88303495Y-97580983D01*
X83600000Y-94300000D02*
X83400000Y-94500000D01*
X78500000Y-91392634D02*
X78500000Y-91050000D01*
D22*
X92284423Y-96000000D02*
X92276615Y-96007808D01*
X57550000Y-95950000D02*
X59000000Y-94500000D01*
X55500000Y-95950000D02*
X57550000Y-95950000D01*
X85500000Y-82000000D02*
X85500000Y-83000000D01*
D23*
X86301870Y-93576870D02*
X86225000Y-93500000D01*
D22*
X100000000Y-96000000D02*
X94000000Y-96000000D01*
D24*
X108767100Y-123800000D02*
X106800000Y-123800000D01*
D22*
X89000000Y-97686556D02*
X89105573Y-97580983D01*
X89000000Y-99450000D02*
X89000000Y-97686556D01*
X94000000Y-96000000D02*
X92284423Y-96000000D01*
D24*
X113499325Y-133580513D02*
X113499325Y-128532225D01*
D23*
%TO.N,+3V3*%
X85500000Y-75500000D02*
X85000000Y-75000000D01*
D22*
X53960000Y-115460000D02*
X58700000Y-120200000D01*
X70000000Y-115000000D02*
X64500000Y-115000000D01*
X89000000Y-107000000D02*
X93225000Y-107000000D01*
X87000000Y-106000000D02*
X87000000Y-105000000D01*
X99000000Y-91500000D02*
X99000000Y-90550000D01*
X86135832Y-97589168D02*
X86500000Y-97225000D01*
X89000000Y-101000000D02*
X88000000Y-100000000D01*
D23*
X87775000Y-93500000D02*
X87775000Y-93397772D01*
D22*
X100000000Y-92500000D02*
X100000000Y-94450000D01*
D23*
X85000000Y-75000000D02*
X82104580Y-75000000D01*
D22*
X87000000Y-105000000D02*
X89000000Y-107000000D01*
X90150070Y-93127882D02*
X89895430Y-92873242D01*
D23*
X87775000Y-93397772D02*
X88305876Y-92866896D01*
X85500000Y-80450000D02*
X85500000Y-75500000D01*
D22*
X58700000Y-120200000D02*
X59600000Y-120200000D01*
X99000000Y-91500000D02*
X104500000Y-91500000D01*
X85000000Y-108000000D02*
X87000000Y-106000000D01*
X85869360Y-97589168D02*
X86135832Y-97589168D01*
X78500000Y-89500000D02*
X78500000Y-88000000D01*
X62500000Y-113000000D02*
X62500000Y-111650000D01*
X82000000Y-108000000D02*
X82000000Y-112200000D01*
X82000000Y-108000000D02*
X85000000Y-108000000D01*
X90150070Y-94349930D02*
X90150070Y-93127882D01*
X64500000Y-115000000D02*
X62500000Y-113000000D01*
X82000000Y-112200000D02*
X78800000Y-115400000D01*
X89000000Y-101000000D02*
X89000000Y-100745822D01*
X99000000Y-91500000D02*
X100000000Y-92500000D01*
X55500000Y-99500000D02*
X56500000Y-100500000D01*
X55500000Y-97500000D02*
X55500000Y-99500000D01*
X53960000Y-112000000D02*
X53960000Y-115460000D01*
D23*
%TO.N,+1V1*%
X88000000Y-95950000D02*
X88000000Y-95698028D01*
X87494137Y-98494137D02*
X87500000Y-98500000D01*
D22*
X88000000Y-95698028D02*
X87440048Y-95138076D01*
X90000000Y-95869075D02*
X90713243Y-95155832D01*
D23*
X90000000Y-95950000D02*
X90000000Y-95869075D01*
X87428210Y-98494137D02*
X87494137Y-98494137D01*
D22*
%TO.N,+2V5*%
X84500000Y-93497967D02*
X85197967Y-92800000D01*
D23*
X93006669Y-92902106D02*
X92945220Y-92963555D01*
D22*
X84500000Y-94725000D02*
X84500000Y-93497967D01*
X94000000Y-94450000D02*
X94000000Y-93895437D01*
X94000000Y-93895437D02*
X93006669Y-92902106D01*
D23*
%TO.N,D2_5V*%
X60159325Y-133580513D02*
X60159325Y-129440675D01*
X65000000Y-124600000D02*
X65201000Y-124399000D01*
X68949057Y-124399000D02*
X69150057Y-124600000D01*
X69150057Y-124600000D02*
X70800000Y-124600000D01*
X65201000Y-124399000D02*
X68949057Y-124399000D01*
X60159325Y-129440675D02*
X65000000Y-124600000D01*
%TO.N,D0_5V*%
X62908521Y-122800000D02*
X70000000Y-122800000D01*
X55079325Y-130629196D02*
X62908521Y-122800000D01*
X55079325Y-133580513D02*
X55079325Y-130629196D01*
%TO.N,~{INH}_5V*%
X92400000Y-128600000D02*
X97800000Y-128600000D01*
X91800000Y-128000000D02*
X92400000Y-128600000D01*
X91800000Y-127800000D02*
X91800000Y-128000000D01*
X97800000Y-128600000D02*
X98259325Y-129059325D01*
X98259325Y-129059325D02*
X98259325Y-133580513D01*
%TO.N,7M_5V*%
X88099325Y-128300675D02*
X89000000Y-127400000D01*
X88099325Y-133580513D02*
X88099325Y-128300675D01*
%TO.N,~{RES}_5V*%
X100800000Y-128600000D02*
X100800000Y-127348396D01*
X100799325Y-128600675D02*
X100800000Y-128600000D01*
X100800000Y-127348396D02*
X102648396Y-125500000D01*
X100799325Y-133580513D02*
X100799325Y-128600675D01*
%TO.N,D1_5V*%
X57619325Y-133580513D02*
X57619325Y-130180675D01*
X57619325Y-130180675D02*
X63800000Y-124000000D01*
X63800000Y-124000000D02*
X64400000Y-123400000D01*
X64400000Y-123400000D02*
X70800000Y-123400000D01*
%TO.N,Q3_5V*%
X85559325Y-133580513D02*
X85559325Y-129640675D01*
X85559325Y-129640675D02*
X89000000Y-126200000D01*
%TO.N,~{NMI}_5V*%
X105879325Y-129879325D02*
X104600000Y-128600000D01*
X105879325Y-133580513D02*
X105879325Y-129879325D01*
%TO.N,D7_5V*%
X72859325Y-133580513D02*
X72859325Y-129340675D01*
X74200000Y-128000000D02*
X74200000Y-127400000D01*
X72859325Y-129340675D02*
X74200000Y-128000000D01*
%TO.N,DMA_IN_5V*%
X110959325Y-133580513D02*
X110959325Y-128265332D01*
X107893993Y-125200000D02*
X105800000Y-125200000D01*
X110959325Y-128265332D02*
X107893993Y-125200000D01*
%TO.N,INT_IN_5V*%
X108419325Y-129019325D02*
X108000000Y-128600000D01*
X108000000Y-128600000D02*
X105800000Y-128600000D01*
X108419325Y-133580513D02*
X108419325Y-129019325D01*
%TO.N,PHI0_5V*%
X77939325Y-129910618D02*
X85249943Y-122600000D01*
X85249943Y-122600000D02*
X92600000Y-122600000D01*
X77939325Y-133580513D02*
X77939325Y-129910618D01*
%TO.N,PHI1_5V*%
X89350057Y-123800000D02*
X93200000Y-123800000D01*
X83019325Y-133580513D02*
X83019325Y-130130732D01*
X83019325Y-130130732D02*
X89350057Y-123800000D01*
%TO.N,~{DEVICE_SELECT}_5V*%
X75399325Y-133580513D02*
X75399325Y-127800675D01*
X77400000Y-125800000D02*
X81200000Y-125800000D01*
X75399325Y-127800675D02*
X77400000Y-125800000D01*
%TO.N,D5_5V*%
X68400000Y-127800000D02*
X71400000Y-127800000D01*
X71800000Y-127400000D02*
X71800000Y-127000000D01*
X67779325Y-133580513D02*
X67779325Y-128420675D01*
X71400000Y-127800000D02*
X71800000Y-127400000D01*
X67779325Y-128420675D02*
X68400000Y-127800000D01*
%TO.N,D6_5V*%
X72800000Y-127800000D02*
X72800000Y-127400000D01*
X70319325Y-133580513D02*
X70319325Y-130280675D01*
X70319325Y-130280675D02*
X72800000Y-127800000D01*
%TO.N,D4_5V*%
X65239325Y-133580513D02*
X65239325Y-128960675D01*
X65239325Y-128960675D02*
X67400000Y-126800000D01*
%TO.N,USER1_5V*%
X89183957Y-123399000D02*
X92751057Y-123399000D01*
X80479325Y-130024514D02*
X84012361Y-126491478D01*
X92751057Y-123399000D02*
X92950057Y-123200000D01*
X107200000Y-123200000D02*
X110600000Y-123200000D01*
X86091479Y-126491478D02*
X89183957Y-123399000D01*
X92950057Y-123200000D02*
X107200000Y-123200000D01*
X110600000Y-123200000D02*
X112200000Y-121600000D01*
X80479325Y-133580513D02*
X80479325Y-130024514D01*
X84012361Y-126491478D02*
X86091479Y-126491478D01*
%TO.N,D3_5V*%
X62699325Y-133580513D02*
X62699325Y-128700675D01*
X65800000Y-125600000D02*
X70800000Y-125600000D01*
X65400000Y-126000000D02*
X65800000Y-125600000D01*
X62699325Y-128700675D02*
X65400000Y-126000000D01*
D25*
%TO.N,/flash/FLASH_nWP*%
X77846641Y-109500000D02*
X82622054Y-104724587D01*
D23*
X64000000Y-109500000D02*
X77846641Y-109500000D01*
%TO.N,/flash/FLASH_nHOLD*%
X63500000Y-106000000D02*
X63500000Y-107721166D01*
X63802834Y-108024000D02*
X77764342Y-108024000D01*
X77764342Y-108024000D02*
X81844171Y-103944171D01*
X63500000Y-107721166D02*
X63802834Y-108024000D01*
%TO.N,/flash/FLASH_MOSI*%
X64000000Y-108500000D02*
X78094642Y-108500000D01*
X62500000Y-110000000D02*
X64000000Y-108500000D01*
X78094642Y-108500000D02*
X82651444Y-103943198D01*
D20*
%TO.N,/flash/FLASH_MISO*%
X81920694Y-102420694D02*
X81920694Y-102423349D01*
X81881032Y-102381032D02*
X81920694Y-102420694D01*
D23*
X65881032Y-102381032D02*
X63635000Y-100135000D01*
X63635000Y-100135000D02*
X63635000Y-99865000D01*
D20*
X65881032Y-102381032D02*
X81881032Y-102381032D01*
D23*
%TO.N,/flash/FLASH_SCK*%
X77600000Y-107500000D02*
X82746161Y-102353839D01*
X64000000Y-107500000D02*
X77600000Y-107500000D01*
%TO.N,/flash/FLASH_nCS*%
X80513120Y-99389000D02*
X66111000Y-99389000D01*
X81912060Y-100787940D02*
X80513120Y-99389000D01*
X65863062Y-99636938D02*
X66111000Y-99389000D01*
X64905000Y-99636938D02*
X65863062Y-99636938D01*
%TO.N,/flash/FPGA_PROGRAMN*%
X83500000Y-104000000D02*
X85000000Y-105500000D01*
X85000000Y-105500000D02*
X85000000Y-106350000D01*
%TO.N,/flash/FPGA_DONE*%
X82000000Y-106350000D02*
X82000000Y-106300000D01*
X82000000Y-106300000D02*
X83500000Y-104800000D01*
%TO.N,/flash/FPGA_INITN*%
X83428247Y-103124177D02*
X83982204Y-103678134D01*
X86722866Y-103678134D02*
X87000000Y-103401000D01*
X83982204Y-103678134D02*
X86722866Y-103678134D01*
%TO.N,USB_FTDI_D-*%
X55295483Y-90341836D02*
X59341836Y-90341836D01*
X59341836Y-90341836D02*
X59500000Y-90500000D01*
%TO.N,USB_FTDI_D+*%
X56500000Y-92479437D02*
X56500000Y-93000000D01*
X55500000Y-91479437D02*
X56500000Y-92479437D01*
%TO.N,7M_3V3*%
X94797358Y-100897358D02*
X97599000Y-103699000D01*
X97698000Y-104500000D02*
X98500000Y-104500000D01*
X97599000Y-104401000D02*
X97698000Y-104500000D01*
X97599000Y-104166100D02*
X97599000Y-104401000D01*
X97599000Y-103699000D02*
X97599000Y-104166100D01*
%TO.N,SDRAM_D0*%
X87748185Y-91165699D02*
X93413884Y-85500000D01*
X95000000Y-85500000D02*
X96500000Y-84000000D01*
X96500000Y-84000000D02*
X96500000Y-83500000D01*
X93413884Y-85500000D02*
X95000000Y-85500000D01*
X85865699Y-91165699D02*
X87748185Y-91165699D01*
%TO.N,SDRAM_D13*%
X80765755Y-81734245D02*
X80765755Y-86048748D01*
X80765755Y-86048748D02*
X85106287Y-90389280D01*
X82316198Y-80600000D02*
X81900000Y-80600000D01*
X81900000Y-80600000D02*
X80765755Y-81734245D01*
%TO.N,Q3_3V3*%
X95500000Y-102400000D02*
X95500000Y-104000000D01*
X97000000Y-105500000D02*
X98500000Y-105500000D01*
X95500000Y-104000000D02*
X97000000Y-105500000D01*
%TO.N,JTAG_TDO*%
X84229955Y-103125404D02*
X85068343Y-103125404D01*
X52500000Y-94000000D02*
X51500000Y-95000000D01*
X56500000Y-94000000D02*
X52500000Y-94000000D01*
X87476000Y-100717747D02*
X87476000Y-100030119D01*
X87476000Y-100030119D02*
X86910462Y-99464581D01*
X86004847Y-99464581D02*
X80540266Y-94000000D01*
X80540266Y-94000000D02*
X56500000Y-94000000D01*
X85068343Y-103125404D02*
X87476000Y-100717747D01*
X51500000Y-104460000D02*
X53960000Y-106920000D01*
X51500000Y-95000000D02*
X51500000Y-104460000D01*
X86910462Y-99464581D02*
X86004847Y-99464581D01*
%TO.N,SDRAM_D15*%
X82118812Y-83000000D02*
X81567755Y-83551057D01*
X81567755Y-83551057D02*
X81567755Y-84466013D01*
X82144493Y-83000000D02*
X82118812Y-83000000D01*
X81567755Y-84466013D02*
X87521009Y-90419267D01*
%TO.N,JTAG_TDI*%
X82422810Y-98122128D02*
X59497128Y-98122128D01*
X58937500Y-97562500D02*
X60363000Y-98988000D01*
X84327261Y-100026579D02*
X82422810Y-98122128D01*
X56500000Y-109460000D02*
X60363000Y-105597000D01*
X60363000Y-105597000D02*
X60363000Y-98988000D01*
X59497128Y-98122128D02*
X58937500Y-97562500D01*
%TO.N,~{INH}_3V3*%
X98000000Y-103173166D02*
X98000000Y-103744014D01*
X97994014Y-103744014D02*
X98494014Y-103744014D01*
X94700000Y-100000000D02*
X95000000Y-100000000D01*
X95000000Y-100000000D02*
X95000000Y-100173166D01*
X95000000Y-100173166D02*
X98000000Y-103173166D01*
%TO.N,JTAG_TCK*%
X84803261Y-100307335D02*
X84307190Y-100803406D01*
X59937500Y-96562500D02*
X59264334Y-96562500D01*
X59264334Y-96562500D02*
X57946450Y-97880384D01*
X57946450Y-107446450D02*
X57321900Y-108071000D01*
X59937500Y-96562500D02*
X81536348Y-96562500D01*
X57946450Y-97880384D02*
X57946450Y-107446450D01*
X81536348Y-96562500D02*
X84803261Y-99829413D01*
X55349000Y-108071000D02*
X53960000Y-109460000D01*
X84803261Y-99829413D02*
X84803261Y-100307335D01*
X57321900Y-108071000D02*
X55349000Y-108071000D01*
%TO.N,SDRAM_D1*%
X89945215Y-91719525D02*
X90082370Y-91582370D01*
X90207618Y-89273366D02*
X93240492Y-86240492D01*
X90207618Y-90610934D02*
X90207618Y-89273366D01*
X85515512Y-91719525D02*
X89945215Y-91719525D01*
X94826608Y-86240492D02*
X97000000Y-84067100D01*
X90082370Y-91582370D02*
X90486452Y-91178288D01*
X85045058Y-91249071D02*
X85515512Y-91719525D01*
X90298342Y-90701658D02*
X90207618Y-90610934D01*
X90486452Y-90889768D02*
X90298342Y-90701658D01*
X93240492Y-86240492D02*
X94826608Y-86240492D01*
X90486452Y-91178288D02*
X90486452Y-90889768D01*
X97000000Y-84067100D02*
X97000000Y-81500000D01*
%TO.N,SDRAM_D14*%
X82146693Y-81378285D02*
X81166755Y-82358223D01*
X81166755Y-85669774D02*
X85915021Y-90418040D01*
X81166755Y-82358223D02*
X81166755Y-85669774D01*
%TO.N,JTAG_TMS*%
X56976000Y-106444000D02*
X56500000Y-106920000D01*
X82035666Y-96062500D02*
X85826000Y-99852834D01*
X85826000Y-99852834D02*
X85826000Y-100937373D01*
X59040042Y-96062500D02*
X56976000Y-98126542D01*
X85826000Y-100937373D02*
X85005208Y-101758165D01*
X85005208Y-101758165D02*
X85005208Y-102310111D01*
X59040042Y-96062500D02*
X82035666Y-96062500D01*
X56976000Y-98126542D02*
X56976000Y-106444000D01*
%TO.N,~{I{slash}O_STROBE}_3V3*%
X102000000Y-120000000D02*
X103367897Y-120000000D01*
X103367897Y-120000000D02*
X103950368Y-119417529D01*
D25*
%TO.N,A9_3V3*%
X91935533Y-102215440D02*
X91935533Y-104564467D01*
X93861449Y-98441250D02*
X93435215Y-98441250D01*
X93435215Y-98441250D02*
X92269630Y-99606835D01*
X91006187Y-101286094D02*
X91935533Y-102215440D01*
X92269630Y-99606835D02*
X91294101Y-99606835D01*
X91935533Y-104564467D02*
X91000000Y-105500000D01*
X91294101Y-99606835D02*
X91006187Y-99894749D01*
X91006187Y-99894749D02*
X91006187Y-101286094D01*
X91000000Y-105500000D02*
X91000000Y-106000000D01*
D23*
%TO.N,A14_3V3*%
X96173505Y-100000000D02*
X98500000Y-102326495D01*
X95500000Y-100000000D02*
X96173505Y-100000000D01*
X98500000Y-102326495D02*
X98500000Y-103000000D01*
D25*
%TO.N,A10_3V3*%
X93177895Y-99214051D02*
X92500000Y-99891946D01*
X93885949Y-99214051D02*
X93177895Y-99214051D01*
X92500000Y-99891946D02*
X92500000Y-106000000D01*
D23*
X92500000Y-106000000D02*
X92000000Y-106000000D01*
D25*
%TO.N,A11_3V3*%
X93000000Y-100912698D02*
X93000000Y-106000000D01*
X94698036Y-99214662D02*
X93000000Y-100912698D01*
D23*
%TO.N,A8_3V3*%
X92106308Y-97090478D02*
X93390478Y-97090478D01*
X91827474Y-97369312D02*
X92106308Y-97090478D01*
X90000000Y-106000000D02*
X90000000Y-99969793D01*
X90000000Y-99969793D02*
X91827474Y-98142319D01*
X93390478Y-97090478D02*
X93930385Y-97630385D01*
X91827474Y-98142319D02*
X91827474Y-97369312D01*
%TD*%
M02*
