%TF.GenerationSoftware,KiCad,Pcbnew,9.0.5*%
%TF.CreationDate,2025-12-06T10:01:17-08:00*%
%TF.ProjectId,project_byte_hamr,70726f6a-6563-4745-9f62-7974655f6861,rev?*%
%TF.SameCoordinates,Original*%
%TF.FileFunction,Copper,L1,Top*%
%TF.FilePolarity,Positive*%
%FSLAX46Y46*%
G04 Gerber Fmt 4.6, Leading zero omitted, Abs format (unit mm)*
G04 Created by KiCad (PCBNEW 9.0.5) date 2025-12-06 10:01:17*
%MOMM*%
%LPD*%
G01*
G04 APERTURE LIST*
G04 Aperture macros list*
%AMRoundRect*
0 Rectangle with rounded corners*
0 $1 Rounding radius*
0 $2 $3 $4 $5 $6 $7 $8 $9 X,Y pos of 4 corners*
0 Add a 4 corners polygon primitive as box body*
4,1,4,$2,$3,$4,$5,$6,$7,$8,$9,$2,$3,0*
0 Add four circle primitives for the rounded corners*
1,1,$1+$1,$2,$3*
1,1,$1+$1,$4,$5*
1,1,$1+$1,$6,$7*
1,1,$1+$1,$8,$9*
0 Add four rect primitives between the rounded corners*
20,1,$1+$1,$2,$3,$4,$5,0*
20,1,$1+$1,$4,$5,$6,$7,0*
20,1,$1+$1,$6,$7,$8,$9,0*
20,1,$1+$1,$8,$9,$2,$3,0*%
G04 Aperture macros list end*
%TA.AperFunction,Conductor*%
%ADD10C,0.150000*%
%TD*%
%TA.AperFunction,EtchedComponent*%
%ADD11C,0.100000*%
%TD*%
%TA.AperFunction,ComponentPad*%
%ADD12R,1.700000X1.700000*%
%TD*%
%TA.AperFunction,ComponentPad*%
%ADD13C,1.700000*%
%TD*%
%TA.AperFunction,SMDPad,CuDef*%
%ADD14R,0.700000X1.200000*%
%TD*%
%TA.AperFunction,SMDPad,CuDef*%
%ADD15RoundRect,0.200000X-0.275000X0.200000X-0.275000X-0.200000X0.275000X-0.200000X0.275000X0.200000X0*%
%TD*%
%TA.AperFunction,SMDPad,CuDef*%
%ADD16R,0.304800X1.295400*%
%TD*%
%TA.AperFunction,SMDPad,CuDef*%
%ADD17RoundRect,0.250000X-0.475000X0.250000X-0.475000X-0.250000X0.475000X-0.250000X0.475000X0.250000X0*%
%TD*%
%TA.AperFunction,SMDPad,CuDef*%
%ADD18RoundRect,0.200000X0.275000X-0.200000X0.275000X0.200000X-0.275000X0.200000X-0.275000X-0.200000X0*%
%TD*%
%TA.AperFunction,SMDPad,CuDef*%
%ADD19RoundRect,0.200000X0.200000X0.275000X-0.200000X0.275000X-0.200000X-0.275000X0.200000X-0.275000X0*%
%TD*%
%TA.AperFunction,ComponentPad*%
%ADD20C,6.000000*%
%TD*%
%TA.AperFunction,SMDPad,CuDef*%
%ADD21RoundRect,0.250000X0.475000X-0.250000X0.475000X0.250000X-0.475000X0.250000X-0.475000X-0.250000X0*%
%TD*%
%TA.AperFunction,SMDPad,CuDef*%
%ADD22RoundRect,0.250000X-0.250000X-0.475000X0.250000X-0.475000X0.250000X0.475000X-0.250000X0.475000X0*%
%TD*%
%TA.AperFunction,ConnectorPad*%
%ADD23RoundRect,0.350000X0.350000X3.206000X-0.350000X3.206000X-0.350000X-3.206000X0.350000X-3.206000X0*%
%TD*%
%TA.AperFunction,SMDPad,CuDef*%
%ADD24RoundRect,0.225000X0.250000X-0.225000X0.250000X0.225000X-0.250000X0.225000X-0.250000X-0.225000X0*%
%TD*%
%TA.AperFunction,SMDPad,CuDef*%
%ADD25RoundRect,0.200000X-0.200000X-0.275000X0.200000X-0.275000X0.200000X0.275000X-0.200000X0.275000X0*%
%TD*%
%TA.AperFunction,SMDPad,CuDef*%
%ADD26RoundRect,0.243750X-0.243750X-0.456250X0.243750X-0.456250X0.243750X0.456250X-0.243750X0.456250X0*%
%TD*%
%TA.AperFunction,SMDPad,CuDef*%
%ADD27RoundRect,0.323750X-0.376250X0.323750X-0.376250X-0.323750X0.376250X-0.323750X0.376250X0.323750X0*%
%TD*%
%TA.AperFunction,SMDPad,CuDef*%
%ADD28RoundRect,0.225000X-0.250000X0.225000X-0.250000X-0.225000X0.250000X-0.225000X0.250000X0.225000X0*%
%TD*%
%TA.AperFunction,SMDPad,CuDef*%
%ADD29C,0.400000*%
%TD*%
%TA.AperFunction,SMDPad,CuDef*%
%ADD30O,0.127000X0.508000*%
%TD*%
%TA.AperFunction,SMDPad,CuDef*%
%ADD31O,0.508000X0.127000*%
%TD*%
%TA.AperFunction,SMDPad,CuDef*%
%ADD32R,1.200000X0.700000*%
%TD*%
%TA.AperFunction,SMDPad,CuDef*%
%ADD33RoundRect,0.323750X0.323750X0.376250X-0.323750X0.376250X-0.323750X-0.376250X0.323750X-0.376250X0*%
%TD*%
%TA.AperFunction,SMDPad,CuDef*%
%ADD34RoundRect,0.250000X-1.000000X-0.650000X1.000000X-0.650000X1.000000X0.650000X-1.000000X0.650000X0*%
%TD*%
%TA.AperFunction,SMDPad,CuDef*%
%ADD35R,1.500000X2.700000*%
%TD*%
%TA.AperFunction,SMDPad,CuDef*%
%ADD36R,1.350000X0.400000*%
%TD*%
%TA.AperFunction,SMDPad,CuDef*%
%ADD37R,1.900000X1.800000*%
%TD*%
%TA.AperFunction,SMDPad,CuDef*%
%ADD38R,1.600000X2.100000*%
%TD*%
%TA.AperFunction,SMDPad,CuDef*%
%ADD39R,1.900000X1.900000*%
%TD*%
%TA.AperFunction,SMDPad,CuDef*%
%ADD40RoundRect,0.250000X0.250000X0.475000X-0.250000X0.475000X-0.250000X-0.475000X0.250000X-0.475000X0*%
%TD*%
%TA.AperFunction,SMDPad,CuDef*%
%ADD41R,0.600000X2.100000*%
%TD*%
%TA.AperFunction,SMDPad,CuDef*%
%ADD42O,0.600000X2.100000*%
%TD*%
%TA.AperFunction,SMDPad,CuDef*%
%ADD43R,1.200000X0.560000*%
%TD*%
%TA.AperFunction,SMDPad,CuDef*%
%ADD44O,1.200000X0.560000*%
%TD*%
%TA.AperFunction,SMDPad,CuDef*%
%ADD45RoundRect,0.062500X0.350000X0.062500X-0.350000X0.062500X-0.350000X-0.062500X0.350000X-0.062500X0*%
%TD*%
%TA.AperFunction,SMDPad,CuDef*%
%ADD46RoundRect,0.062500X0.062500X0.350000X-0.062500X0.350000X-0.062500X-0.350000X0.062500X-0.350000X0*%
%TD*%
%TA.AperFunction,SMDPad,CuDef*%
%ADD47R,2.000000X2.000000*%
%TD*%
%TA.AperFunction,SMDPad,CuDef*%
%ADD48R,1.800000X2.200000*%
%TD*%
%TA.AperFunction,SMDPad,CuDef*%
%ADD49RoundRect,0.225000X0.225000X0.250000X-0.225000X0.250000X-0.225000X-0.250000X0.225000X-0.250000X0*%
%TD*%
%TA.AperFunction,ViaPad*%
%ADD50C,0.350000*%
%TD*%
%TA.AperFunction,Conductor*%
%ADD51C,0.152500*%
%TD*%
%TA.AperFunction,Conductor*%
%ADD52C,0.300000*%
%TD*%
%TA.AperFunction,Conductor*%
%ADD53C,0.153000*%
%TD*%
%TA.AperFunction,Conductor*%
%ADD54C,0.400000*%
%TD*%
%TA.AperFunction,Conductor*%
%ADD55C,0.200000*%
%TD*%
%TA.AperFunction,Conductor*%
%ADD56C,0.500000*%
%TD*%
%TA.AperFunction,Conductor*%
%ADD57C,0.160000*%
%TD*%
G04 APERTURE END LIST*
%TO.N,GND*%
D10*
X88369417Y-95994417D02*
G75*
G02*
X88219417Y-95994417I-75000J0D01*
G01*
X88219417Y-95994417D02*
G75*
G02*
X88369417Y-95994417I75000J0D01*
G01*
X89967595Y-95992595D02*
G75*
G02*
X89817595Y-95992595I-75000J0D01*
G01*
X89817595Y-95992595D02*
G75*
G02*
X89967595Y-95992595I75000J0D01*
G01*
D11*
%TD*%
%TO.C,RP3*%
X110499080Y-85000000D02*
X109499080Y-85000000D01*
X109499080Y-84200000D01*
X110499080Y-84200000D01*
X110499080Y-85000000D01*
%TA.AperFunction,EtchedComponent*%
%TO.C,RP3*%
G36*
X110499080Y-85000000D02*
G01*
X109499080Y-85000000D01*
X109499080Y-84200000D01*
X110499080Y-84200000D01*
X110499080Y-85000000D01*
G37*
%TD.AperFunction*%
%TO.C,RP1*%
X112681580Y-102200000D02*
X111881580Y-102200000D01*
X111881580Y-101200000D01*
X112681580Y-101200000D01*
X112681580Y-102200000D01*
%TA.AperFunction,EtchedComponent*%
G36*
X112681580Y-102200000D02*
G01*
X111881580Y-102200000D01*
X111881580Y-101200000D01*
X112681580Y-101200000D01*
X112681580Y-102200000D01*
G37*
%TD.AperFunction*%
%TO.C,RP2*%
X112631580Y-95700000D02*
X111831580Y-95700000D01*
X111831580Y-94700000D01*
X112631580Y-94700000D01*
X112631580Y-95700000D01*
%TA.AperFunction,EtchedComponent*%
G36*
X112631580Y-95700000D02*
G01*
X111831580Y-95700000D01*
X111831580Y-94700000D01*
X112631580Y-94700000D01*
X112631580Y-95700000D01*
G37*
%TD.AperFunction*%
%TD*%
D12*
%TO.P,J1,1,Pin_1*%
%TO.N,I{slash}O_PIN_12*%
X143500000Y-75560000D03*
D13*
%TO.P,J1,2,Pin_2*%
%TO.N,I{slash}O_PIN_11*%
X143500000Y-78100000D03*
%TO.P,J1,3,Pin_3*%
%TO.N,I{slash}O_PIN_10*%
X143500000Y-80640000D03*
%TO.P,J1,4,Pin_4*%
%TO.N,I{slash}O_PIN_9*%
X143500000Y-83180000D03*
%TO.P,J1,5,Pin_5*%
%TO.N,I{slash}O_PIN_8*%
X143500000Y-85720000D03*
%TO.P,J1,6,Pin_6*%
%TO.N,I{slash}O_PIN_7*%
X143500000Y-88260000D03*
%TO.P,J1,7,Pin_7*%
%TO.N,I{slash}O_PIN_6*%
X143500000Y-90800000D03*
%TO.P,J1,8,Pin_8*%
%TO.N,I{slash}O_PIN_5*%
X143500000Y-93340000D03*
%TO.P,J1,9,Pin_9*%
%TO.N,I{slash}O_PIN_4*%
X143500000Y-95880000D03*
%TO.P,J1,10,Pin_10*%
%TO.N,I{slash}O_PIN_3*%
X143500000Y-98420000D03*
%TO.P,J1,11,Pin_11*%
%TO.N,I{slash}O_PIN_2*%
X143500000Y-100960000D03*
%TO.P,J1,12,Pin_12*%
%TO.N,I{slash}O_PIN_1*%
X143500000Y-103500000D03*
%TD*%
D14*
%TO.P,U5,1,EN*%
%TO.N,+5V*%
X125299080Y-85200000D03*
%TO.P,U5,2,GND*%
%TO.N,GND*%
X126249080Y-85200000D03*
%TO.P,U5,3,LX*%
%TO.N,/power/L3*%
X127199080Y-85200000D03*
%TO.P,U5,4,VIN*%
%TO.N,+5V*%
X127199080Y-82600000D03*
%TO.P,U5,5,FB*%
%TO.N,/power/FB3*%
X125299080Y-82600000D03*
%TD*%
D15*
%TO.P,R11,1*%
%TO.N,+3V3*%
X61000000Y-93850000D03*
%TO.P,R11,2*%
%TO.N,/flash/FLASH_nWP*%
X61000000Y-95500000D03*
%TD*%
D16*
%TO.P,U13,1,V_{CCA}*%
%TO.N,CARD5V*%
X88865000Y-121250000D03*
%TO.P,U13,2,DIR*%
X89500000Y-121250000D03*
%TO.P,U13,3,A1*%
%TO.N,Q3_5V*%
X90135000Y-121250000D03*
%TO.P,U13,4,A2*%
%TO.N,7M_5V*%
X90770000Y-121250000D03*
%TO.P,U13,5,A3*%
%TO.N,~{INH}_5V*%
X91405000Y-121250000D03*
%TO.P,U13,6,A4*%
%TO.N,A14_5V*%
X92040000Y-121250000D03*
%TO.P,U13,7,A5*%
%TO.N,PHI0_5V*%
X92675000Y-121250000D03*
%TO.P,U13,8,A6*%
%TO.N,PHI1_5V*%
X93310000Y-121250000D03*
%TO.P,U13,9,A7*%
%TO.N,A15_5V*%
X93945000Y-121250000D03*
%TO.P,U13,10,A8*%
%TO.N,R{slash}~{W}_5V*%
X94580000Y-121250000D03*
%TO.P,U13,11,GND*%
%TO.N,GND*%
X95215000Y-121250000D03*
%TO.P,U13,12,GND*%
X95850000Y-121250000D03*
%TO.P,U13,13,GND*%
X95850000Y-116043000D03*
%TO.P,U13,14,B8*%
%TO.N,R{slash}~{W}_3V3*%
X95215000Y-116043000D03*
%TO.P,U13,15,B7*%
%TO.N,A15_3V3*%
X94580000Y-116043000D03*
%TO.P,U13,16,B6*%
%TO.N,PHI1_3V3*%
X93945000Y-116043000D03*
%TO.P,U13,17,B5*%
%TO.N,PHI0_3V3*%
X93310000Y-116043000D03*
%TO.P,U13,18,B4*%
%TO.N,A14_3V3*%
X92675000Y-116043000D03*
%TO.P,U13,19,B3*%
%TO.N,~{INH}_3V3*%
X92040000Y-116043000D03*
%TO.P,U13,20,B2*%
%TO.N,7M_3V3*%
X91405000Y-116043000D03*
%TO.P,U13,21,B1*%
%TO.N,Q3_3V3*%
X90770000Y-116043000D03*
%TO.P,U13,22,~{OE}*%
%TO.N,GND*%
X90135000Y-116043000D03*
%TO.P,U13,23,V_{CCB}*%
%TO.N,+3V3*%
X89500000Y-116043000D03*
%TO.P,U13,24,V_{CCB}*%
X88865000Y-116043000D03*
%TD*%
D17*
%TO.P,C12,1*%
%TO.N,/power/P2V5*%
X118599080Y-95000000D03*
%TO.P,C12,2*%
%TO.N,GND*%
X118599080Y-96900000D03*
%TD*%
D18*
%TO.P,RB3,1*%
%TO.N,GND*%
X118599080Y-86050000D03*
%TO.P,RB3,2*%
%TO.N,/power/FB3*%
X118599080Y-84400000D03*
%TD*%
D19*
%TO.P,R12,1*%
%TO.N,+3V3*%
X68325000Y-105669214D03*
%TO.P,R12,2*%
%TO.N,/flash/FLASH_nHOLD*%
X66675000Y-105669214D03*
%TD*%
D18*
%TO.P,RA2,1*%
%TO.N,/power/P2V5*%
X118580782Y-92179275D03*
%TO.P,RA2,2*%
%TO.N,/power/FB2*%
X118580782Y-90529275D03*
%TD*%
D20*
%TO.P,H2,1,1*%
%TO.N,GND*%
X171750000Y-53750000D03*
%TD*%
D21*
%TO.P,C1,1*%
%TO.N,+5V*%
X127999080Y-105400000D03*
%TO.P,C1,2*%
%TO.N,GND*%
X127999080Y-103500000D03*
%TD*%
D22*
%TO.P,C5,1*%
%TO.N,+5V*%
X124699080Y-86800000D03*
%TO.P,C5,2*%
%TO.N,GND*%
X126599080Y-86800000D03*
%TD*%
D16*
%TO.P,U8,1,V_{CCA}*%
%TO.N,CARD5V*%
X59257500Y-126603500D03*
%TO.P,U8,2,DIR*%
X59892500Y-126603500D03*
%TO.P,U8,3,A1*%
%TO.N,~{I{slash}O_SELECT}_5V*%
X60527500Y-126603500D03*
%TO.P,U8,4,A2*%
%TO.N,A0_5V*%
X61162500Y-126603500D03*
%TO.P,U8,5,A3*%
%TO.N,A1_5V*%
X61797500Y-126603500D03*
%TO.P,U8,6,A4*%
%TO.N,A2_5V*%
X62432500Y-126603500D03*
%TO.P,U8,7,A5*%
%TO.N,A3_5V*%
X63067500Y-126603500D03*
%TO.P,U8,8,A6*%
%TO.N,A4_5V*%
X63702500Y-126603500D03*
%TO.P,U8,9,A7*%
%TO.N,A5_5V*%
X64337500Y-126603500D03*
%TO.P,U8,10,A8*%
%TO.N,A6_5V*%
X64972500Y-126603500D03*
%TO.P,U8,11,GND*%
%TO.N,GND*%
X65607500Y-126603500D03*
%TO.P,U8,12,GND*%
X66242500Y-126603500D03*
%TO.P,U8,13,GND*%
X66242500Y-121396500D03*
%TO.P,U8,14,B8*%
%TO.N,A6_3V3*%
X65607500Y-121396500D03*
%TO.P,U8,15,B7*%
%TO.N,A5_3V3*%
X64972500Y-121396500D03*
%TO.P,U8,16,B6*%
%TO.N,A4_3V3*%
X64337500Y-121396500D03*
%TO.P,U8,17,B5*%
%TO.N,A3_3V3*%
X63702500Y-121396500D03*
%TO.P,U8,18,B4*%
%TO.N,A2_3V3*%
X63067500Y-121396500D03*
%TO.P,U8,19,B3*%
%TO.N,A1_3V3*%
X62432500Y-121396500D03*
%TO.P,U8,20,B2*%
%TO.N,A0_3V3*%
X61797500Y-121396500D03*
%TO.P,U8,21,B1*%
%TO.N,~{I{slash}O_SELECT}_3V3*%
X61162500Y-121396500D03*
%TO.P,U8,22,~{OE}*%
%TO.N,GND*%
X60527500Y-121396500D03*
%TO.P,U8,23,V_{CCB}*%
%TO.N,+3V3*%
X59892500Y-121396500D03*
%TO.P,U8,24,V_{CCB}*%
X59257500Y-121396500D03*
%TD*%
D23*
%TO.P,J3,1,~{I/O_SELECT}*%
%TO.N,~{I{slash}O_SELECT}_5V*%
X52539325Y-133580513D03*
%TO.P,J3,2,A0*%
%TO.N,A0_5V*%
X55079325Y-133580513D03*
%TO.P,J3,3,A1*%
%TO.N,A1_5V*%
X57619325Y-133580513D03*
%TO.P,J3,4,A2*%
%TO.N,A2_5V*%
X60159325Y-133580513D03*
%TO.P,J3,5,A3*%
%TO.N,A3_5V*%
X62699325Y-133580513D03*
%TO.P,J3,6,A4*%
%TO.N,A4_5V*%
X65239325Y-133580513D03*
%TO.P,J3,7,A5*%
%TO.N,A5_5V*%
X67779325Y-133580513D03*
%TO.P,J3,8,A6*%
%TO.N,A6_5V*%
X70319325Y-133580513D03*
%TO.P,J3,9,A7*%
%TO.N,A7_5V*%
X72859325Y-133580513D03*
%TO.P,J3,10,A8*%
%TO.N,A8_5V*%
X75399325Y-133580513D03*
%TO.P,J3,11,A9*%
%TO.N,A9_5V*%
X77939325Y-133580513D03*
%TO.P,J3,12,A10*%
%TO.N,A10_5V*%
X80479325Y-133580513D03*
%TO.P,J3,13,A11*%
%TO.N,A11_5V*%
X83019325Y-133580513D03*
%TO.P,J3,14,A12*%
%TO.N,A12_5V*%
X85559325Y-133580513D03*
%TO.P,J3,15,A13*%
%TO.N,A13_5V*%
X88099325Y-133580513D03*
%TO.P,J3,16,A14*%
%TO.N,A14_5V*%
X90639325Y-133580513D03*
%TO.P,J3,17,A15*%
%TO.N,A15_5V*%
X93179325Y-133580513D03*
%TO.P,J3,18,R/~{W}*%
%TO.N,R{slash}~{W}_5V*%
X95719325Y-133580513D03*
%TO.P,J3,19,TESTPIN*%
%TO.N,unconnected-(J3-TESTPIN-Pad19)*%
X98259325Y-133580513D03*
%TO.P,J3,20,~{I/O_STROBE}*%
%TO.N,~{I{slash}O_STROBE}_5V*%
X100799325Y-133580513D03*
%TO.P,J3,21,RDY*%
%TO.N,RDY_5V*%
X103339325Y-133580513D03*
%TO.P,J3,22,~{DMA}*%
%TO.N,unconnected-(J3-~{DMA}-Pad22)*%
X105879325Y-133580513D03*
%TO.P,J3,23,INT_OUT*%
%TO.N,INT_OUT_5V*%
X108419325Y-133580513D03*
%TO.P,J3,24,DMA_OUT*%
%TO.N,DMA_OUT_5V*%
X110959325Y-133580513D03*
%TO.P,J3,25,+5V*%
%TO.N,CARD5V*%
X113499325Y-133580513D03*
%TD*%
D15*
%TO.P,R28,1*%
%TO.N,+3V3*%
X64000000Y-93850000D03*
%TO.P,R28,2*%
%TO.N,/flash/FLASH_MISO*%
X64000000Y-95500000D03*
%TD*%
D24*
%TO.P,C32,1*%
%TO.N,+3V3*%
X59500000Y-103000000D03*
%TO.P,C32,2*%
%TO.N,GND*%
X59500000Y-101450000D03*
%TD*%
D25*
%TO.P,R50,1*%
%TO.N,USB_FTDI_D+*%
X57675000Y-93000000D03*
%TO.P,R50,2*%
%TO.N,/usb/FTD+*%
X59325000Y-93000000D03*
%TD*%
D26*
%TO.P,D3,1,K*%
%TO.N,Net-(D3-K)*%
X52062500Y-91500000D03*
%TO.P,D3,2,A*%
%TO.N,FT3V3OUT*%
X53937500Y-91500000D03*
%TD*%
D27*
%TO.P,RP3,1,1*%
%TO.N,/power/P3V3*%
X109999080Y-83632500D03*
%TO.P,RP3,2,2*%
%TO.N,+3V3*%
X109999080Y-85567500D03*
%TD*%
D24*
%TO.P,C10,1*%
%TO.N,/power/P2V5*%
X115799080Y-92200000D03*
%TO.P,C10,2*%
%TO.N,/power/FB2*%
X115799080Y-90650000D03*
%TD*%
D28*
%TO.P,C2,1*%
%TO.N,/power/P1V1*%
X115749080Y-103450000D03*
%TO.P,C2,2*%
%TO.N,/power/FB1*%
X115749080Y-105000000D03*
%TD*%
D15*
%TO.P,R29,1*%
%TO.N,+3V3*%
X67000000Y-102500000D03*
%TO.P,R29,2*%
%TO.N,/flash/FLASH_SCK*%
X67000000Y-104150000D03*
%TD*%
D28*
%TO.P,C6,1*%
%TO.N,/power/P3V3*%
X118999080Y-80850000D03*
%TO.P,C6,2*%
%TO.N,/power/FB3*%
X118999080Y-82400000D03*
%TD*%
D29*
%TO.P,U1,A2,PL35A*%
%TO.N,SDRAM_D9*%
X82300000Y-89200000D03*
%TO.P,U1,A3,PL14C*%
%TO.N,SDRAM_D10*%
X83100000Y-89200000D03*
%TO.P,U1,A4,PL11A*%
%TO.N,SDRAM_D12*%
X83900000Y-89200000D03*
%TO.P,U1,A5,PL11B*%
%TO.N,SDRAM_DQM1*%
X84700000Y-89200000D03*
%TO.P,U1,A6,PT4A*%
%TO.N,SDRAM_CKE*%
X85500000Y-89200000D03*
%TO.P,U1,A7,PT18A*%
%TO.N,SDRAM_A11*%
X86300000Y-89200000D03*
%TO.P,U1,A8,PT18B*%
%TO.N,SDRAM_A8*%
X87100000Y-89200000D03*
%TO.P,U1,A9,GR_PCLK0_1*%
%TO.N,SDRAM_A6*%
X87900000Y-89200000D03*
%TO.P,U1,A10,PCLKT0_1*%
%TO.N,SDRAM_A4*%
X88700000Y-89200000D03*
%TO.P,U1,A11,PCLKC0_1*%
%TO.N,SDRAM_A3*%
X89500000Y-89200000D03*
%TO.P,U1,A12,PT76A*%
%TO.N,SDRAM_A1*%
X90300000Y-89200000D03*
%TO.P,U1,A13,PT76B*%
%TO.N,SDRAM_A10*%
X91100000Y-89200000D03*
%TO.P,U1,A14,PT83A*%
%TO.N,SDRAM_BA0*%
X91900000Y-89200000D03*
%TO.P,U1,A15,PT103A*%
%TO.N,SDRAM_nRAS*%
X92700000Y-89200000D03*
%TO.P,U1,A16,PT110A*%
%TO.N,SDRAM_nWE*%
X93500000Y-89200000D03*
%TO.P,U1,A17,PT116A*%
%TO.N,SDRAM_D3*%
X94300000Y-89200000D03*
%TO.P,U1,A18,PT119A*%
%TO.N,SDRAM_D5*%
X95100000Y-89200000D03*
%TO.P,U1,A19,PT121A*%
%TO.N,SDRAM_D7*%
X95900000Y-89200000D03*
%TO.P,U1,B1,PL35B*%
%TO.N,unconnected-(U1F-PL35B-PadB1)*%
X81500000Y-90000000D03*
%TO.P,U1,B2,VREF1_7*%
%TO.N,unconnected-(U1F-VREF1_7-PadB2)*%
X82300000Y-90000000D03*
%TO.P,U1,B3,PL14D*%
%TO.N,SDRAM_D11*%
X83100000Y-90000000D03*
%TO.P,U1,B4,PL14B*%
%TO.N,SDRAM_D8*%
X83900000Y-90000000D03*
%TO.P,U1,B5,PL11C*%
%TO.N,SDRAM_CLK*%
X84700000Y-90000000D03*
%TO.P,U1,B6,PT4B*%
%TO.N,SDRAM_A12*%
X85500000Y-90000000D03*
%TO.P,U1,B7,GND*%
%TO.N,GND*%
X86300000Y-90000000D03*
%TO.P,U1,B8,PT15B*%
%TO.N,SDRAM_A9*%
X87100000Y-90000000D03*
%TO.P,U1,B9,PT58A*%
%TO.N,SDRAM_A7*%
X87900000Y-90000000D03*
%TO.P,U1,B10,GR_PCLK0_0*%
%TO.N,SDRAM_A5*%
X88700000Y-90000000D03*
%TO.P,U1,B11,PCLKT0_0*%
%TO.N,SDRAM_A2*%
X89500000Y-90000000D03*
%TO.P,U1,B12,PCLKT1_0*%
%TO.N,SDRAM_A0*%
X90300000Y-90000000D03*
%TO.P,U1,B13,PT78A*%
%TO.N,SDRAM_BA1*%
X91100000Y-90000000D03*
%TO.P,U1,B14,GND*%
%TO.N,GND*%
X91900000Y-90000000D03*
%TO.P,U1,B15,PT105A*%
%TO.N,SDRAM_nCAS*%
X92700000Y-90000000D03*
%TO.P,U1,B16,PT110B*%
%TO.N,SDRAM_D2*%
X93500000Y-90000000D03*
%TO.P,U1,B17,PT114A*%
%TO.N,SDRAM_D4*%
X94300000Y-90000000D03*
%TO.P,U1,B18,PT116B*%
%TO.N,SDRAM_D6*%
X95100000Y-90000000D03*
%TO.P,U1,B19,PT119B*%
%TO.N,SDRAM_DQM0*%
X95900000Y-90000000D03*
%TO.P,U1,B20,PT121B*%
%TO.N,unconnected-(U1B-PT121B-PadB20)*%
X96700000Y-90000000D03*
%TO.P,U1,C1,PL38A*%
%TO.N,unconnected-(U1F-PL38A-PadC1)*%
X81500000Y-90800000D03*
%TO.P,U1,C2,PL35D*%
%TO.N,unconnected-(U1F-PL35D-PadC2)*%
X82300000Y-90800000D03*
%TO.P,U1,C3,PL17C*%
%TO.N,unconnected-(U1F-PL17C-PadC3)*%
X83100000Y-90800000D03*
%TO.P,U1,C4,PL14A*%
%TO.N,unconnected-(U1F-PL14A-PadC4)*%
X83900000Y-90800000D03*
%TO.P,U1,C5,PL11D*%
%TO.N,SDRAM_D13*%
X84700000Y-90800000D03*
%TO.P,U1,C6,PT11A*%
%TO.N,SDRAM_D0*%
X85500000Y-90800000D03*
%TO.P,U1,C7,PT11B*%
%TO.N,SDRAM_D14*%
X86300000Y-90800000D03*
%TO.P,U1,C8,PT15A*%
%TO.N,unconnected-(U1A-PT15A-PadC8)*%
X87100000Y-90800000D03*
%TO.P,U1,C9,PT54A*%
%TO.N,SDRAM_D15*%
X87900000Y-90800000D03*
%TO.P,U1,C10,PT58B*%
%TO.N,unconnected-(U1A-PT58B-PadC10)*%
X88700000Y-90800000D03*
%TO.P,U1,C11,PCLKC0_0*%
%TO.N,unconnected-(U1A-PCLKC0_0-PadC11)*%
X89500000Y-90800000D03*
%TO.P,U1,C12,PCLKC1_0*%
%TO.N,unconnected-(U1B-PCLKC1_0-PadC12)*%
X90300000Y-90800000D03*
%TO.P,U1,C13,PT78B*%
%TO.N,unconnected-(U1B-PT78B-PadC13)*%
X91100000Y-90800000D03*
%TO.P,U1,C14,PT83B*%
%TO.N,SDRAM_nCS*%
X91900000Y-90800000D03*
%TO.P,U1,C15,PT105B*%
%TO.N,unconnected-(U1B-PT105B-PadC15)*%
X92700000Y-90800000D03*
%TO.P,U1,C16,PT112A*%
%TO.N,unconnected-(U1B-PT112A-PadC16)*%
X93500000Y-90800000D03*
%TO.P,U1,C17,PT114B*%
%TO.N,unconnected-(U1B-PT114B-PadC17)*%
X94300000Y-90800000D03*
%TO.P,U1,C18,PR11A*%
%TO.N,unconnected-(U1C-PR11A-PadC18)*%
X95100000Y-90800000D03*
%TO.P,U1,C19,GND*%
%TO.N,GND*%
X95900000Y-90800000D03*
%TO.P,U1,C20,PR35A*%
%TO.N,unconnected-(U1C-PR35A-PadC20)*%
X96700000Y-90800000D03*
%TO.P,U1,D1,PL38B*%
%TO.N,unconnected-(U1F-PL38B-PadD1)*%
X81500000Y-91600000D03*
%TO.P,U1,D2,PL38C*%
%TO.N,unconnected-(U1F-PL38C-PadD2)*%
X82300000Y-91600000D03*
%TO.P,U1,D3,PL17D*%
%TO.N,unconnected-(U1F-PL17D-PadD3)*%
X83100000Y-91600000D03*
%TO.P,U1,D4,GND*%
%TO.N,GND*%
X83900000Y-91600000D03*
%TO.P,U1,D5,PL17B*%
%TO.N,SDRAM_D1*%
X84700000Y-91600000D03*
%TO.P,U1,D6,PT6B*%
%TO.N,unconnected-(U1A-PT6B-PadD6)*%
X85500000Y-91600000D03*
%TO.P,U1,D7,PT9B*%
%TO.N,unconnected-(U1A-PT9B-PadD7)*%
X86300000Y-91600000D03*
%TO.P,U1,D8,PT13B*%
%TO.N,unconnected-(U1A-PT13B-PadD8)*%
X87100000Y-91600000D03*
%TO.P,U1,D9,PT20A*%
%TO.N,unconnected-(U1A-PT20A-PadD9)*%
X87900000Y-91600000D03*
%TO.P,U1,D10,PT56A*%
%TO.N,unconnected-(U1A-PT56A-PadD10)*%
X88700000Y-91600000D03*
%TO.P,U1,D11,PCLKT1_1*%
%TO.N,unconnected-(U1B-PCLKT1_1-PadD11)*%
X89500000Y-91600000D03*
%TO.P,U1,D12,GR_PCLK1_0*%
%TO.N,unconnected-(U1B-GR_PCLK1_0-PadD12)*%
X90300000Y-91600000D03*
%TO.P,U1,D13,PT80A*%
%TO.N,unconnected-(U1B-PT80A-PadD13)*%
X91100000Y-91600000D03*
%TO.P,U1,D14,PT85A*%
%TO.N,unconnected-(U1B-PT85A-PadD14)*%
X91900000Y-91600000D03*
%TO.P,U1,D15,PT107A*%
%TO.N,unconnected-(U1B-PT107A-PadD15)*%
X92700000Y-91600000D03*
%TO.P,U1,D16,PT112B*%
%TO.N,unconnected-(U1B-PT112B-PadD16)*%
X93500000Y-91600000D03*
%TO.P,U1,D17,PR11B*%
%TO.N,unconnected-(U1C-PR11B-PadD17)*%
X94300000Y-91600000D03*
%TO.P,U1,D18,PR14A*%
%TO.N,unconnected-(U1C-PR14A-PadD18)*%
X95100000Y-91600000D03*
%TO.P,U1,D19,PR35B*%
%TO.N,unconnected-(U1C-PR35B-PadD19)*%
X95900000Y-91600000D03*
%TO.P,U1,D20,VREF1_2*%
%TO.N,unconnected-(U1C-VREF1_2-PadD20)*%
X96700000Y-91600000D03*
%TO.P,U1,E1,PL38D*%
%TO.N,unconnected-(U1F-PL38D-PadE1)*%
X81500000Y-92400000D03*
%TO.P,U1,E2,PCLKC7_0*%
%TO.N,unconnected-(U1F-PCLKC7_0-PadE2)*%
X82300000Y-92400000D03*
%TO.P,U1,E3,PL20B*%
%TO.N,unconnected-(U1F-PL20B-PadE3)*%
X83100000Y-92400000D03*
%TO.P,U1,E4,PL17A*%
%TO.N,unconnected-(U1F-PL17A-PadE4)*%
X83900000Y-92400000D03*
%TO.P,U1,E5,PL20C*%
%TO.N,unconnected-(U1F-PL20C-PadE5)*%
X84700000Y-92400000D03*
%TO.P,U1,E6,PT6A*%
%TO.N,unconnected-(U1A-PT6A-PadE6)*%
X85500000Y-92400000D03*
%TO.P,U1,E7,PT9A*%
%TO.N,unconnected-(U1A-PT9A-PadE7)*%
X86300000Y-92400000D03*
%TO.P,U1,E8,PT13A*%
%TO.N,unconnected-(U1A-PT13A-PadE8)*%
X87100000Y-92400000D03*
%TO.P,U1,E9,PT20B*%
%TO.N,unconnected-(U1A-PT20B-PadE9)*%
X87900000Y-92400000D03*
%TO.P,U1,E10,PT56B*%
%TO.N,unconnected-(U1A-PT56B-PadE10)*%
X88700000Y-92400000D03*
%TO.P,U1,E11,PCLKC1_1*%
%TO.N,unconnected-(U1B-PCLKC1_1-PadE11)*%
X89500000Y-92400000D03*
%TO.P,U1,E12,GR_PCLK1_1*%
%TO.N,unconnected-(U1B-GR_PCLK1_1-PadE12)*%
X90300000Y-92400000D03*
%TO.P,U1,E13,PT80B*%
%TO.N,unconnected-(U1B-PT80B-PadE13)*%
X91100000Y-92400000D03*
%TO.P,U1,E14,PT85B*%
%TO.N,unconnected-(U1B-PT85B-PadE14)*%
X91900000Y-92400000D03*
%TO.P,U1,E15,PT107B*%
%TO.N,unconnected-(U1B-PT107B-PadE15)*%
X92700000Y-92400000D03*
%TO.P,U1,E16,PR11C*%
%TO.N,unconnected-(U1C-PR11C-PadE16)*%
X93500000Y-92400000D03*
%TO.P,U1,E17,PR14B*%
%TO.N,unconnected-(U1C-PR14B-PadE17)*%
X94300000Y-92400000D03*
%TO.P,U1,E18,PR14C*%
%TO.N,unconnected-(U1C-PR14C-PadE18)*%
X95100000Y-92400000D03*
%TO.P,U1,E19,PR35D*%
%TO.N,I{slash}O_PIN_11*%
X95900000Y-92400000D03*
%TO.P,U1,E20,PR38A*%
%TO.N,I{slash}O_PIN_12*%
X96700000Y-92400000D03*
%TO.P,U1,F1,PCLKC6_1*%
%TO.N,unconnected-(U1E-PCLKC6_1-PadF1)*%
X81500000Y-93200000D03*
%TO.P,U1,F2,PCLKT7_0*%
%TO.N,unconnected-(U1F-PCLKT7_0-PadF2)*%
X82300000Y-93200000D03*
%TO.P,U1,F3,PCLKC7_1*%
%TO.N,unconnected-(U1F-PCLKC7_1-PadF3)*%
X83100000Y-93200000D03*
%TO.P,U1,F4,PL20A*%
%TO.N,unconnected-(U1F-PL20A-PadF4)*%
X83900000Y-93200000D03*
%TO.P,U1,F5,PL20D*%
%TO.N,unconnected-(U1F-PL20D-PadF5)*%
X84700000Y-93200000D03*
%TO.P,U1,F6,VCCAUX*%
%TO.N,+2V5*%
X85500000Y-93200000D03*
%TO.P,U1,F7,GND*%
%TO.N,GND*%
X86300000Y-93200000D03*
%TO.P,U1,F8,GND*%
X87100000Y-93200000D03*
%TO.P,U1,F9,VCCio0*%
%TO.N,+3V3*%
X87900000Y-93200000D03*
%TO.P,U1,F10,VCCio0*%
X88700000Y-93200000D03*
%TO.P,U1,F11,VCCio1*%
X89500000Y-93200000D03*
%TO.P,U1,F12,VCCio1*%
X90300000Y-93200000D03*
%TO.P,U1,F13,GND*%
%TO.N,GND*%
X91100000Y-93200000D03*
%TO.P,U1,F14,GND*%
X91900000Y-93200000D03*
%TO.P,U1,F15,VCCAUX*%
%TO.N,+2V5*%
X92700000Y-93200000D03*
%TO.P,U1,F16,PR11D*%
%TO.N,unconnected-(U1C-PR11D-PadF16)*%
X93500000Y-93200000D03*
%TO.P,U1,F17,PR17A*%
%TO.N,unconnected-(U1C-PR17A-PadF17)*%
X94300000Y-93200000D03*
%TO.P,U1,F18,PR14D*%
%TO.N,unconnected-(U1C-PR14D-PadF18)*%
X95100000Y-93200000D03*
%TO.P,U1,F19,PR38B*%
%TO.N,I{slash}O_PIN_9*%
X95900000Y-93200000D03*
%TO.P,U1,F20,PR38C*%
%TO.N,I{slash}O_PIN_10*%
X96700000Y-93200000D03*
%TO.P,U1,G1,PCLKC6_0*%
%TO.N,unconnected-(U1E-PCLKC6_0-PadG1)*%
X81500000Y-94000000D03*
%TO.P,U1,G2,PCLKT6_1*%
%TO.N,~{I{slash}O_SELECT}_3V3*%
X82300000Y-94000000D03*
%TO.P,U1,G3,PCLKT7_1*%
%TO.N,CLK_25MHz*%
X83100000Y-94000000D03*
%TO.P,U1,G4,GND*%
%TO.N,GND*%
X83900000Y-94000000D03*
%TO.P,U1,G5,PL41B*%
%TO.N,unconnected-(U1F-PL41B-PadG5)*%
X84700000Y-94000000D03*
%TO.P,U1,G6,GND*%
%TO.N,GND*%
X85500000Y-94000000D03*
%TO.P,U1,G7,GND*%
X86300000Y-94000000D03*
%TO.P,U1,G8,GND*%
X87100000Y-94000000D03*
%TO.P,U1,G9,GND*%
X87900000Y-94000000D03*
%TO.P,U1,G10,GND*%
X88700000Y-94000000D03*
%TO.P,U1,G11,GND*%
X89500000Y-94000000D03*
%TO.P,U1,G12,GND*%
X90300000Y-94000000D03*
%TO.P,U1,G13,GND*%
X91100000Y-94000000D03*
%TO.P,U1,G14,GND*%
X91900000Y-94000000D03*
%TO.P,U1,G15,GND*%
X92700000Y-94000000D03*
%TO.P,U1,G16,PR17C*%
%TO.N,unconnected-(U1C-PR17C-PadG16)*%
X93500000Y-94000000D03*
%TO.P,U1,G17,GND*%
%TO.N,GND*%
X94300000Y-94000000D03*
%TO.P,U1,G18,PR17B*%
%TO.N,unconnected-(U1C-PR17B-PadG18)*%
X95100000Y-94000000D03*
%TO.P,U1,G19,GR_PCLK2_1*%
%TO.N,I{slash}O_PIN_7*%
X95900000Y-94000000D03*
%TO.P,U1,G20,PR38D*%
%TO.N,I{slash}O_PIN_8*%
X96700000Y-94000000D03*
%TO.P,U1,H1,PL53C*%
%TO.N,A0_3V3*%
X81500000Y-94800000D03*
%TO.P,U1,H2,PCLKT6_0*%
%TO.N,A1_3V3*%
X82300000Y-94800000D03*
%TO.P,U1,H3,PL41D*%
%TO.N,unconnected-(U1F-PL41D-PadH3)*%
X83100000Y-94800000D03*
%TO.P,U1,H4,GR_PCLK7_1*%
%TO.N,unconnected-(U1F-GR_PCLK7_1-PadH4)*%
X83900000Y-94800000D03*
%TO.P,U1,H5,GR_PCLK7_0*%
%TO.N,unconnected-(U1F-GR_PCLK7_0-PadH5)*%
X84700000Y-94800000D03*
%TO.P,U1,H6,VCCio7*%
%TO.N,+3V3*%
X85500000Y-94800000D03*
%TO.P,U1,H7,VCCio7*%
X86300000Y-94800000D03*
%TO.P,U1,H8,VCC*%
%TO.N,+1V1*%
X87100000Y-94800000D03*
%TO.P,U1,H9,VCC*%
X87900000Y-94800000D03*
%TO.P,U1,H10,VCC*%
X88700000Y-94800000D03*
%TO.P,U1,H11,VCC*%
X89500000Y-94800000D03*
%TO.P,U1,H12,VCC*%
X90300000Y-94800000D03*
%TO.P,U1,H13,VCC*%
X91100000Y-94800000D03*
%TO.P,U1,H14,VCCio2*%
%TO.N,+3V3*%
X91900000Y-94800000D03*
%TO.P,U1,H15,VCCio2*%
X92700000Y-94800000D03*
%TO.P,U1,H16,PR17D*%
%TO.N,unconnected-(U1C-PR17D-PadH16)*%
X93500000Y-94800000D03*
%TO.P,U1,H17,PR20B*%
%TO.N,unconnected-(U1C-PR20B-PadH17)*%
X94300000Y-94800000D03*
%TO.P,U1,H18,PR20A*%
%TO.N,unconnected-(U1C-PR20A-PadH18)*%
X95100000Y-94800000D03*
%TO.P,U1,H19,GND*%
%TO.N,GND*%
X95900000Y-94800000D03*
%TO.P,U1,H20,PR41B*%
%TO.N,I{slash}O_PIN_6*%
X96700000Y-94800000D03*
%TO.P,U1,J1,PL53B*%
%TO.N,A2_3V3*%
X81500000Y-95600000D03*
%TO.P,U1,J2,GND*%
%TO.N,GND*%
X82300000Y-95600000D03*
%TO.P,U1,J3,GR_PCLK6_1*%
%TO.N,unconnected-(U1E-GR_PCLK6_1-PadJ3)*%
X83100000Y-95600000D03*
%TO.P,U1,J4,GR_PCLK6_0*%
%TO.N,unconnected-(U1E-GR_PCLK6_0-PadJ4)*%
X83900000Y-95600000D03*
%TO.P,U1,J5,PL50B*%
%TO.N,unconnected-(U1E-PL50B-PadJ5)*%
X84700000Y-95600000D03*
%TO.P,U1,J6,VCCio7*%
%TO.N,+3V3*%
X85500000Y-95600000D03*
%TO.P,U1,J7,GND*%
%TO.N,GND*%
X86300000Y-95600000D03*
%TO.P,U1,J8,VCC*%
%TO.N,+1V1*%
X87100000Y-95600000D03*
%TO.P,U1,J9,GND*%
%TO.N,GND*%
X87900000Y-95600000D03*
%TO.P,U1,J10,GND*%
X88700000Y-95600000D03*
%TO.P,U1,J11,GND*%
X89500000Y-95600000D03*
%TO.P,U1,J12,GND*%
X90300000Y-95600000D03*
%TO.P,U1,J13,VCC*%
%TO.N,+1V1*%
X91100000Y-95600000D03*
%TO.P,U1,J14,GND*%
%TO.N,GND*%
X91900000Y-95600000D03*
%TO.P,U1,J15,VCCio2*%
%TO.N,+3V3*%
X92700000Y-95600000D03*
%TO.P,U1,J16,PR20D*%
%TO.N,unconnected-(U1C-PR20D-PadJ16)*%
X93500000Y-95600000D03*
%TO.P,U1,J17,PR20C*%
%TO.N,unconnected-(U1C-PR20C-PadJ17)*%
X94300000Y-95600000D03*
%TO.P,U1,J18,GR_PCLK2_0*%
%TO.N,I{slash}O_PIN_5*%
X95100000Y-95600000D03*
%TO.P,U1,J19,PCLKT2_1*%
%TO.N,I{slash}O_PIN_3*%
X95900000Y-95600000D03*
%TO.P,U1,J20,PCLKT2_0*%
%TO.N,I{slash}O_PIN_4*%
X96700000Y-95600000D03*
%TO.P,U1,K1,PL53D*%
%TO.N,A4_3V3*%
X81500000Y-96400000D03*
%TO.P,U1,K2,PL53A*%
%TO.N,A3_3V3*%
X82300000Y-96400000D03*
%TO.P,U1,K3,PL50D*%
%TO.N,unconnected-(U1E-PL50D-PadK3)*%
X83100000Y-96400000D03*
%TO.P,U1,K4,PL56A*%
%TO.N,unconnected-(U1E-PL56A-PadK4)*%
X83900000Y-96400000D03*
%TO.P,U1,K5,VREF1_6*%
%TO.N,unconnected-(U1E-VREF1_6-PadK5)*%
X84700000Y-96400000D03*
%TO.P,U1,K6,GND*%
%TO.N,GND*%
X85500000Y-96400000D03*
%TO.P,U1,K7,GND*%
X86300000Y-96400000D03*
%TO.P,U1,K8,VCC*%
%TO.N,+1V1*%
X87100000Y-96400000D03*
%TO.P,U1,K9,GND*%
%TO.N,GND*%
X87900000Y-96400000D03*
%TO.P,U1,K10,GND*%
X88700000Y-96400000D03*
%TO.P,U1,K11,GND*%
X89500000Y-96400000D03*
%TO.P,U1,K12,GND*%
X90300000Y-96400000D03*
%TO.P,U1,K13,VCC*%
%TO.N,+1V1*%
X91100000Y-96400000D03*
%TO.P,U1,K14,GND*%
%TO.N,GND*%
X91900000Y-96400000D03*
%TO.P,U1,K15,GND*%
X92700000Y-96400000D03*
%TO.P,U1,K16,PR29A*%
%TO.N,unconnected-(U1C-PR29A-PadK16)*%
X93500000Y-96400000D03*
%TO.P,U1,K17,PR29B*%
%TO.N,unconnected-(U1C-PR29B-PadK17)*%
X94300000Y-96400000D03*
%TO.P,U1,K18,PR41D*%
%TO.N,unconnected-(U1C-PR41D-PadK18)*%
X95100000Y-96400000D03*
%TO.P,U1,K19,PCLKC2_1*%
%TO.N,I{slash}O_PIN_1*%
X95900000Y-96400000D03*
%TO.P,U1,K20,PCLKC2_0*%
%TO.N,I{slash}O_PIN_2*%
X96700000Y-96400000D03*
%TO.P,U1,L1,PL65C*%
%TO.N,A6_3V3*%
X81500000Y-97200000D03*
%TO.P,U1,L2,PL86D*%
%TO.N,A5_3V3*%
X82300000Y-97200000D03*
%TO.P,U1,L3,PL86C*%
%TO.N,unconnected-(U1E-PL86C-PadL3)*%
X83100000Y-97200000D03*
%TO.P,U1,L4,PL56C*%
%TO.N,unconnected-(U1E-PL56C-PadL4)*%
X83900000Y-97200000D03*
%TO.P,U1,L5,PL56D*%
%TO.N,unconnected-(U1E-PL56D-PadL5)*%
X84700000Y-97200000D03*
%TO.P,U1,L6,VCCio6*%
%TO.N,+3V3*%
X85500000Y-97200000D03*
%TO.P,U1,L7,VCCio6*%
X86300000Y-97200000D03*
%TO.P,U1,L8,VCC*%
%TO.N,+1V1*%
X87100000Y-97200000D03*
%TO.P,U1,L9,GND*%
%TO.N,GND*%
X87900000Y-97200000D03*
%TO.P,U1,L10,GND*%
X88700000Y-97200000D03*
%TO.P,U1,L11,GND*%
X89500000Y-97200000D03*
%TO.P,U1,L12,GND*%
X90300000Y-97200000D03*
%TO.P,U1,L13,VCC*%
%TO.N,+1V1*%
X91100000Y-97200000D03*
%TO.P,U1,L14,VCCio3*%
%TO.N,+3V3*%
X91900000Y-97200000D03*
%TO.P,U1,L15,VCCio3*%
X92700000Y-97200000D03*
%TO.P,U1,L16,GR_PCLK3_0*%
%TO.N,unconnected-(U1D-GR_PCLK3_0-PadL16)*%
X93500000Y-97200000D03*
%TO.P,U1,L17,PR50B*%
%TO.N,unconnected-(U1D-PR50B-PadL17)*%
X94300000Y-97200000D03*
%TO.P,U1,L18,GR_PCLK3_1*%
%TO.N,unconnected-(U1D-GR_PCLK3_1-PadL18)*%
X95100000Y-97200000D03*
%TO.P,U1,L19,PCLKT3_0*%
%TO.N,INT_OUT_3V3*%
X95900000Y-97200000D03*
%TO.P,U1,L20,PCLKT3_1*%
%TO.N,DMA_OUT_3V3*%
X96700000Y-97200000D03*
%TO.P,U1,M1,PL89B*%
%TO.N,D0_3V3*%
X81500000Y-98000000D03*
%TO.P,U1,M2,GND*%
%TO.N,GND*%
X82300000Y-98000000D03*
%TO.P,U1,M3,PL86B*%
%TO.N,unconnected-(U1E-PL86B-PadM3)*%
X83100000Y-98000000D03*
%TO.P,U1,M4,PL83A*%
%TO.N,unconnected-(U1E-PL83A-PadM4)*%
X83900000Y-98000000D03*
%TO.P,U1,M5,PL77A*%
%TO.N,unconnected-(U1E-PL77A-PadM5)*%
X84700000Y-98000000D03*
%TO.P,U1,M6,VCCio6*%
%TO.N,+3V3*%
X85500000Y-98000000D03*
%TO.P,U1,M7,GND*%
%TO.N,GND*%
X86300000Y-98000000D03*
%TO.P,U1,M8,VCC*%
%TO.N,+1V1*%
X87100000Y-98000000D03*
%TO.P,U1,M9,GND*%
%TO.N,GND*%
X87900000Y-98000000D03*
%TO.P,U1,M10,GND*%
X88700000Y-98000000D03*
%TO.P,U1,M11,GND*%
X89500000Y-98000000D03*
%TO.P,U1,M12,GND*%
X90300000Y-98000000D03*
%TO.P,U1,M13,VCC*%
%TO.N,+1V1*%
X91100000Y-98000000D03*
%TO.P,U1,M14,GND*%
%TO.N,GND*%
X91900000Y-98000000D03*
%TO.P,U1,M15,VCCio3*%
%TO.N,+3V3*%
X92700000Y-98000000D03*
%TO.P,U1,M16,GND*%
%TO.N,GND*%
X93500000Y-98000000D03*
%TO.P,U1,M17,PR53B*%
%TO.N,A8_3V3*%
X94300000Y-98000000D03*
%TO.P,U1,M18,PR50D*%
%TO.N,unconnected-(U1D-PR50D-PadM18)*%
X95100000Y-98000000D03*
%TO.P,U1,M19,PCLKC3_0*%
%TO.N,DMA_IN_3V3*%
X95900000Y-98000000D03*
%TO.P,U1,M20,PCLKC3_1*%
%TO.N,USER1_3V3*%
X96700000Y-98000000D03*
%TO.P,U1,N1,PL89D*%
%TO.N,D2_3V3*%
X81500000Y-98800000D03*
%TO.P,U1,N2,PL65A*%
%TO.N,D1_3V3*%
X82300000Y-98800000D03*
%TO.P,U1,N3,PL86A*%
%TO.N,D3_3V3*%
X83100000Y-98800000D03*
%TO.P,U1,N4,PL83C*%
%TO.N,unconnected-(U1E-PL83C-PadN4)*%
X83900000Y-98800000D03*
%TO.P,U1,N5,PL83B*%
%TO.N,unconnected-(U1E-PL83B-PadN5)*%
X84700000Y-98800000D03*
%TO.P,U1,N6,GND*%
%TO.N,GND*%
X85500000Y-98800000D03*
%TO.P,U1,N7,GND*%
X86300000Y-98800000D03*
%TO.P,U1,N8,VCC*%
%TO.N,+1V1*%
X87100000Y-98800000D03*
%TO.P,U1,N9,VCC*%
X87900000Y-98800000D03*
%TO.P,U1,N10,VCC*%
X88700000Y-98800000D03*
%TO.P,U1,N11,VCC*%
X89500000Y-98800000D03*
%TO.P,U1,N12,VCC*%
X90300000Y-98800000D03*
%TO.P,U1,N13,VCC*%
X91100000Y-98800000D03*
%TO.P,U1,N14,GND*%
%TO.N,GND*%
X91900000Y-98800000D03*
%TO.P,U1,N15,GND*%
X92700000Y-98800000D03*
%TO.P,U1,N16,PR53A*%
%TO.N,A9_3V3*%
X93500000Y-98800000D03*
%TO.P,U1,N17,PR56A*%
%TO.N,unconnected-(U1D-PR56A-PadN17)*%
X94300000Y-98800000D03*
%TO.P,U1,N18,PR53C*%
%TO.N,unconnected-(U1D-PR53C-PadN18)*%
X95100000Y-98800000D03*
%TO.P,U1,N19,PR83A*%
%TO.N,~{NMI}_3V3*%
X95900000Y-98800000D03*
%TO.P,U1,N20,PR83B*%
%TO.N,INT_IN_3V3*%
X96700000Y-98800000D03*
%TO.P,U1,P1,PL92A*%
%TO.N,D4_3V3*%
X81500000Y-99600000D03*
%TO.P,U1,P2,PL92B*%
%TO.N,D5_3V3*%
X82300000Y-99600000D03*
%TO.P,U1,P3,GPLL0T_IN*%
%TO.N,unconnected-(U1E-GPLL0T_IN-PadP3)*%
X83100000Y-99600000D03*
%TO.P,U1,P4,GPLL0C_IN*%
%TO.N,unconnected-(U1E-GPLL0C_IN-PadP4)*%
X83900000Y-99600000D03*
%TO.P,U1,P5,PL83D*%
%TO.N,unconnected-(U1E-PL83D-PadP5)*%
X84700000Y-99600000D03*
%TO.P,U1,P6,VCCAUX*%
%TO.N,+2V5*%
X85500000Y-99600000D03*
%TO.P,U1,P7,GND*%
%TO.N,GND*%
X86300000Y-99600000D03*
%TO.P,U1,P8,GND*%
X87100000Y-99600000D03*
%TO.P,U1,P9,VCCio8*%
%TO.N,+3V3*%
X87900000Y-99600000D03*
%TO.P,U1,P10,VCCio8*%
X88700000Y-99600000D03*
%TO.P,U1,P11,GND*%
%TO.N,GND*%
X89500000Y-99600000D03*
%TO.P,U1,P12,GND*%
X90300000Y-99600000D03*
%TO.P,U1,P13,GND*%
X91100000Y-99600000D03*
%TO.P,U1,P14,GND*%
X91900000Y-99600000D03*
%TO.P,U1,P15,VCCAUX*%
%TO.N,+2V5*%
X92700000Y-99600000D03*
%TO.P,U1,P16,VREF1_3*%
%TO.N,A10_3V3*%
X93500000Y-99600000D03*
%TO.P,U1,P17,PR53D*%
%TO.N,A11_3V3*%
X94300000Y-99600000D03*
%TO.P,U1,P18,PR83D*%
%TO.N,unconnected-(U1D-PR83D-PadP18)*%
X95100000Y-99600000D03*
%TO.P,U1,P19,PR83C*%
%TO.N,~{I{slash}O_STROBE}_3V3*%
X95900000Y-99600000D03*
%TO.P,U1,P20,PR86A*%
%TO.N,RDY_3V3*%
X96700000Y-99600000D03*
%TO.P,U1,R1,D7*%
%TO.N,D6_3V3*%
X81500000Y-100400000D03*
%TO.P,U1,R2,CSSPIN*%
%TO.N,/flash/FLASH_nCS*%
X82300000Y-100400000D03*
%TO.P,U1,R3,DOUT/CSOn*%
%TO.N,unconnected-(U1G-DOUT{slash}CSOn-PadR3)*%
X83100000Y-100400000D03*
%TO.P,U1,R4,CFG_2*%
%TO.N,GND*%
X83900000Y-100400000D03*
%TO.P,U1,R5,TDI*%
%TO.N,JTAG_TDI*%
X84700000Y-100400000D03*
%TO.P,U1,R16,PR56C*%
%TO.N,A12_3V3*%
X93500000Y-100400000D03*
%TO.P,U1,R17,PR56D*%
%TO.N,~{INH}_3V3*%
X94300000Y-100400000D03*
%TO.P,U1,R18,PR89B*%
%TO.N,A14_3V3*%
X95100000Y-100400000D03*
%TO.P,U1,R19,GND*%
%TO.N,GND*%
X95900000Y-100400000D03*
%TO.P,U1,R20,PR86B*%
%TO.N,~{RES}_3V3*%
X96700000Y-100400000D03*
%TO.P,U1,T1,D6*%
%TO.N,D7_3V3*%
X81500000Y-101200000D03*
%TO.P,U1,T2,SN/CSn*%
%TO.N,+3V3*%
X82300000Y-101200000D03*
%TO.P,U1,T3,WRITEn*%
X83100000Y-101200000D03*
%TO.P,U1,T4,CFG_1*%
X83900000Y-101200000D03*
%TO.P,U1,T5,TCK*%
%TO.N,JTAG_TCK*%
X84700000Y-101200000D03*
%TO.P,U1,T6,VCCA0*%
%TO.N,+1V1*%
X85500000Y-101200000D03*
%TO.P,U1,T7,VCCHTX0_D0CH0*%
%TO.N,unconnected-(U1H-VCCHTX0_D0CH0-PadT7)*%
X86300000Y-101200000D03*
%TO.P,U1,T8,VCCHRX0_D0CH0*%
%TO.N,unconnected-(U1H-VCCHRX0_D0CH0-PadT8)*%
X87100000Y-101200000D03*
%TO.P,U1,T9,VCCHRX0_D0CH1*%
%TO.N,unconnected-(U1H-VCCHRX0_D0CH1-PadT9)*%
X87900000Y-101200000D03*
%TO.P,U1,T10,VCCHTX0_D0CH1*%
%TO.N,unconnected-(U1H-VCCHTX0_D0CH1-PadT10)*%
X88700000Y-101200000D03*
%TO.P,U1,T11,VCCHTX0_D1CH0*%
%TO.N,unconnected-(U1H-VCCHTX0_D1CH0-PadT11)*%
X89500000Y-101200000D03*
%TO.P,U1,T12,VCCHRX0_D1CH0*%
%TO.N,unconnected-(U1H-VCCHRX0_D1CH0-PadT12)*%
X90300000Y-101200000D03*
%TO.P,U1,T13,VCCHRX0_D1CH1*%
%TO.N,unconnected-(U1H-VCCHRX0_D1CH1-PadT13)*%
X91100000Y-101200000D03*
%TO.P,U1,T14,VCCHTX0_D1CH1*%
%TO.N,unconnected-(U1H-VCCHTX0_D1CH1-PadT14)*%
X91900000Y-101200000D03*
%TO.P,U1,T15,VCCA1*%
%TO.N,+1V1*%
X92700000Y-101200000D03*
%TO.P,U1,T16,PR77A*%
%TO.N,unconnected-(U1D-PR77A-PadT16)*%
X93500000Y-101200000D03*
%TO.P,U1,T17,GPLL0C_IN*%
%TO.N,unconnected-(U1D-GPLL0C_IN-PadT17)*%
X94300000Y-101200000D03*
%TO.P,U1,T18,PR89D*%
%TO.N,7M_3V3*%
X95100000Y-101200000D03*
%TO.P,U1,T19,PR89A*%
%TO.N,A15_3V3*%
X95900000Y-101200000D03*
%TO.P,U1,T20,PR86C*%
%TO.N,R{slash}~{W}_3V3*%
X96700000Y-101200000D03*
%TO.P,U1,U1,D5/MISO2*%
%TO.N,A7_3V3*%
X81500000Y-102000000D03*
%TO.P,U1,U2,CS1n*%
%TO.N,+3V3*%
X82300000Y-102000000D03*
%TO.P,U1,U3,CCLK*%
%TO.N,/flash/FLASH_SCK*%
X83100000Y-102000000D03*
%TO.P,U1,U4,CFG_0*%
%TO.N,GND*%
X83900000Y-102000000D03*
%TO.P,U1,U5,TMS*%
%TO.N,JTAG_TMS*%
X84700000Y-102000000D03*
%TO.P,U1,U6,VCCA0*%
%TO.N,+1V1*%
X85500000Y-102000000D03*
%TO.P,U1,U7,GND*%
%TO.N,GND*%
X86300000Y-102000000D03*
%TO.P,U1,U8,GND*%
X87100000Y-102000000D03*
%TO.P,U1,U9,GND*%
X87900000Y-102000000D03*
%TO.P,U1,U10,GND*%
X88700000Y-102000000D03*
%TO.P,U1,U11,GND*%
X89500000Y-102000000D03*
%TO.P,U1,U12,GND*%
X90300000Y-102000000D03*
%TO.P,U1,U13,GND*%
X91100000Y-102000000D03*
%TO.P,U1,U14,GND*%
X91900000Y-102000000D03*
%TO.P,U1,U15,VCCA1*%
%TO.N,+1V1*%
X92700000Y-102000000D03*
%TO.P,U1,U16,GPLL0T_IN*%
%TO.N,unconnected-(U1D-GPLL0T_IN-PadU16)*%
X93500000Y-102000000D03*
%TO.P,U1,U17,PR92B*%
%TO.N,A13_3V3*%
X94300000Y-102000000D03*
%TO.P,U1,U18,PR92A*%
%TO.N,Q3_3V3*%
X95100000Y-102000000D03*
%TO.P,U1,U19,PR89C*%
%TO.N,PHI0_3V3*%
X95900000Y-102000000D03*
%TO.P,U1,U20,PR86D*%
%TO.N,PHI1_3V3*%
X96700000Y-102000000D03*
%TO.P,U1,V1,D4/MOSI2*%
%TO.N,~{DEVICE_SELECT}_3V3*%
X81500000Y-102800000D03*
%TO.P,U1,V2,D1/MISO*%
%TO.N,/flash/FLASH_MISO*%
X82300000Y-102800000D03*
%TO.P,U1,V3,INITn*%
%TO.N,/flash/FPGA_INITN*%
X83100000Y-102800000D03*
%TO.P,U1,V4,TDO*%
%TO.N,JTAG_TDO*%
X83900000Y-102800000D03*
%TO.P,U1,V5,GND*%
%TO.N,GND*%
X84700000Y-102800000D03*
%TO.P,U1,V6,GND*%
X85500000Y-102800000D03*
%TO.P,U1,V7,GND*%
X86300000Y-102800000D03*
%TO.P,U1,V8,GND*%
X87100000Y-102800000D03*
%TO.P,U1,V9,GND*%
X87900000Y-102800000D03*
%TO.P,U1,V10,VCCAUXA0*%
%TO.N,unconnected-(U1H-VCCAUXA0-PadV10)*%
X88700000Y-102800000D03*
%TO.P,U1,V11,VCCAUXA0*%
%TO.N,unconnected-(U1H-VCCAUXA0-PadV11)*%
X89500000Y-102800000D03*
%TO.P,U1,V12,GND*%
%TO.N,GND*%
X90300000Y-102800000D03*
%TO.P,U1,V13,GND*%
X91100000Y-102800000D03*
%TO.P,U1,V14,GND*%
X91900000Y-102800000D03*
%TO.P,U1,V15,GND*%
X92700000Y-102800000D03*
%TO.P,U1,V16,GND*%
X93500000Y-102800000D03*
%TO.P,U1,V17,VCCAUXA1*%
%TO.N,unconnected-(U1H-VCCAUXA1-PadV17)*%
X94300000Y-102800000D03*
%TO.P,U1,V18,VCCAUXA1*%
%TO.N,unconnected-(U1H-VCCAUXA1-PadV18)*%
X95100000Y-102800000D03*
%TO.P,U1,V19,GND*%
%TO.N,GND*%
X95900000Y-102800000D03*
%TO.P,U1,V20,GND*%
X96700000Y-102800000D03*
%TO.P,U1,W1,D3/HOLDn*%
%TO.N,/flash/FLASH_nHOLD*%
X81500000Y-103600000D03*
%TO.P,U1,W2,D0/MOSI*%
%TO.N,/flash/FLASH_MOSI*%
X82300000Y-103600000D03*
%TO.P,U1,W3,PROGRAMn*%
%TO.N,/flash/FPGA_PROGRAMN*%
X83100000Y-103600000D03*
%TO.P,U1,W4,HDTXP0_D0CH0*%
%TO.N,unconnected-(U1H-HDTXP0_D0CH0-PadW4)*%
X83900000Y-103600000D03*
%TO.P,U1,W5,HDTXN0_D0CH0*%
%TO.N,unconnected-(U1H-HDTXN0_D0CH0-PadW5)*%
X84700000Y-103600000D03*
%TO.P,U1,W6,GND*%
%TO.N,GND*%
X85500000Y-103600000D03*
%TO.P,U1,W7,GND*%
X86300000Y-103600000D03*
%TO.P,U1,W8,HDTXP0_D0CH1*%
%TO.N,unconnected-(U1H-HDTXP0_D0CH1-PadW8)*%
X87100000Y-103600000D03*
%TO.P,U1,W9,HDTXN0_D0CH1*%
%TO.N,unconnected-(U1H-HDTXN0_D0CH1-PadW9)*%
X87900000Y-103600000D03*
%TO.P,U1,W10*%
%TO.N,N/C*%
X88700000Y-103600000D03*
%TO.P,U1,W11*%
X89500000Y-103600000D03*
%TO.P,U1,W12,GND*%
%TO.N,GND*%
X90300000Y-103600000D03*
%TO.P,U1,W13,HDTXP0_D1CH0*%
%TO.N,unconnected-(U1H-HDTXP0_D1CH0-PadW13)*%
X91100000Y-103600000D03*
%TO.P,U1,W14,HDTXN0_D1CH0*%
%TO.N,unconnected-(U1H-HDTXN0_D1CH0-PadW14)*%
X91900000Y-103600000D03*
%TO.P,U1,W15,GND*%
%TO.N,GND*%
X92700000Y-103600000D03*
%TO.P,U1,W16,GND*%
X93500000Y-103600000D03*
%TO.P,U1,W17,HDTXP0_D1CH1*%
%TO.N,unconnected-(U1H-HDTXP0_D1CH1-PadW17)*%
X94300000Y-103600000D03*
%TO.P,U1,W18,HDTXN0_D1CH1*%
%TO.N,unconnected-(U1H-HDTXN0_D1CH1-PadW18)*%
X95100000Y-103600000D03*
%TO.P,U1,W19,GND*%
%TO.N,GND*%
X95900000Y-103600000D03*
%TO.P,U1,W20,REFCLKN_D1*%
%TO.N,unconnected-(U1H-REFCLKN_D1-PadW20)*%
X96700000Y-103600000D03*
D30*
%TO.P,U1,X*%
%TO.N,N/C*%
X80600000Y-88300000D03*
D31*
X80600000Y-88300000D03*
D30*
X80600000Y-105300000D03*
D31*
X80600000Y-105300000D03*
D30*
X97600000Y-88300000D03*
D31*
X97600000Y-88300000D03*
D30*
X97600000Y-105300000D03*
D31*
X97600000Y-105300000D03*
D29*
%TO.P,U1,Y2,D2/WPn*%
%TO.N,/flash/FLASH_nWP*%
X82300000Y-104400000D03*
%TO.P,U1,Y3,DONE*%
%TO.N,/flash/FPGA_DONE*%
X83100000Y-104400000D03*
%TO.P,U1,Y5,HDRXP0_D0CH0*%
%TO.N,unconnected-(U1H-HDRXP0_D0CH0-PadY5)*%
X84700000Y-104400000D03*
%TO.P,U1,Y6,HDRXN0_D0CH0*%
%TO.N,unconnected-(U1H-HDRXN0_D0CH0-PadY6)*%
X85500000Y-104400000D03*
%TO.P,U1,Y7,HDRXP0_D0CH1*%
%TO.N,unconnected-(U1H-HDRXP0_D0CH1-PadY7)*%
X86300000Y-104400000D03*
%TO.P,U1,Y8,HDRXN0_D0CH1*%
%TO.N,unconnected-(U1H-HDRXN0_D0CH1-PadY8)*%
X87100000Y-104400000D03*
%TO.P,U1,Y11,REFCLKP_D0*%
%TO.N,unconnected-(U1H-REFCLKP_D0-PadY11)*%
X89500000Y-104400000D03*
%TO.P,U1,Y12,REFCLKN_D0*%
%TO.N,unconnected-(U1H-REFCLKN_D0-PadY12)*%
X90300000Y-104400000D03*
%TO.P,U1,Y14,HDRXP0_D1CH0*%
%TO.N,unconnected-(U1H-HDRXP0_D1CH0-PadY14)*%
X91900000Y-104400000D03*
%TO.P,U1,Y15,HDRXN0_D1CH0*%
%TO.N,unconnected-(U1H-HDRXN0_D1CH0-PadY15)*%
X92700000Y-104400000D03*
%TO.P,U1,Y16,HDRXP0_D1CH1*%
%TO.N,unconnected-(U1H-HDRXP0_D1CH1-PadY16)*%
X93500000Y-104400000D03*
%TO.P,U1,Y17,HDRXN0_D1CH1*%
%TO.N,unconnected-(U1H-HDRXN0_D1CH1-PadY17)*%
X94300000Y-104400000D03*
%TO.P,U1,Y19,REFCLKP_D1*%
%TO.N,unconnected-(U1H-REFCLKP_D1-PadY19)*%
X95900000Y-104400000D03*
%TD*%
D21*
%TO.P,C22,1*%
%TO.N,/power/P1V1*%
X115749080Y-101600000D03*
%TO.P,C22,2*%
%TO.N,GND*%
X115749080Y-99700000D03*
%TD*%
D25*
%TO.P,R49,1*%
%TO.N,USB_FTDI_D-*%
X58675000Y-89000000D03*
%TO.P,R49,2*%
%TO.N,/usb/FTD-*%
X60325000Y-89000000D03*
%TD*%
D32*
%TO.P,U3,1,EN*%
%TO.N,+5V*%
X126299080Y-104650000D03*
%TO.P,U3,2,GND*%
%TO.N,GND*%
X126299080Y-103700000D03*
%TO.P,U3,3,LX*%
%TO.N,/power/L1*%
X126299080Y-102750000D03*
%TO.P,U3,4,VIN*%
%TO.N,+5V*%
X123699080Y-102750000D03*
%TO.P,U3,5,FB*%
%TO.N,/power/FB1*%
X123699080Y-104650000D03*
%TD*%
D33*
%TO.P,RP1,1,1*%
%TO.N,/power/P1V1*%
X113249080Y-101700000D03*
%TO.P,RP1,2,2*%
%TO.N,+1V1*%
X111314080Y-101700000D03*
%TD*%
D26*
%TO.P,D19,1,K*%
%TO.N,Net-(D19-K)*%
X52062500Y-87500000D03*
%TO.P,D19,2,A*%
%TO.N,FT3V3OUT*%
X53937500Y-87500000D03*
%TD*%
D34*
%TO.P,D2,1,K*%
%TO.N,CARD5V*%
X117800000Y-126800000D03*
%TO.P,D2,2,A*%
%TO.N,+5V*%
X121800000Y-126800000D03*
%TD*%
D16*
%TO.P,U9,1,V_{CCA}*%
%TO.N,CARD5V*%
X100115000Y-127000000D03*
%TO.P,U9,2,DIR*%
X100750000Y-127000000D03*
%TO.P,U9,3,A1*%
%TO.N,unconnected-(U9-A1-Pad3)*%
X101385000Y-127000000D03*
%TO.P,U9,4,A2*%
%TO.N,~{I{slash}O_STROBE}_5V*%
X102020000Y-127000000D03*
%TO.P,U9,5,A3*%
%TO.N,~{RES}_5V*%
X102655000Y-127000000D03*
%TO.P,U9,6,A4*%
%TO.N,unconnected-(U9-A4-Pad6)*%
X103290000Y-127000000D03*
%TO.P,U9,7,A5*%
%TO.N,RDY_5V*%
X103925000Y-127000000D03*
%TO.P,U9,8,A6*%
%TO.N,~{NMI}_5V*%
X104560000Y-127000000D03*
%TO.P,U9,9,A7*%
%TO.N,INT_IN_5V*%
X105195000Y-127000000D03*
%TO.P,U9,10,A8*%
%TO.N,DMA_IN_5V*%
X105830000Y-127000000D03*
%TO.P,U9,11,GND*%
%TO.N,GND*%
X106465000Y-127000000D03*
%TO.P,U9,12,GND*%
X107100000Y-127000000D03*
%TO.P,U9,13,GND*%
X107100000Y-121793000D03*
%TO.P,U9,14,B8*%
%TO.N,DMA_IN_3V3*%
X106465000Y-121793000D03*
%TO.P,U9,15,B7*%
%TO.N,INT_IN_3V3*%
X105830000Y-121793000D03*
%TO.P,U9,16,B6*%
%TO.N,~{NMI}_3V3*%
X105195000Y-121793000D03*
%TO.P,U9,17,B5*%
%TO.N,RDY_3V3*%
X104560000Y-121793000D03*
%TO.P,U9,18,B4*%
%TO.N,unconnected-(U9-B4-Pad18)*%
X103925000Y-121793000D03*
%TO.P,U9,19,B3*%
%TO.N,~{RES}_3V3*%
X103290000Y-121793000D03*
%TO.P,U9,20,B2*%
%TO.N,~{I{slash}O_STROBE}_3V3*%
X102655000Y-121793000D03*
%TO.P,U9,21,B1*%
%TO.N,unconnected-(U9-B1-Pad21)*%
X102020000Y-121793000D03*
%TO.P,U9,22,~{OE}*%
%TO.N,GND*%
X101385000Y-121793000D03*
%TO.P,U9,23,V_{CCB}*%
%TO.N,+3V3*%
X100750000Y-121793000D03*
%TO.P,U9,24,V_{CCB}*%
X100115000Y-121793000D03*
%TD*%
D20*
%TO.P,H1,1,1*%
%TO.N,GND*%
X53750000Y-53750000D03*
%TD*%
D16*
%TO.P,U12,1,V_{CCA}*%
%TO.N,CARD5V*%
X69757500Y-121353500D03*
%TO.P,U12,2,DIR*%
%TO.N,R{slash}~{W}_5V*%
X70392500Y-121353500D03*
%TO.P,U12,3,A1*%
%TO.N,D0_5V*%
X71027500Y-121353500D03*
%TO.P,U12,4,A2*%
%TO.N,D1_5V*%
X71662500Y-121353500D03*
%TO.P,U12,5,A3*%
%TO.N,D2_5V*%
X72297500Y-121353500D03*
%TO.P,U12,6,A4*%
%TO.N,D3_5V*%
X72932500Y-121353500D03*
%TO.P,U12,7,A5*%
%TO.N,D4_5V*%
X73567500Y-121353500D03*
%TO.P,U12,8,A6*%
%TO.N,D5_5V*%
X74202500Y-121353500D03*
%TO.P,U12,9,A7*%
%TO.N,D6_5V*%
X74837500Y-121353500D03*
%TO.P,U12,10,A8*%
%TO.N,D7_5V*%
X75472500Y-121353500D03*
%TO.P,U12,11,GND*%
%TO.N,GND*%
X76107500Y-121353500D03*
%TO.P,U12,12,GND*%
X76742500Y-121353500D03*
%TO.P,U12,13,GND*%
X76742500Y-116146500D03*
%TO.P,U12,14,B8*%
%TO.N,D7_3V3*%
X76107500Y-116146500D03*
%TO.P,U12,15,B7*%
%TO.N,D6_3V3*%
X75472500Y-116146500D03*
%TO.P,U12,16,B6*%
%TO.N,D5_3V3*%
X74837500Y-116146500D03*
%TO.P,U12,17,B5*%
%TO.N,D4_3V3*%
X74202500Y-116146500D03*
%TO.P,U12,18,B4*%
%TO.N,D3_3V3*%
X73567500Y-116146500D03*
%TO.P,U12,19,B3*%
%TO.N,D2_3V3*%
X72932500Y-116146500D03*
%TO.P,U12,20,B2*%
%TO.N,D1_3V3*%
X72297500Y-116146500D03*
%TO.P,U12,21,B1*%
%TO.N,D0_3V3*%
X71662500Y-116146500D03*
%TO.P,U12,22,~{OE}*%
%TO.N,GND*%
X71027500Y-116146500D03*
%TO.P,U12,23,V_{CCB}*%
%TO.N,+3V3*%
X70392500Y-116146500D03*
%TO.P,U12,24,V_{CCB}*%
X69757500Y-116146500D03*
%TD*%
D24*
%TO.P,C13,1*%
%TO.N,CARD5V*%
X56761063Y-125738937D03*
%TO.P,C13,2*%
%TO.N,GND*%
X56761063Y-124188937D03*
%TD*%
D16*
%TO.P,U11,1,V_{CCA}*%
%TO.N,CARD5V*%
X79190000Y-126957000D03*
%TO.P,U11,2,DIR*%
X79825000Y-126957000D03*
%TO.P,U11,3,A1*%
%TO.N,A7_5V*%
X80460000Y-126957000D03*
%TO.P,U11,4,A2*%
%TO.N,~{DEVICE_SELECT}_5V*%
X81095000Y-126957000D03*
%TO.P,U11,5,A3*%
%TO.N,A8_5V*%
X81730000Y-126957000D03*
%TO.P,U11,6,A4*%
%TO.N,A9_5V*%
X82365000Y-126957000D03*
%TO.P,U11,7,A5*%
%TO.N,A10_5V*%
X83000000Y-126957000D03*
%TO.P,U11,8,A6*%
%TO.N,A11_5V*%
X83635000Y-126957000D03*
%TO.P,U11,9,A7*%
%TO.N,A12_5V*%
X84270000Y-126957000D03*
%TO.P,U11,10,A8*%
%TO.N,A13_5V*%
X84905000Y-126957000D03*
%TO.P,U11,11,GND*%
%TO.N,GND*%
X85540000Y-126957000D03*
%TO.P,U11,12,GND*%
X86175000Y-126957000D03*
%TO.P,U11,13,GND*%
X86175000Y-121750000D03*
%TO.P,U11,14,B8*%
%TO.N,A13_3V3*%
X85540000Y-121750000D03*
%TO.P,U11,15,B7*%
%TO.N,A12_3V3*%
X84905000Y-121750000D03*
%TO.P,U11,16,B6*%
%TO.N,A11_3V3*%
X84270000Y-121750000D03*
%TO.P,U11,17,B5*%
%TO.N,A10_3V3*%
X83635000Y-121750000D03*
%TO.P,U11,18,B4*%
%TO.N,A9_3V3*%
X83000000Y-121750000D03*
%TO.P,U11,19,B3*%
%TO.N,A8_3V3*%
X82365000Y-121750000D03*
%TO.P,U11,20,B2*%
%TO.N,~{DEVICE_SELECT}_3V3*%
X81730000Y-121750000D03*
%TO.P,U11,21,B1*%
%TO.N,A7_3V3*%
X81095000Y-121750000D03*
%TO.P,U11,22,~{OE}*%
%TO.N,GND*%
X80460000Y-121750000D03*
%TO.P,U11,23,V_{CCB}*%
%TO.N,+3V3*%
X79825000Y-121750000D03*
%TO.P,U11,24,V_{CCB}*%
X79190000Y-121750000D03*
%TD*%
D18*
%TO.P,RB1,1*%
%TO.N,GND*%
X120999080Y-106200000D03*
%TO.P,RB1,2*%
%TO.N,/power/FB1*%
X120999080Y-104550000D03*
%TD*%
D20*
%TO.P,H4,1,1*%
%TO.N,GND*%
X53750000Y-120750000D03*
%TD*%
D35*
%TO.P,L1,1,1*%
%TO.N,/power/L1*%
X126249080Y-100200000D03*
%TO.P,L1,2,2*%
%TO.N,/power/P1V1*%
X123709080Y-100200000D03*
%TD*%
D36*
%TO.P,US1,1,VBUS*%
%TO.N,USB5V*%
X54675000Y-72900000D03*
%TO.P,US1,2,D-*%
%TO.N,/usb/FTD-*%
X54675000Y-73550000D03*
%TO.P,US1,3,D+*%
%TO.N,/usb/FTD+*%
X54675000Y-74200000D03*
%TO.P,US1,4,ID*%
%TO.N,unconnected-(US1-ID-Pad4)*%
X54675000Y-74850000D03*
%TO.P,US1,5,GND*%
%TO.N,GND*%
X54675000Y-75500000D03*
D37*
%TO.P,US1,6,shield*%
X52000000Y-70400000D03*
D38*
X54550000Y-71100000D03*
D39*
X52000000Y-73000000D03*
X52000000Y-75400000D03*
D38*
X54550000Y-77300000D03*
D37*
X52000000Y-78000000D03*
%TD*%
D15*
%TO.P,RA3,1*%
%TO.N,/power/P3V3*%
X121599080Y-80550000D03*
%TO.P,RA3,2*%
%TO.N,/power/FB3*%
X121599080Y-82200000D03*
%TD*%
D40*
%TO.P,C16,1*%
%TO.N,+3V3*%
X90000000Y-61000000D03*
%TO.P,C16,2*%
%TO.N,GND*%
X88100000Y-61000000D03*
%TD*%
D32*
%TO.P,U4,1,EN*%
%TO.N,+5V*%
X125799080Y-91000000D03*
%TO.P,U4,2,GND*%
%TO.N,GND*%
X125799080Y-91950000D03*
%TO.P,U4,3,LX*%
%TO.N,/power/L2*%
X125799080Y-92900000D03*
%TO.P,U4,4,VIN*%
%TO.N,+5V*%
X128399080Y-92900000D03*
%TO.P,U4,5,FB*%
%TO.N,/power/FB2*%
X128399080Y-91000000D03*
%TD*%
D18*
%TO.P,R9,1*%
%TO.N,nRESET*%
X52000000Y-96500000D03*
%TO.P,R9,2*%
%TO.N,+3V3*%
X52000000Y-94850000D03*
%TD*%
D35*
%TO.P,L2,1,1*%
%TO.N,/power/L2*%
X126539080Y-95400000D03*
%TO.P,L2,2,2*%
%TO.N,/power/P2V5*%
X123999080Y-95400000D03*
%TD*%
D41*
%TO.P,U10,1,~{CS}*%
%TO.N,/flash/FLASH_nCS*%
X64905000Y-98198000D03*
D42*
%TO.P,U10,2,MISO*%
%TO.N,/flash/FLASH_MISO*%
X63635000Y-98198000D03*
%TO.P,U10,3,~{WP}*%
%TO.N,/flash/FLASH_nWP*%
X62365000Y-98198000D03*
%TO.P,U10,4,GND*%
%TO.N,GND*%
X61095000Y-98198000D03*
%TO.P,U10,5,MOSI*%
%TO.N,/flash/FLASH_MOSI*%
X61095000Y-104802000D03*
%TO.P,U10,6,SCK*%
%TO.N,/flash/FLASH_SCK*%
X62365000Y-104802000D03*
%TO.P,U10,7,~{HOLD}*%
%TO.N,/flash/FLASH_nHOLD*%
X63635000Y-104802000D03*
%TO.P,U10,8,VCC*%
%TO.N,+3V3*%
X64905000Y-104802000D03*
%TD*%
D34*
%TO.P,D1,1,K*%
%TO.N,USB5V*%
X62175000Y-72900000D03*
%TO.P,D1,2,A*%
%TO.N,+5V*%
X66175000Y-72900000D03*
%TD*%
D21*
%TO.P,C7,1*%
%TO.N,/power/P3V3*%
X116799080Y-80550000D03*
%TO.P,C7,2*%
%TO.N,GND*%
X116799080Y-78650000D03*
%TD*%
D15*
%TO.P,RA1,1*%
%TO.N,/power/P1V1*%
X118499080Y-103450000D03*
%TO.P,RA1,2*%
%TO.N,/power/FB1*%
X118499080Y-105100000D03*
%TD*%
D35*
%TO.P,L3,1,1*%
%TO.N,/power/L3*%
X127669080Y-79800000D03*
%TO.P,L3,2,2*%
%TO.N,/power/P3V3*%
X125129080Y-79800000D03*
%TD*%
D21*
%TO.P,C3,1*%
%TO.N,/power/P1V1*%
X121249080Y-101600000D03*
%TO.P,C3,2*%
%TO.N,GND*%
X121249080Y-99700000D03*
%TD*%
D12*
%TO.P,J4,1,Pin_1*%
%TO.N,GND*%
X56500000Y-112000000D03*
D13*
%TO.P,J4,2,Pin_2*%
%TO.N,+3V3*%
X53960000Y-112000000D03*
%TO.P,J4,3,Pin_3*%
%TO.N,JTAG_TDI*%
X56500000Y-109460000D03*
%TO.P,J4,4,Pin_4*%
%TO.N,JTAG_TCK*%
X53960000Y-109460000D03*
%TO.P,J4,5,Pin_5*%
%TO.N,JTAG_TMS*%
X56500000Y-106920000D03*
%TO.P,J4,6,Pin_6*%
%TO.N,JTAG_TDO*%
X53960000Y-106920000D03*
%TD*%
D22*
%TO.P,C20,1*%
%TO.N,+3V3*%
X113299080Y-85600000D03*
%TO.P,C20,2*%
%TO.N,GND*%
X115199080Y-85600000D03*
%TD*%
D24*
%TO.P,C18,1*%
%TO.N,CARD5V*%
X87000000Y-119400000D03*
%TO.P,C18,2*%
%TO.N,GND*%
X87000000Y-117850000D03*
%TD*%
D43*
%TO.P,U2,1,VDD*%
%TO.N,+3V3*%
X94800000Y-83800000D03*
D44*
%TO.P,U2,2,DQ0*%
%TO.N,SDRAM_D0*%
X94800000Y-83000000D03*
%TO.P,U2,3,VDDQ*%
%TO.N,+3V3*%
X94800000Y-82200000D03*
%TO.P,U2,4,DQ1*%
%TO.N,SDRAM_D1*%
X94800000Y-81400000D03*
%TO.P,U2,5,DQ2*%
%TO.N,SDRAM_D2*%
X94800000Y-80600000D03*
%TO.P,U2,6,VSSQ*%
%TO.N,GND*%
X94800000Y-79800000D03*
%TO.P,U2,7,DQ3*%
%TO.N,SDRAM_D3*%
X94800000Y-79000000D03*
%TO.P,U2,8,DQ4*%
%TO.N,SDRAM_D4*%
X94800000Y-78200000D03*
%TO.P,U2,9,VDDQ*%
%TO.N,+3V3*%
X94800000Y-77400000D03*
%TO.P,U2,10,DQ5*%
%TO.N,SDRAM_D5*%
X94800000Y-76600000D03*
%TO.P,U2,11,DQ6*%
%TO.N,SDRAM_D6*%
X94800000Y-75800000D03*
%TO.P,U2,12,VSSQ*%
%TO.N,GND*%
X94800000Y-75000000D03*
%TO.P,U2,13,DQ7*%
%TO.N,SDRAM_D7*%
X94800000Y-74200000D03*
%TO.P,U2,14,VDD*%
%TO.N,+3V3*%
X94800000Y-73400000D03*
%TO.P,U2,15,DQML*%
%TO.N,SDRAM_DQM0*%
X94800000Y-72600000D03*
%TO.P,U2,16,~{WE}*%
%TO.N,SDRAM_nWE*%
X94800000Y-71800000D03*
%TO.P,U2,17,~{CAS}*%
%TO.N,SDRAM_nCAS*%
X94800000Y-71000000D03*
%TO.P,U2,18,~{RAS}*%
%TO.N,SDRAM_nRAS*%
X94800000Y-70200000D03*
%TO.P,U2,19,~{CS}*%
%TO.N,SDRAM_nCS*%
X94800000Y-69400000D03*
%TO.P,U2,20,BA0*%
%TO.N,SDRAM_BA0*%
X94800000Y-68600000D03*
%TO.P,U2,21,BA1*%
%TO.N,SDRAM_BA1*%
X94800000Y-67800000D03*
%TO.P,U2,22,A10*%
%TO.N,SDRAM_A10*%
X94800000Y-67000000D03*
%TO.P,U2,23,A0*%
%TO.N,SDRAM_A0*%
X94800000Y-66200000D03*
%TO.P,U2,24,A1*%
%TO.N,SDRAM_A1*%
X94800000Y-65400000D03*
%TO.P,U2,25,A2*%
%TO.N,SDRAM_A2*%
X94800000Y-64600000D03*
%TO.P,U2,26,A3*%
%TO.N,SDRAM_A3*%
X94800000Y-63800000D03*
%TO.P,U2,27,VDD*%
%TO.N,+3V3*%
X94800000Y-63000000D03*
%TO.P,U2,28,VSS*%
%TO.N,GND*%
X83340000Y-63000000D03*
%TO.P,U2,29,A4*%
%TO.N,SDRAM_A4*%
X83340000Y-63800000D03*
%TO.P,U2,30,A5*%
%TO.N,SDRAM_A5*%
X83340000Y-64600000D03*
%TO.P,U2,31,A6*%
%TO.N,SDRAM_A6*%
X83340000Y-65400000D03*
%TO.P,U2,32,A7*%
%TO.N,SDRAM_A7*%
X83340000Y-66200000D03*
%TO.P,U2,33,A8*%
%TO.N,SDRAM_A8*%
X83340000Y-67000000D03*
%TO.P,U2,34,A9*%
%TO.N,SDRAM_A9*%
X83340000Y-67800000D03*
%TO.P,U2,35,A11*%
%TO.N,SDRAM_A11*%
X83340000Y-68600000D03*
%TO.P,U2,36,A12*%
%TO.N,SDRAM_A12*%
X83340000Y-69400000D03*
%TO.P,U2,37,CKE*%
%TO.N,SDRAM_CKE*%
X83340000Y-70200000D03*
%TO.P,U2,38,CLK*%
%TO.N,SDRAM_CLK*%
X83340000Y-71000000D03*
%TO.P,U2,39,DQMH*%
%TO.N,SDRAM_DQM1*%
X83340000Y-71800000D03*
%TO.P,U2,40*%
%TO.N,N/C*%
X83340000Y-72600000D03*
%TO.P,U2,41,VSS*%
%TO.N,GND*%
X83340000Y-73400000D03*
%TO.P,U2,42,DQ8*%
%TO.N,SDRAM_D8*%
X83340000Y-74200000D03*
%TO.P,U2,43,VDDQ*%
%TO.N,+3V3*%
X83340000Y-75000000D03*
%TO.P,U2,44,DQ9*%
%TO.N,SDRAM_D9*%
X83340000Y-75800000D03*
%TO.P,U2,45,DQ10*%
%TO.N,SDRAM_D10*%
X83340000Y-76600000D03*
%TO.P,U2,46,VSSQ*%
%TO.N,GND*%
X83340000Y-77400000D03*
%TO.P,U2,47,DQ11*%
%TO.N,SDRAM_D11*%
X83340000Y-78200000D03*
%TO.P,U2,48,DQ12*%
%TO.N,SDRAM_D12*%
X83340000Y-79000000D03*
%TO.P,U2,49,VDDQ*%
%TO.N,+3V3*%
X83340000Y-79800000D03*
%TO.P,U2,50,DQ13*%
%TO.N,SDRAM_D13*%
X83340000Y-80600000D03*
%TO.P,U2,51,DQ14*%
%TO.N,SDRAM_D14*%
X83340000Y-81400000D03*
%TO.P,U2,52,VSSQ*%
%TO.N,GND*%
X83340000Y-82200000D03*
%TO.P,U2,53,DQ15*%
%TO.N,SDRAM_D15*%
X83340000Y-83000000D03*
%TO.P,U2,54,VSS*%
%TO.N,GND*%
X83340000Y-83800000D03*
%TD*%
D45*
%TO.P,U6,1,RXD*%
%TO.N,unconnected-(U6-RXD-Pad1)*%
X57437500Y-98062500D03*
%TO.P,U6,2,~{RI}*%
%TO.N,JTAG_TDI*%
X57437500Y-97562500D03*
%TO.P,U6,3,GND*%
%TO.N,GND*%
X57437500Y-97062500D03*
%TO.P,U6,4,~{DSR}*%
%TO.N,JTAG_TCK*%
X57437500Y-96562500D03*
%TO.P,U6,5,~{DCD}*%
%TO.N,JTAG_TMS*%
X57437500Y-96062500D03*
D46*
%TO.P,U6,6,~{CTS}*%
%TO.N,JTAG_TDO*%
X56500000Y-95125000D03*
%TO.P,U6,7,CBUS2*%
%TO.N,FTDI_nTXLED*%
X56000000Y-95125000D03*
%TO.P,U6,8,USBDP*%
%TO.N,USB_FTDI_D+*%
X55500000Y-95125000D03*
%TO.P,U6,9,USBDM*%
%TO.N,USB_FTDI_D-*%
X55000000Y-95125000D03*
%TO.P,U6,10,3V3OUT*%
%TO.N,FT3V3OUT*%
X54500000Y-95125000D03*
D45*
%TO.P,U6,11,~{RESET}*%
%TO.N,nRESET*%
X53562500Y-96062500D03*
%TO.P,U6,12,VCC*%
%TO.N,+5V*%
X53562500Y-96562500D03*
%TO.P,U6,13,GND*%
%TO.N,GND*%
X53562500Y-97062500D03*
%TO.P,U6,14,CBUS1*%
%TO.N,FTDI_nRXLED*%
X53562500Y-97562500D03*
%TO.P,U6,15,CBUS0*%
%TO.N,unconnected-(U6-CBUS0-Pad15)*%
X53562500Y-98062500D03*
D46*
%TO.P,U6,16,CBUS3*%
%TO.N,unconnected-(U6-CBUS3-Pad16)*%
X54500000Y-99000000D03*
%TO.P,U6,17,TXD*%
%TO.N,unconnected-(U6-TXD-Pad17)*%
X55000000Y-99000000D03*
%TO.P,U6,18,~{DTR}*%
%TO.N,unconnected-(U6-~{DTR}-Pad18)*%
X55500000Y-99000000D03*
%TO.P,U6,19,~{RTS}*%
%TO.N,unconnected-(U6-~{RTS}-Pad19)*%
X56000000Y-99000000D03*
%TO.P,U6,20,VCCIO*%
%TO.N,+3V3*%
X56500000Y-99000000D03*
D47*
%TO.P,U6,21,GND*%
%TO.N,GND*%
X55500000Y-97062500D03*
%TD*%
D24*
%TO.P,C15,1*%
%TO.N,CARD5V*%
X77400000Y-125200000D03*
%TO.P,C15,2*%
%TO.N,GND*%
X77400000Y-123650000D03*
%TD*%
%TO.P,C36,1*%
%TO.N,CARD5V*%
X110400000Y-121775000D03*
%TO.P,C36,2*%
%TO.N,GND*%
X110400000Y-120225000D03*
%TD*%
D21*
%TO.P,C8,1*%
%TO.N,/power/P3V3*%
X113399080Y-80400000D03*
%TO.P,C8,2*%
%TO.N,GND*%
X113399080Y-78500000D03*
%TD*%
D17*
%TO.P,C17,1*%
%TO.N,+1V1*%
X111249080Y-103450000D03*
%TO.P,C17,2*%
%TO.N,GND*%
X111249080Y-105350000D03*
%TD*%
D21*
%TO.P,C4,1*%
%TO.N,/power/P1V1*%
X118499080Y-101650000D03*
%TO.P,C4,2*%
%TO.N,GND*%
X118499080Y-99750000D03*
%TD*%
D24*
%TO.P,C21,1*%
%TO.N,CARD5V*%
X98200000Y-125200000D03*
%TO.P,C21,2*%
%TO.N,GND*%
X98200000Y-123650000D03*
%TD*%
D33*
%TO.P,RP2,1,1*%
%TO.N,/power/P2V5*%
X113199080Y-95200000D03*
%TO.P,RP2,2,2*%
%TO.N,+2V5*%
X111264080Y-95200000D03*
%TD*%
D15*
%TO.P,R30,1*%
%TO.N,+3V3*%
X67825000Y-96175000D03*
%TO.P,R30,2*%
%TO.N,/flash/FLASH_nCS*%
X67825000Y-97825000D03*
%TD*%
D18*
%TO.P,R1,1*%
%TO.N,FTDI_nRXLED*%
X52000000Y-100150000D03*
%TO.P,R1,2*%
%TO.N,Net-(D3-K)*%
X52000000Y-98500000D03*
%TD*%
D20*
%TO.P,H3,1,1*%
%TO.N,GND*%
X171750000Y-120750000D03*
%TD*%
D19*
%TO.P,R37,1*%
%TO.N,FTDI_nTXLED*%
X53500000Y-84000000D03*
%TO.P,R37,2*%
%TO.N,Net-(D19-K)*%
X51850000Y-84000000D03*
%TD*%
D17*
%TO.P,C9,1*%
%TO.N,+5V*%
X124199080Y-90000000D03*
%TO.P,C9,2*%
%TO.N,GND*%
X124199080Y-91900000D03*
%TD*%
D28*
%TO.P,C34,1*%
%TO.N,+3V3*%
X66500000Y-87725000D03*
%TO.P,C34,2*%
%TO.N,GND*%
X66500000Y-89275000D03*
%TD*%
D21*
%TO.P,C19,1*%
%TO.N,+2V5*%
X113199080Y-91300000D03*
%TO.P,C19,2*%
%TO.N,GND*%
X113199080Y-89400000D03*
%TD*%
D16*
%TO.P,U14,1,V_{CCA}*%
%TO.N,CARD5V*%
X112257500Y-123353500D03*
%TO.P,U14,2,DIR*%
%TO.N,GND*%
X112892500Y-123353500D03*
%TO.P,U14,3,A1*%
%TO.N,USER1_5V*%
X113527500Y-123353500D03*
%TO.P,U14,4,A2*%
%TO.N,INT_OUT_5V*%
X114162500Y-123353500D03*
%TO.P,U14,5,A3*%
%TO.N,DMA_OUT_5V*%
X114797500Y-123353500D03*
%TO.P,U14,6,A4*%
%TO.N,unconnected-(U14-A4-Pad6)*%
X115432500Y-123353500D03*
%TO.P,U14,7,A5*%
%TO.N,unconnected-(U14-A5-Pad7)*%
X116067500Y-123353500D03*
%TO.P,U14,8,A6*%
%TO.N,unconnected-(U14-A6-Pad8)*%
X116702500Y-123353500D03*
%TO.P,U14,9,A7*%
%TO.N,unconnected-(U14-A7-Pad9)*%
X117337500Y-123353500D03*
%TO.P,U14,10,A8*%
%TO.N,unconnected-(U14-A8-Pad10)*%
X117972500Y-123353500D03*
%TO.P,U14,11,GND*%
%TO.N,GND*%
X118607500Y-123353500D03*
%TO.P,U14,12,GND*%
X119242500Y-123353500D03*
%TO.P,U14,13,GND*%
X119242500Y-118146500D03*
%TO.P,U14,14,B8*%
%TO.N,unconnected-(U14-B8-Pad14)*%
X118607500Y-118146500D03*
%TO.P,U14,15,B7*%
%TO.N,unconnected-(U14-B7-Pad15)*%
X117972500Y-118146500D03*
%TO.P,U14,16,B6*%
%TO.N,unconnected-(U14-B6-Pad16)*%
X117337500Y-118146500D03*
%TO.P,U14,17,B5*%
%TO.N,unconnected-(U14-B5-Pad17)*%
X116702500Y-118146500D03*
%TO.P,U14,18,B4*%
%TO.N,unconnected-(U14-B4-Pad18)*%
X116067500Y-118146500D03*
%TO.P,U14,19,B3*%
%TO.N,DMA_OUT_3V3*%
X115432500Y-118146500D03*
%TO.P,U14,20,B2*%
%TO.N,INT_OUT_3V3*%
X114797500Y-118146500D03*
%TO.P,U14,21,B1*%
%TO.N,USER1_3V3*%
X114162500Y-118146500D03*
%TO.P,U14,22,~{OE}*%
%TO.N,GND*%
X113527500Y-118146500D03*
%TO.P,U14,23,V_{CCB}*%
%TO.N,+3V3*%
X112892500Y-118146500D03*
%TO.P,U14,24,V_{CCB}*%
X112257500Y-118146500D03*
%TD*%
D21*
%TO.P,C24,1*%
%TO.N,/power/P3V3*%
X109999080Y-80500000D03*
%TO.P,C24,2*%
%TO.N,GND*%
X109999080Y-78600000D03*
%TD*%
D48*
%TO.P,Y1,1,1*%
%TO.N,+3V3*%
X68600000Y-85920000D03*
%TO.P,Y1,2,2*%
%TO.N,GND*%
X68600000Y-91000000D03*
%TO.P,Y1,3,3*%
%TO.N,CLK_25MHz*%
X73000000Y-91000000D03*
%TO.P,Y1,4,4*%
%TO.N,+3V3*%
X73000000Y-85920000D03*
%TD*%
D24*
%TO.P,C14,1*%
%TO.N,CARD5V*%
X68000000Y-120200000D03*
%TO.P,C14,2*%
%TO.N,GND*%
X68000000Y-118650000D03*
%TD*%
D15*
%TO.P,RB2,1*%
%TO.N,GND*%
X121599080Y-88750000D03*
%TO.P,RB2,2*%
%TO.N,/power/FB2*%
X121599080Y-90400000D03*
%TD*%
D17*
%TO.P,C23,1*%
%TO.N,/power/P2V5*%
X115799080Y-94900000D03*
%TO.P,C23,2*%
%TO.N,GND*%
X115799080Y-96800000D03*
%TD*%
D49*
%TO.P,C48,1*%
%TO.N,+3V3*%
X55500000Y-100500000D03*
%TO.P,C48,2*%
%TO.N,GND*%
X53950000Y-100500000D03*
%TD*%
D17*
%TO.P,C11,1*%
%TO.N,/power/P2V5*%
X121199080Y-95100000D03*
%TO.P,C11,2*%
%TO.N,GND*%
X121199080Y-97000000D03*
%TD*%
D50*
%TO.N,+3V3*%
X85869360Y-95235770D03*
%TO.N,I{slash}O_PIN_10*%
X106264604Y-92418733D03*
%TO.N,I{slash}O_PIN_9*%
X107322632Y-92551458D03*
%TO.N,I{slash}O_PIN_12*%
X102958526Y-92073385D03*
%TO.N,I{slash}O_PIN_11*%
X103429159Y-92316266D03*
%TO.N,I{slash}O_PIN_8*%
X104772028Y-94000078D03*
%TO.N,I{slash}O_PIN_7*%
X104776522Y-94601892D03*
%TO.N,I{slash}O_PIN_6*%
X104341776Y-95001073D03*
%TO.N,I{slash}O_PIN_5*%
X103856803Y-95396357D03*
%TO.N,I{slash}O_PIN_4*%
X103334501Y-95844249D03*
%TO.N,I{slash}O_PIN_3*%
X102908836Y-96235263D03*
%TO.N,I{slash}O_PIN_2*%
X102424245Y-96636963D03*
%TO.N,I{slash}O_PIN_1*%
X102000000Y-97000000D03*
%TO.N,+5V*%
X119000000Y-113500000D03*
X128399080Y-94000000D03*
X119000000Y-77500000D03*
X126199080Y-81800000D03*
X122749080Y-102700000D03*
X125599080Y-89800000D03*
X117293021Y-93477912D03*
X52500000Y-97500000D03*
X117110888Y-104223717D03*
X125599080Y-88200000D03*
X61000000Y-86000000D03*
%TO.N,GND*%
X83600000Y-102300000D03*
X116249080Y-107700000D03*
X85800000Y-124000000D03*
X87505014Y-102399221D03*
X86691757Y-99992581D03*
X92276615Y-96007808D03*
X83600000Y-91300000D03*
X118399080Y-98200000D03*
X91600000Y-90300000D03*
X64600000Y-124000000D03*
X91497687Y-100098335D03*
X95584444Y-94484034D03*
X82217437Y-82217437D03*
X92260324Y-98456174D03*
X89907650Y-97592692D03*
X61000000Y-101500000D03*
X86624708Y-95994563D03*
X129399080Y-102600000D03*
X90693505Y-102407395D03*
X96285008Y-103186510D03*
X113500000Y-76000000D03*
X88303495Y-97580983D03*
X82168755Y-83800000D03*
X89100000Y-95300000D03*
X96210616Y-100710277D03*
X96061093Y-79727816D03*
X127842519Y-88225629D03*
X89105573Y-97580983D03*
X106800000Y-123800000D03*
X96000000Y-107000000D03*
X115500000Y-121000000D03*
X86600000Y-90300000D03*
X82600000Y-95300000D03*
X123199080Y-92800000D03*
X95585092Y-90483333D03*
X81946128Y-97646128D03*
X82000000Y-77500000D03*
X96000000Y-75000000D03*
X80500000Y-120000000D03*
X85888588Y-103202134D03*
X84500000Y-61000000D03*
X89096533Y-93648824D03*
X95600000Y-118600000D03*
X83500000Y-100000000D03*
X117599080Y-87600000D03*
X76400000Y-122800000D03*
X59000000Y-94500000D03*
X83600000Y-94300000D03*
X91496033Y-102397487D03*
X86702219Y-93576870D03*
X91469233Y-93601654D03*
%TO.N,+3V3*%
X92297230Y-95162328D03*
X104500000Y-91500000D03*
X78800000Y-101200000D03*
X88000000Y-115000000D03*
X52000000Y-93500000D03*
X94800000Y-84493620D03*
X109999080Y-88600000D03*
X70000000Y-115000000D03*
X119400000Y-115600000D03*
X85869360Y-97589168D03*
X82689278Y-100851900D03*
X64905000Y-106405000D03*
X81500000Y-88500000D03*
X88305876Y-92866896D03*
X82104580Y-75000000D03*
X93000000Y-61000000D03*
X88000000Y-100000000D03*
X100400000Y-124000000D03*
X56500000Y-100500000D03*
X95813086Y-73400000D03*
X95809782Y-77400000D03*
X95813996Y-82197060D03*
X82110949Y-79800000D03*
X59600000Y-120200000D03*
X78500000Y-88000000D03*
X89895430Y-92873242D03*
X78800000Y-115400000D03*
X79600000Y-120600000D03*
X62500000Y-92500000D03*
X82693640Y-101576098D03*
X92303474Y-97566478D03*
X113000000Y-120000000D03*
%TO.N,+1V1*%
X87428210Y-98494137D03*
X89944666Y-99144666D03*
X92000000Y-100500000D03*
X90713243Y-95155832D03*
X90766514Y-98482299D03*
X110249080Y-101700000D03*
X87000000Y-100520581D03*
X87440048Y-95138076D03*
%TO.N,+2V5*%
X92945220Y-100068273D03*
X85350000Y-100050000D03*
X85121803Y-92821803D03*
X93006669Y-92902106D03*
X109701470Y-93200000D03*
%TO.N,CARD5V*%
X86990597Y-121026187D03*
X58000000Y-126500000D03*
X99000000Y-127000000D03*
X68000000Y-125044617D03*
X111800000Y-125200000D03*
X78500000Y-127000000D03*
X115800000Y-126800000D03*
X89000000Y-125000000D03*
%TO.N,D2_5V*%
X70800000Y-124600000D03*
%TO.N,D0_5V*%
X70000000Y-122800000D03*
%TO.N,~{INH}_5V*%
X91800000Y-127800000D03*
%TO.N,7M_5V*%
X89000000Y-127400000D03*
%TO.N,~{RES}_5V*%
X102648396Y-125500000D03*
%TO.N,D1_5V*%
X70800000Y-123400000D03*
%TO.N,Q3_5V*%
X89000000Y-126200000D03*
%TO.N,~{NMI}_5V*%
X104600000Y-128600000D03*
%TO.N,D7_5V*%
X74200000Y-127400000D03*
%TO.N,DMA_IN_5V*%
X105800000Y-125200000D03*
%TO.N,INT_IN_5V*%
X105800000Y-128600000D03*
%TO.N,PHI0_5V*%
X92667771Y-122613449D03*
%TO.N,PHI1_5V*%
X93200000Y-123800000D03*
%TO.N,~{DEVICE_SELECT}_5V*%
X81200000Y-125800000D03*
%TO.N,D5_5V*%
X71800000Y-127000000D03*
%TO.N,D6_5V*%
X72800000Y-127400000D03*
%TO.N,D4_5V*%
X67400000Y-126800000D03*
%TO.N,USER1_5V*%
X112200000Y-121600000D03*
%TO.N,D3_5V*%
X70800000Y-125600000D03*
%TO.N,/flash/FLASH_nWP*%
X64000000Y-109500000D03*
X82622054Y-104724587D03*
%TO.N,/flash/FLASH_nHOLD*%
X81844171Y-103944171D03*
X63500000Y-106000000D03*
%TO.N,/flash/FLASH_MOSI*%
X82651444Y-103943198D03*
X64000000Y-108500000D03*
%TO.N,/flash/FLASH_MISO*%
X63635000Y-99865000D03*
X81920694Y-102420694D03*
%TO.N,/flash/FLASH_SCK*%
X82746161Y-102353839D03*
X64000000Y-107500000D03*
%TO.N,/flash/FLASH_nCS*%
X81912060Y-100787940D03*
X64905000Y-99636938D03*
%TO.N,/flash/FPGA_PROGRAMN*%
X83500000Y-104000000D03*
%TO.N,/flash/FPGA_DONE*%
X83500000Y-104800000D03*
%TO.N,/flash/FPGA_INITN*%
X83428247Y-103124177D03*
%TO.N,USB_FTDI_D-*%
X59500000Y-90500000D03*
X55295483Y-90341836D03*
%TO.N,USB_FTDI_D+*%
X55500000Y-91479437D03*
X56500000Y-93000000D03*
%TO.N,7M_3V3*%
X98500000Y-104500000D03*
X94797358Y-100897358D03*
%TO.N,SDRAM_D0*%
X96500000Y-83500000D03*
X85865699Y-91165699D03*
%TO.N,SDRAM_D13*%
X85106287Y-90389280D03*
X82316198Y-80600000D03*
%TO.N,Q3_3V3*%
X98500000Y-105500000D03*
X95500000Y-102400000D03*
%TO.N,JTAG_TDO*%
X56500000Y-94000000D03*
X84229955Y-103125404D03*
%TO.N,SDRAM_D15*%
X82144493Y-83000000D03*
X87521009Y-90419267D03*
%TO.N,JTAG_TDI*%
X58937500Y-97562500D03*
X84327261Y-100026579D03*
%TO.N,~{INH}_3V3*%
X94700000Y-100000000D03*
X98494014Y-103744014D03*
%TO.N,JTAG_TCK*%
X59937500Y-96562500D03*
X84307190Y-100803406D03*
%TO.N,SDRAM_D1*%
X85045058Y-91249071D03*
X97000000Y-81500000D03*
%TO.N,SDRAM_D14*%
X82146693Y-81378285D03*
X85915021Y-90418040D03*
%TO.N,JTAG_TMS*%
X85005208Y-102310111D03*
X59040042Y-96062500D03*
%TO.N,~{I{slash}O_STROBE}_3V3*%
X103950368Y-119417529D03*
X102000000Y-120000000D03*
%TO.N,A9_3V3*%
X91000000Y-106000000D03*
X93861449Y-98441250D03*
%TO.N,A14_3V3*%
X95500000Y-100000000D03*
X98500000Y-103000000D03*
%TO.N,A10_3V3*%
X93885949Y-99214051D03*
X92000000Y-106000000D03*
%TO.N,A11_3V3*%
X93000000Y-106000000D03*
X94698036Y-99214662D03*
%TO.N,A8_3V3*%
X93930385Y-97630385D03*
X90000000Y-106000000D03*
%TD*%
D51*
%TO.N,+3V3*%
X85869360Y-95235770D02*
X85869360Y-95230640D01*
D52*
X85869360Y-95230640D02*
X86300000Y-94800000D01*
X85500000Y-95600000D02*
X85500000Y-94800000D01*
D51*
%TO.N,I{slash}O_PIN_10*%
X105994198Y-92689139D02*
X106264604Y-92418733D01*
X103925386Y-92689139D02*
X105994198Y-92689139D01*
%TO.N,I{slash}O_PIN_9*%
X106711105Y-93162985D02*
X107322632Y-92551458D01*
X106583078Y-93162985D02*
X106711105Y-93162985D01*
X104352673Y-93162985D02*
X106583078Y-93162985D01*
X103918158Y-93597500D02*
X104352673Y-93162985D01*
X103862623Y-93597500D02*
X103918158Y-93597500D01*
%TO.N,I{slash}O_PIN_12*%
X102633241Y-92398670D02*
X102958526Y-92073385D01*
X102473139Y-92398670D02*
X102633241Y-92398670D01*
X100600000Y-92400000D02*
X100601330Y-92398670D01*
X100601330Y-92398670D02*
X102473139Y-92398670D01*
%TO.N,I{slash}O_PIN_11*%
X102942627Y-92802798D02*
X103429159Y-92316266D01*
X102706516Y-92802798D02*
X102942627Y-92802798D01*
X101197298Y-92802798D02*
X102706516Y-92802798D01*
X101197250Y-92802750D02*
X101197298Y-92802798D01*
%TO.N,I{slash}O_PIN_10*%
X103414360Y-93200165D02*
X103925386Y-92689139D01*
X103200142Y-93200165D02*
X103414360Y-93200165D01*
X101638304Y-93200000D02*
X101638469Y-93200165D01*
X101638469Y-93200165D02*
X103200142Y-93200165D01*
%TO.N,I{slash}O_PIN_9*%
X101902500Y-93597500D02*
X103862623Y-93597500D01*
%TO.N,I{slash}O_PIN_8*%
X104771950Y-94000000D02*
X104772028Y-94000078D01*
X102000000Y-94000000D02*
X104771950Y-94000000D01*
%TO.N,I{slash}O_PIN_7*%
X104567922Y-94397500D02*
X104776522Y-94606100D01*
X96297500Y-94397500D02*
X104567922Y-94397500D01*
%TO.N,I{slash}O_PIN_6*%
X104140703Y-94800000D02*
X104341776Y-95001073D01*
X101800000Y-94800000D02*
X104140703Y-94800000D01*
%TO.N,I{slash}O_PIN_5*%
X103657946Y-95197500D02*
X103856803Y-95396357D01*
X101697500Y-95197500D02*
X103657946Y-95197500D01*
%TO.N,I{slash}O_PIN_4*%
X103090252Y-95600000D02*
X103334501Y-95844249D01*
X101400000Y-95600000D02*
X103090252Y-95600000D01*
%TO.N,I{slash}O_PIN_3*%
X102673573Y-96000000D02*
X102908836Y-96235263D01*
X101654932Y-96000000D02*
X102673573Y-96000000D01*
%TO.N,I{slash}O_PIN_2*%
X102187282Y-96400000D02*
X102424245Y-96636963D01*
X96700000Y-96400000D02*
X102187282Y-96400000D01*
%TO.N,I{slash}O_PIN_1*%
X101797500Y-96797500D02*
X102000000Y-97000000D01*
X96297500Y-96797500D02*
X101797500Y-96797500D01*
%TO.N,I{slash}O_PIN_12*%
X96700000Y-92400000D02*
X100600000Y-92400000D01*
%TO.N,I{slash}O_PIN_11*%
X96302750Y-92802750D02*
X101197250Y-92802750D01*
X95900000Y-92400000D02*
X96302750Y-92802750D01*
D53*
%TO.N,I{slash}O_PIN_9*%
X96297500Y-93597500D02*
X101902500Y-93597500D01*
X95900000Y-93200000D02*
X96297500Y-93597500D01*
%TO.N,I{slash}O_PIN_8*%
X96700000Y-94000000D02*
X102000000Y-94000000D01*
%TO.N,I{slash}O_PIN_7*%
X95900000Y-94000000D02*
X96297500Y-94397500D01*
%TO.N,I{slash}O_PIN_6*%
X96700000Y-94800000D02*
X101800000Y-94800000D01*
%TO.N,I{slash}O_PIN_5*%
X95502500Y-95197500D02*
X101697500Y-95197500D01*
X95100000Y-95600000D02*
X95502500Y-95197500D01*
%TO.N,I{slash}O_PIN_4*%
X96700000Y-95600000D02*
X101400000Y-95600000D01*
%TO.N,I{slash}O_PIN_3*%
X96300000Y-96000000D02*
X101654932Y-96000000D01*
X95900000Y-95600000D02*
X96300000Y-96000000D01*
%TO.N,I{slash}O_PIN_1*%
X95900000Y-96400000D02*
X96297500Y-96797500D01*
D54*
%TO.N,+5V*%
X123699080Y-102750000D02*
X122799080Y-102750000D01*
D55*
X52500000Y-97196702D02*
X52500000Y-97500000D01*
D56*
X66175000Y-72900000D02*
X66175000Y-80825000D01*
D55*
X53134202Y-96562500D02*
X52500000Y-97196702D01*
D54*
X124199080Y-90000000D02*
X125399080Y-90000000D01*
D55*
X122800000Y-126800000D02*
X121800000Y-126800000D01*
D52*
X125299080Y-85200000D02*
X125299080Y-84500000D01*
D55*
X124699080Y-86800000D02*
X124699080Y-87300000D01*
D54*
X121518596Y-102700000D02*
X122749080Y-102700000D01*
X126999080Y-82600000D02*
X126199080Y-81800000D01*
X122000000Y-113500000D02*
X123300000Y-113500000D01*
X123800000Y-114000000D02*
X126500000Y-114000000D01*
X124699080Y-87300000D02*
X125599080Y-88200000D01*
X117110888Y-104223717D02*
X117138171Y-104251000D01*
X117138171Y-104251000D02*
X119967596Y-104251000D01*
X127999080Y-112499080D02*
X127999080Y-111500000D01*
X124699080Y-86800000D02*
X124699080Y-85800000D01*
X125399080Y-90000000D02*
X125599080Y-89800000D01*
X128000000Y-112500000D02*
X127999080Y-112499080D01*
X123800000Y-114000000D02*
X123800000Y-125800000D01*
D55*
X125799080Y-90000000D02*
X125599080Y-89800000D01*
D54*
X127999080Y-105400000D02*
X127049080Y-105400000D01*
X122000000Y-113500000D02*
X119000000Y-113500000D01*
X123300000Y-113500000D02*
X123800000Y-114000000D01*
X123800000Y-125800000D02*
X122800000Y-126800000D01*
X127999080Y-111500000D02*
X127999080Y-105400000D01*
D52*
X125299080Y-84500000D02*
X127199080Y-82600000D01*
D55*
X127199080Y-82600000D02*
X126999080Y-82600000D01*
D54*
X128399080Y-92900000D02*
X128399080Y-94000000D01*
D55*
X53562500Y-96562500D02*
X53134202Y-96562500D01*
D56*
X66175000Y-80825000D02*
X61000000Y-86000000D01*
D54*
X126500000Y-114000000D02*
X128000000Y-112500000D01*
X119967596Y-104251000D02*
X121518596Y-102700000D01*
D55*
X122799080Y-102750000D02*
X122749080Y-102700000D01*
D54*
X125799080Y-91000000D02*
X125799080Y-90000000D01*
X127049080Y-105400000D02*
X126299080Y-104650000D01*
X124699080Y-85800000D02*
X125299080Y-85200000D01*
%TO.N,GND*%
X111499080Y-107700000D02*
X116249080Y-107700000D01*
D55*
X89500000Y-96400000D02*
X88700000Y-97200000D01*
X89119017Y-97580983D02*
X89500000Y-97200000D01*
X95900000Y-103600000D02*
X95900000Y-103571518D01*
D52*
X95850000Y-118350000D02*
X95850000Y-116043000D01*
D55*
X94800000Y-75000000D02*
X96000000Y-75000000D01*
X89907650Y-97592692D02*
X89892595Y-97577637D01*
D54*
X82339000Y-72882079D02*
X82339000Y-63517921D01*
D55*
X92700000Y-103600000D02*
X92700000Y-102800000D01*
D52*
X66242500Y-126603500D02*
X66242500Y-124242500D01*
D55*
X89105573Y-97580983D02*
X89895941Y-97580983D01*
D54*
X113199080Y-89400000D02*
X114999080Y-87600000D01*
D55*
X91900000Y-98000000D02*
X91900000Y-98800000D01*
X93500000Y-103600000D02*
X93500000Y-102800000D01*
X87900000Y-94000000D02*
X87100000Y-93200000D01*
X83600000Y-94300000D02*
X83900000Y-94000000D01*
X94300000Y-94000000D02*
X94300000Y-93937409D01*
X95585092Y-90483333D02*
X95585092Y-90485092D01*
D52*
X113299080Y-78600000D02*
X113399080Y-78500000D01*
X109999080Y-78600000D02*
X113299080Y-78600000D01*
D55*
X88296239Y-95992595D02*
X89892595Y-95992595D01*
X87505014Y-102394986D02*
X87900000Y-102000000D01*
X92999000Y-98501000D02*
X92700000Y-98800000D01*
X88800000Y-95600000D02*
X89100000Y-95300000D01*
X88700000Y-95600000D02*
X88800000Y-95600000D01*
X89892595Y-95992595D02*
X89907405Y-95992595D01*
X87100000Y-94000000D02*
X87900000Y-94000000D01*
D52*
X69371700Y-118650000D02*
X75086700Y-118650000D01*
X113399080Y-76100920D02*
X113500000Y-76000000D01*
D55*
X91900000Y-102000000D02*
X91100000Y-102000000D01*
D52*
X60174000Y-93826000D02*
X60174000Y-91826000D01*
X86175000Y-124375000D02*
X85800000Y-124000000D01*
X86624708Y-95924708D02*
X86300000Y-95600000D01*
D55*
X94300000Y-94000000D02*
X94305713Y-94000000D01*
X85500000Y-102800000D02*
X85500000Y-102813546D01*
X86702219Y-93576870D02*
X86702219Y-93602219D01*
X92276615Y-96023385D02*
X91900000Y-96400000D01*
X89895941Y-97580983D02*
X89907650Y-97592692D01*
D52*
X77200000Y-122800000D02*
X77400000Y-123000000D01*
X107100000Y-126200000D02*
X112400000Y-126200000D01*
D55*
X52700000Y-71100000D02*
X52000000Y-70400000D01*
D52*
X86300000Y-96319271D02*
X86624708Y-95994563D01*
X82300000Y-98000000D02*
X81946128Y-97646128D01*
D55*
X87100000Y-102000000D02*
X87100000Y-102800000D01*
X87505014Y-102399221D02*
X87505014Y-102394986D01*
D52*
X55500000Y-97062500D02*
X58437500Y-100000000D01*
X54550000Y-77300000D02*
X52700000Y-77300000D01*
X77400000Y-123000000D02*
X77400000Y-123650000D01*
D55*
X91501654Y-93601654D02*
X91900000Y-94000000D01*
X94800000Y-79800000D02*
X95988909Y-79800000D01*
X85500000Y-94000000D02*
X86300000Y-93200000D01*
X92668807Y-96400000D02*
X92276615Y-96007808D01*
D52*
X97050000Y-121250000D02*
X95850000Y-121250000D01*
X53950000Y-98612500D02*
X55500000Y-97062500D01*
X64600000Y-124000000D02*
X65400000Y-124000000D01*
D54*
X127999080Y-103500000D02*
X126499080Y-103500000D01*
D55*
X91498346Y-93601654D02*
X91900000Y-93200000D01*
D52*
X82217437Y-82217437D02*
X83322563Y-82217437D01*
D55*
X87900000Y-96400000D02*
X88700000Y-96400000D01*
D52*
X76107500Y-121353500D02*
X76400000Y-121353500D01*
D55*
X90600000Y-100300000D02*
X89600000Y-100300000D01*
X91100000Y-102800000D02*
X90300000Y-102800000D01*
D52*
X60527500Y-122244200D02*
X62283300Y-124000000D01*
D54*
X119999080Y-98450000D02*
X119999080Y-98200000D01*
D52*
X52000000Y-69500000D02*
X53750000Y-67750000D01*
D55*
X124199080Y-91900000D02*
X124099080Y-91900000D01*
X91469233Y-93601654D02*
X91498346Y-93601654D01*
X95988909Y-79800000D02*
X96061093Y-79727816D01*
X86300000Y-98000000D02*
X86300000Y-98800000D01*
X85888588Y-103202134D02*
X85902134Y-103202134D01*
X82300000Y-95600000D02*
X82600000Y-95300000D01*
D52*
X119242500Y-118921200D02*
X117163700Y-121000000D01*
D55*
X91100000Y-102800000D02*
X91086110Y-102800000D01*
D52*
X91844300Y-118600000D02*
X95600000Y-118600000D01*
X83340000Y-83800000D02*
X82168755Y-83800000D01*
D55*
X86300000Y-103600000D02*
X87100000Y-102800000D01*
D52*
X60174000Y-91826000D02*
X62725000Y-89275000D01*
D55*
X89105573Y-97580983D02*
X89119017Y-97580983D01*
X85897866Y-103202134D02*
X86300000Y-102800000D01*
X90300000Y-99600000D02*
X90300000Y-100000000D01*
D54*
X121599080Y-88750000D02*
X120449080Y-87600000D01*
D55*
X93902500Y-93602500D02*
X94300000Y-94000000D01*
X86300000Y-96400000D02*
X86300000Y-96319271D01*
D52*
X98200000Y-122400000D02*
X97050000Y-121250000D01*
X88100000Y-61000000D02*
X84500000Y-61000000D01*
D55*
X89907405Y-95992595D02*
X90300000Y-95600000D01*
X108775000Y-120225000D02*
X110400000Y-120225000D01*
D52*
X102544300Y-123800000D02*
X106800000Y-123800000D01*
X112892500Y-125707500D02*
X112892500Y-123353500D01*
X61095000Y-98198000D02*
X61095000Y-100000000D01*
D55*
X89500000Y-95600000D02*
X89892595Y-95992595D01*
X87100000Y-102800000D02*
X86300000Y-102800000D01*
X90300000Y-97200000D02*
X90300000Y-97200342D01*
D54*
X82856921Y-63000000D02*
X83340000Y-63000000D01*
D52*
X90135000Y-116043000D02*
X90135000Y-116890700D01*
D55*
X88303495Y-97580983D02*
X89105573Y-97580983D01*
D52*
X95215000Y-121250000D02*
X95850000Y-121250000D01*
X58437500Y-100000000D02*
X61095000Y-100000000D01*
X101385000Y-121793000D02*
X101385000Y-122640700D01*
D54*
X83340000Y-73400000D02*
X82856921Y-73400000D01*
D52*
X107207000Y-121793000D02*
X108775000Y-120225000D01*
D55*
X60950000Y-101450000D02*
X61000000Y-101500000D01*
X87900000Y-102000000D02*
X87100000Y-102000000D01*
X92700000Y-96400000D02*
X92668807Y-96400000D01*
D52*
X85540000Y-126957000D02*
X86175000Y-126957000D01*
D55*
X95584444Y-94484444D02*
X95900000Y-94800000D01*
D52*
X82168755Y-83800000D02*
X82153445Y-83815310D01*
D55*
X89500342Y-98000000D02*
X89907650Y-97592692D01*
X92700000Y-94000000D02*
X93097500Y-93602500D01*
D52*
X53750000Y-120750000D02*
X56761063Y-123761063D01*
D55*
X83900000Y-100400000D02*
X83500000Y-100000000D01*
X89500000Y-99600000D02*
X90300000Y-99600000D01*
D52*
X62725000Y-89275000D02*
X66500000Y-89275000D01*
X66875000Y-89275000D02*
X68600000Y-91000000D01*
D54*
X111249080Y-107450000D02*
X111499080Y-107700000D01*
D55*
X91502513Y-102397487D02*
X91900000Y-102000000D01*
D54*
X124099080Y-91900000D02*
X123199080Y-92800000D01*
D55*
X52700000Y-77300000D02*
X52000000Y-78000000D01*
X92276615Y-96007808D02*
X92276615Y-96023385D01*
D54*
X115749080Y-99700000D02*
X117199080Y-98250000D01*
D55*
X88700000Y-96400000D02*
X89500000Y-96400000D01*
X84700000Y-102800000D02*
X85500000Y-102800000D01*
X83600000Y-91300000D02*
X83900000Y-91600000D01*
D54*
X118499080Y-99750000D02*
X118499080Y-98300000D01*
D55*
X89096533Y-93648824D02*
X89148824Y-93648824D01*
X87900000Y-97984478D02*
X88303495Y-97580983D01*
X88294417Y-95994417D02*
X88305583Y-95994417D01*
X86702219Y-93576870D02*
X86723130Y-93576870D01*
D52*
X98200000Y-123650000D02*
X98200000Y-122400000D01*
D55*
X88700000Y-96400000D02*
X89500000Y-97200000D01*
D54*
X118599080Y-86600000D02*
X117599080Y-87600000D01*
D52*
X86175000Y-126957000D02*
X86175000Y-124375000D01*
D54*
X118599080Y-96900000D02*
X118599080Y-98000000D01*
D52*
X90135000Y-116890700D02*
X91844300Y-118600000D01*
X112400000Y-126200000D02*
X112892500Y-125707500D01*
D55*
X83900000Y-100400000D02*
X83900000Y-100399532D01*
X87100000Y-102800000D02*
X87900000Y-102800000D01*
D52*
X76742500Y-116994200D02*
X76742500Y-116146500D01*
D54*
X126249080Y-85200000D02*
X126249080Y-86450000D01*
X82000000Y-77500000D02*
X83240000Y-77500000D01*
D55*
X83600000Y-102300000D02*
X83900000Y-102000000D01*
X85500000Y-98800000D02*
X86300000Y-98800000D01*
D54*
X83240000Y-77500000D02*
X83340000Y-77400000D01*
D55*
X91900000Y-98000000D02*
X91900000Y-98095850D01*
X86300000Y-98800000D02*
X86300000Y-99600000D01*
X90693505Y-102407395D02*
X90693505Y-102406495D01*
X87900000Y-97200000D02*
X87922512Y-97200000D01*
X90600000Y-100300000D02*
X91296022Y-100300000D01*
D52*
X66242500Y-123157500D02*
X66242500Y-121396500D01*
D55*
X90300000Y-100000000D02*
X90600000Y-100300000D01*
X117199080Y-87600000D02*
X117599080Y-87600000D01*
D54*
X125799080Y-91950000D02*
X124249080Y-91950000D01*
D55*
X88745357Y-94000000D02*
X89096533Y-93648824D01*
X126249080Y-86450000D02*
X126599080Y-86800000D01*
X88700000Y-102000000D02*
X87900000Y-102000000D01*
D52*
X86175000Y-118675000D02*
X87000000Y-117850000D01*
X118607500Y-123353500D02*
X119242500Y-123353500D01*
X119242500Y-118146500D02*
X119242500Y-118921200D01*
D55*
X91900000Y-94000000D02*
X92700000Y-94000000D01*
D52*
X95850000Y-118850000D02*
X95600000Y-118600000D01*
D55*
X91469233Y-93601654D02*
X91501654Y-93601654D01*
X88700000Y-98000000D02*
X88700000Y-97977488D01*
D52*
X66500000Y-89275000D02*
X66875000Y-89275000D01*
D55*
X90300000Y-96400000D02*
X89500000Y-96400000D01*
D54*
X82856921Y-73400000D02*
X82339000Y-72882079D01*
D52*
X54550000Y-71100000D02*
X52700000Y-71100000D01*
D55*
X54675000Y-77175000D02*
X54550000Y-77300000D01*
X95900000Y-103571518D02*
X96285008Y-103186510D01*
X85500000Y-103600000D02*
X85500000Y-103590722D01*
X85888588Y-103202134D02*
X85897866Y-103202134D01*
D52*
X107100000Y-127000000D02*
X107100000Y-126200000D01*
D55*
X91100000Y-99600000D02*
X91900000Y-99600000D01*
D52*
X95850000Y-121250000D02*
X95850000Y-118850000D01*
D55*
X95900000Y-102800000D02*
X95900000Y-102801502D01*
X88303495Y-96003495D02*
X87900000Y-95600000D01*
X90300000Y-97200342D02*
X89907650Y-97592692D01*
X83900000Y-100400000D02*
X83900000Y-100395614D01*
X86325349Y-93200000D02*
X86702219Y-93576870D01*
D54*
X118599080Y-86050000D02*
X118599080Y-86600000D01*
D55*
X88700000Y-97977488D02*
X88303495Y-97580983D01*
D52*
X107100000Y-123500000D02*
X106800000Y-123800000D01*
X127225629Y-88225629D02*
X126599080Y-87599080D01*
X66242500Y-121396500D02*
X66242500Y-120407500D01*
D55*
X87900000Y-94000000D02*
X88700000Y-94000000D01*
D52*
X95600000Y-118600000D02*
X95850000Y-118350000D01*
D55*
X92700000Y-98800000D02*
X91900000Y-98800000D01*
D52*
X84500000Y-61000000D02*
X83340000Y-62160000D01*
X118607500Y-123353500D02*
X118607500Y-122443800D01*
D55*
X91100000Y-99600000D02*
X91100000Y-99700648D01*
D52*
X66242500Y-124242500D02*
X66000000Y-124000000D01*
D55*
X86300000Y-99600824D02*
X86691757Y-99992581D01*
X84700000Y-102800000D02*
X83900000Y-102000000D01*
X91100000Y-93200000D02*
X91100000Y-93232421D01*
D54*
X121249080Y-99700000D02*
X119999080Y-98450000D01*
D55*
X91900000Y-98095850D02*
X92260324Y-98456174D01*
X92260324Y-98456174D02*
X92305150Y-98501000D01*
D52*
X61095000Y-100000000D02*
X61095000Y-101405000D01*
X116799080Y-78650000D02*
X113549080Y-78650000D01*
D55*
X89400000Y-95600000D02*
X89100000Y-95300000D01*
D54*
X115799080Y-96800000D02*
X117199080Y-98200000D01*
D55*
X91898546Y-102800000D02*
X91496033Y-102397487D01*
D54*
X119999080Y-98200000D02*
X118399080Y-98200000D01*
D52*
X52000000Y-78000000D02*
X52000000Y-70400000D01*
D55*
X86300000Y-93200000D02*
X86325349Y-93200000D01*
D52*
X117163700Y-121000000D02*
X115500000Y-121000000D01*
D55*
X91100000Y-94000000D02*
X91100000Y-93970887D01*
D52*
X69371700Y-118650000D02*
X71027500Y-116994200D01*
D55*
X91900000Y-102800000D02*
X91900000Y-102000000D01*
D52*
X59500000Y-101450000D02*
X60950000Y-101450000D01*
D55*
X92700000Y-102800000D02*
X91900000Y-102800000D01*
X86600000Y-90300000D02*
X86300000Y-90000000D01*
X91100000Y-102000000D02*
X90300000Y-102000000D01*
X87100000Y-94000000D02*
X87100000Y-93974552D01*
X83322563Y-82217437D02*
X83340000Y-82200000D01*
D52*
X66242500Y-120407500D02*
X68000000Y-118650000D01*
D53*
X93097500Y-93602500D02*
X93902500Y-93602500D01*
D52*
X57437500Y-97062500D02*
X55500000Y-97062500D01*
X107100000Y-124100000D02*
X106800000Y-123800000D01*
D55*
X86624708Y-95994563D02*
X86624708Y-95924708D01*
X127999080Y-103500000D02*
X128499080Y-103500000D01*
X90300000Y-99600000D02*
X91100000Y-99600000D01*
D52*
X62283300Y-124000000D02*
X64600000Y-124000000D01*
D55*
X85902134Y-103202134D02*
X86300000Y-103600000D01*
X83500000Y-100000000D02*
X83478122Y-99978122D01*
D54*
X116249080Y-107700000D02*
X120499080Y-107700000D01*
D52*
X83340000Y-62160000D02*
X83340000Y-63000000D01*
D54*
X120999080Y-107200000D02*
X120999080Y-106200000D01*
D55*
X91100000Y-93232421D02*
X91469233Y-93601654D01*
D52*
X60527500Y-121396500D02*
X60527500Y-122244200D01*
D55*
X86300000Y-102000000D02*
X87100000Y-102000000D01*
X88303495Y-97580983D02*
X88303495Y-96003495D01*
X86300000Y-99600000D02*
X86300000Y-99600824D01*
D54*
X111249080Y-105350000D02*
X111249080Y-107450000D01*
D55*
X85500000Y-94000000D02*
X86300000Y-94000000D01*
X91900000Y-102800000D02*
X91898546Y-102800000D01*
D54*
X117199080Y-98200000D02*
X118399080Y-98200000D01*
D55*
X88700000Y-94000000D02*
X89500000Y-94000000D01*
D52*
X76400000Y-122800000D02*
X76400000Y-121353500D01*
D55*
X84700000Y-102800000D02*
X85500000Y-103600000D01*
X89892595Y-97577637D02*
X89892595Y-95992595D01*
X107100000Y-121793000D02*
X107207000Y-121793000D01*
X86723130Y-93576870D02*
X87100000Y-93200000D01*
D52*
X53750000Y-67750000D02*
X53750000Y-53750000D01*
X59500000Y-94500000D02*
X60174000Y-93826000D01*
D55*
X91296022Y-100300000D02*
X91497687Y-100098335D01*
X90693505Y-102406495D02*
X91100000Y-102000000D01*
D52*
X71027500Y-116994200D02*
X71027500Y-116146500D01*
D55*
X87104235Y-102800000D02*
X87505014Y-102399221D01*
X118599080Y-98000000D02*
X118399080Y-98200000D01*
X87900000Y-98000000D02*
X87900000Y-97984478D01*
D52*
X65400000Y-124000000D02*
X66000000Y-124000000D01*
D55*
X87100000Y-99600000D02*
X87084338Y-99600000D01*
D54*
X82339000Y-63517921D02*
X82856921Y-63000000D01*
D55*
X117199080Y-98250000D02*
X117199080Y-98200000D01*
X87922512Y-97200000D02*
X88303495Y-97580983D01*
D52*
X53950000Y-100500000D02*
X53950000Y-98612500D01*
D55*
X96671518Y-102800000D02*
X96285008Y-103186510D01*
X96210277Y-100710277D02*
X95900000Y-100400000D01*
D52*
X106465000Y-127000000D02*
X107100000Y-127000000D01*
D55*
X89500000Y-94000000D02*
X90300000Y-94000000D01*
X92276615Y-95976615D02*
X91900000Y-95600000D01*
D54*
X114999080Y-87600000D02*
X117599080Y-87600000D01*
D55*
X96210616Y-100710277D02*
X96210277Y-100710277D01*
X95900000Y-102801502D02*
X96285008Y-103186510D01*
D52*
X76400000Y-121353500D02*
X76742500Y-121353500D01*
X86175000Y-121750000D02*
X86175000Y-118675000D01*
D55*
X88700000Y-94000000D02*
X88745357Y-94000000D01*
D52*
X65400000Y-124000000D02*
X66242500Y-123157500D01*
D55*
X90300000Y-103600000D02*
X90300000Y-102800000D01*
D52*
X87000000Y-117850000D02*
X91094300Y-117850000D01*
D55*
X118499080Y-98300000D02*
X118399080Y-98200000D01*
X93500000Y-102800000D02*
X92700000Y-102800000D01*
X124249080Y-91950000D02*
X124199080Y-91900000D01*
X85500000Y-102813546D02*
X85888588Y-103202134D01*
D52*
X107100000Y-126200000D02*
X107100000Y-124100000D01*
D55*
X87100000Y-102800000D02*
X87104235Y-102800000D01*
D52*
X118607500Y-122443800D02*
X117163700Y-121000000D01*
X113549080Y-78650000D02*
X113399080Y-78500000D01*
D55*
X91086110Y-102800000D02*
X90693505Y-102407395D01*
X91094300Y-117850000D02*
X91844300Y-118600000D01*
D52*
X113527500Y-119027500D02*
X115500000Y-121000000D01*
D55*
X91600000Y-90300000D02*
X91900000Y-90000000D01*
D52*
X113527500Y-118146500D02*
X113527500Y-119027500D01*
D55*
X91497687Y-100002313D02*
X91900000Y-99600000D01*
X126499080Y-103500000D02*
X126299080Y-103700000D01*
X91496033Y-102397487D02*
X91502513Y-102397487D01*
X87084338Y-99600000D02*
X86691757Y-99992581D01*
D52*
X76400000Y-122800000D02*
X77200000Y-122800000D01*
D55*
X89500000Y-99600000D02*
X89500000Y-100200000D01*
X52000000Y-70400000D02*
X52000000Y-69500000D01*
X90300000Y-102000000D02*
X89500000Y-102000000D01*
X87900000Y-102800000D02*
X88700000Y-102000000D01*
X95584444Y-94484034D02*
X95584444Y-94484444D01*
X89500000Y-95600000D02*
X89400000Y-95600000D01*
X61095000Y-101405000D02*
X61000000Y-101500000D01*
X89500000Y-102000000D02*
X88700000Y-102000000D01*
X89148824Y-93648824D02*
X89500000Y-94000000D01*
X90300000Y-97985042D02*
X89907650Y-97592692D01*
D54*
X120449080Y-87600000D02*
X117599080Y-87600000D01*
D52*
X85500000Y-96400000D02*
X86300000Y-96400000D01*
X65607500Y-126603500D02*
X66242500Y-126603500D01*
D55*
X95585092Y-90485092D02*
X95900000Y-90800000D01*
X91100000Y-99700648D02*
X91497687Y-100098335D01*
D52*
X113399080Y-78500000D02*
X113399080Y-76100920D01*
D55*
X86300000Y-94000000D02*
X86300000Y-93979089D01*
X92305150Y-98501000D02*
X92999000Y-98501000D01*
X89500000Y-98000000D02*
X89500342Y-98000000D01*
D54*
X128499080Y-103500000D02*
X129399080Y-102600000D01*
D52*
X127842519Y-88225629D02*
X127225629Y-88225629D01*
X126599080Y-87599080D02*
X126599080Y-86800000D01*
D55*
X88724590Y-97200000D02*
X89105573Y-97580983D01*
X91900000Y-102800000D02*
X91100000Y-102800000D01*
X80460000Y-120040000D02*
X80500000Y-120000000D01*
D53*
X119242500Y-123353500D02*
X119242500Y-123078800D01*
D52*
X56761063Y-123761063D02*
X56761063Y-124188937D01*
D55*
X86300000Y-93200000D02*
X86300000Y-93110427D01*
D52*
X53562500Y-97062500D02*
X55500000Y-97062500D01*
D55*
X96700000Y-102800000D02*
X96671518Y-102800000D01*
X89500000Y-102000000D02*
X90300000Y-102800000D01*
X85500000Y-103590722D02*
X85888588Y-103202134D01*
X90300000Y-94000000D02*
X91100000Y-94000000D01*
D52*
X80460000Y-121750000D02*
X80460000Y-120040000D01*
X101385000Y-122640700D02*
X102544300Y-123800000D01*
D54*
X120499080Y-107700000D02*
X120999080Y-107200000D01*
D55*
X89500000Y-100200000D02*
X89600000Y-100300000D01*
X91900000Y-98800000D02*
X91900000Y-99600000D01*
X91497687Y-100098335D02*
X91497687Y-100002313D01*
D54*
X115199080Y-85600000D02*
X117199080Y-87600000D01*
D55*
X88700000Y-97200000D02*
X88724590Y-97200000D01*
D52*
X54675000Y-75500000D02*
X54675000Y-77175000D01*
D55*
X88294417Y-95994417D02*
X88296239Y-95992595D01*
D52*
X68000000Y-118650000D02*
X69371700Y-118650000D01*
D55*
X87505014Y-102399221D02*
X87505014Y-102405014D01*
X88305583Y-95994417D02*
X88700000Y-95600000D01*
D52*
X75086700Y-118650000D02*
X76742500Y-116994200D01*
D55*
X92276615Y-96007808D02*
X92276615Y-95976615D01*
X87505014Y-102405014D02*
X87900000Y-102800000D01*
D52*
X107100000Y-121793000D02*
X107100000Y-123500000D01*
D55*
X91100000Y-93970887D02*
X91469233Y-93601654D01*
D54*
X121199080Y-97000000D02*
X119999080Y-98200000D01*
D55*
X93500000Y-98000000D02*
X92999000Y-98501000D01*
D52*
X59000000Y-94500000D02*
X59500000Y-94500000D01*
D55*
%TO.N,/power/FB1*%
X118499080Y-105100000D02*
X120449080Y-105100000D01*
X115749080Y-105000000D02*
X118399080Y-105000000D01*
X118399080Y-105000000D02*
X118499080Y-105100000D01*
X123599080Y-104550000D02*
X123699080Y-104650000D01*
X120449080Y-105100000D02*
X120999080Y-104550000D01*
X120999080Y-104550000D02*
X123599080Y-104550000D01*
%TO.N,/power/P1V1*%
X115799080Y-101650000D02*
X115749080Y-101600000D01*
X115749080Y-103450000D02*
X118499080Y-103450000D01*
X122309080Y-101600000D02*
X123709080Y-100200000D01*
X113999080Y-101700000D02*
X115749080Y-103450000D01*
X118549080Y-101650000D02*
X118599080Y-101600000D01*
X118599080Y-101600000D02*
X121249080Y-101600000D01*
X121249080Y-101600000D02*
X122309080Y-101600000D01*
X114099080Y-101600000D02*
X115749080Y-101600000D01*
X118499080Y-101650000D02*
X115799080Y-101650000D01*
X113999080Y-101700000D02*
X114099080Y-101600000D01*
X118499080Y-101650000D02*
X118549080Y-101650000D01*
X113249080Y-101700000D02*
X113999080Y-101700000D01*
%TO.N,/power/FB3*%
X121399080Y-82400000D02*
X121599080Y-82200000D01*
X118999080Y-82400000D02*
X121399080Y-82400000D01*
X124899080Y-82200000D02*
X125299080Y-82600000D01*
X118999080Y-82400000D02*
X118999080Y-82800000D01*
X121599080Y-82200000D02*
X124899080Y-82200000D01*
X118599080Y-83200000D02*
X118599080Y-84400000D01*
X118999080Y-82800000D02*
X118599080Y-83200000D01*
%TO.N,/power/P3V3*%
X116799080Y-80550000D02*
X118699080Y-80550000D01*
X124379080Y-80550000D02*
X125129080Y-79800000D01*
X121299080Y-80850000D02*
X121599080Y-80550000D01*
X121599080Y-80550000D02*
X124379080Y-80550000D01*
X113549080Y-80550000D02*
X113399080Y-80400000D01*
X109999080Y-83632500D02*
X109999080Y-80500000D01*
X118699080Y-80550000D02*
X118999080Y-80850000D01*
X113299080Y-80500000D02*
X113399080Y-80400000D01*
X118999080Y-80850000D02*
X121299080Y-80850000D01*
X109999080Y-80500000D02*
X113299080Y-80500000D01*
X116799080Y-80550000D02*
X113549080Y-80550000D01*
%TO.N,/power/FB2*%
X122749080Y-90400000D02*
X122749080Y-89050000D01*
X121469805Y-90529275D02*
X121599080Y-90400000D01*
X128399080Y-90200000D02*
X128399080Y-91000000D01*
X122749080Y-89050000D02*
X122999080Y-88800000D01*
X121599080Y-90400000D02*
X122749080Y-90400000D01*
X122999080Y-88800000D02*
X126999080Y-88800000D01*
X115799080Y-90650000D02*
X118460057Y-90650000D01*
X118580782Y-90529275D02*
X121469805Y-90529275D01*
X118460057Y-90650000D02*
X118580782Y-90529275D01*
X126999080Y-88800000D02*
X128399080Y-90200000D01*
%TO.N,/power/P2V5*%
X123699080Y-95100000D02*
X123999080Y-95400000D01*
X115799080Y-94900000D02*
X118499080Y-94900000D01*
X116219805Y-92179275D02*
X118580782Y-92179275D01*
X121199080Y-95100000D02*
X123699080Y-95100000D01*
X121099080Y-95000000D02*
X121199080Y-95100000D01*
X114399080Y-95200000D02*
X114699080Y-94900000D01*
X118599080Y-95000000D02*
X121099080Y-95000000D01*
X115799080Y-92200000D02*
X116199080Y-92200000D01*
X118499080Y-94900000D02*
X118599080Y-95000000D01*
X115799080Y-92600000D02*
X115799080Y-92200000D01*
X113199080Y-95200000D02*
X114399080Y-95200000D01*
X113199080Y-95200000D02*
X115799080Y-92600000D01*
X116199080Y-92200000D02*
X116219805Y-92179275D01*
X114699080Y-94900000D02*
X115799080Y-94900000D01*
%TO.N,+3V3*%
X56500000Y-99000000D02*
X56500000Y-100500000D01*
X83100000Y-101200000D02*
X83069738Y-101200000D01*
D52*
X88865000Y-116043000D02*
X88865000Y-115065000D01*
D55*
X87900000Y-99600000D02*
X87900000Y-99900000D01*
D52*
X66500000Y-87725000D02*
X66795000Y-87725000D01*
D55*
X86300000Y-97200000D02*
X86258528Y-97200000D01*
D52*
X82317542Y-101200000D02*
X82693640Y-101576098D01*
X86258528Y-97200000D02*
X85869360Y-97589168D01*
D55*
X94800000Y-83800000D02*
X94800000Y-84493620D01*
D52*
X59892500Y-121396500D02*
X59892500Y-120492500D01*
D55*
X85500000Y-94800000D02*
X85500000Y-94895645D01*
D52*
X59000000Y-103000000D02*
X56500000Y-100500000D01*
X88638980Y-93200000D02*
X88305876Y-92866896D01*
X64000000Y-93850000D02*
X62500000Y-93850000D01*
X70392500Y-115392500D02*
X70000000Y-115000000D01*
X83069738Y-101200000D02*
X82693640Y-101576098D01*
D55*
X92700000Y-98000000D02*
X92700000Y-97200000D01*
D52*
X59892500Y-120492500D02*
X59600000Y-120200000D01*
D55*
X90300000Y-93200000D02*
X90222188Y-93200000D01*
X85500000Y-97200000D02*
X85500000Y-97219808D01*
D52*
X62500000Y-93850000D02*
X61000000Y-93850000D01*
D55*
X88899999Y-93000001D02*
X89300001Y-93000001D01*
D52*
X70392500Y-116146500D02*
X70392500Y-115392500D01*
D55*
X91900000Y-94800000D02*
X92700000Y-94800000D01*
D53*
X109999080Y-85567500D02*
X109567500Y-85567500D01*
D52*
X90000000Y-61000000D02*
X92000000Y-61000000D01*
D55*
X82300000Y-101200000D02*
X82341178Y-101200000D01*
D52*
X92700000Y-95565098D02*
X92297230Y-95162328D01*
D54*
X82104580Y-75000000D02*
X75000000Y-75000000D01*
D52*
X66795000Y-87725000D02*
X68600000Y-85920000D01*
X83037378Y-101200000D02*
X82689278Y-100851900D01*
X85500000Y-97219808D02*
X85869360Y-97589168D01*
X55500000Y-100500000D02*
X56500000Y-100500000D01*
D55*
X91900000Y-94800000D02*
X91934902Y-94800000D01*
X85500000Y-95600000D02*
X85500000Y-95493611D01*
D52*
X94800000Y-73400000D02*
X95813086Y-73400000D01*
D55*
X69000000Y-97350000D02*
X67825000Y-96175000D01*
D52*
X94800000Y-82200000D02*
X95811056Y-82200000D01*
X86300000Y-94800000D02*
X85500000Y-94800000D01*
X100115000Y-123715000D02*
X100400000Y-124000000D01*
X85500000Y-97958528D02*
X85869360Y-97589168D01*
D55*
X91900000Y-97200000D02*
X91936996Y-97200000D01*
D52*
X79825000Y-121750000D02*
X79825000Y-120825000D01*
D54*
X64905000Y-104802000D02*
X64905000Y-106405000D01*
D55*
X67000000Y-100000000D02*
X69000000Y-98000000D01*
X112892500Y-119892500D02*
X113000000Y-120000000D01*
D52*
X93000000Y-61000000D02*
X94000000Y-61000000D01*
D55*
X88700000Y-93200000D02*
X88638980Y-93200000D01*
D52*
X83340000Y-75000000D02*
X82104580Y-75000000D01*
D55*
X82300000Y-102000000D02*
X82300000Y-101969738D01*
D52*
X112257500Y-118146500D02*
X112257500Y-119257500D01*
X79190000Y-121010000D02*
X79600000Y-120600000D01*
X100115000Y-121793000D02*
X100115000Y-123715000D01*
X112892500Y-118146500D02*
X112892500Y-119892500D01*
X73000000Y-85920000D02*
X76420000Y-85920000D01*
X100750000Y-121793000D02*
X100750000Y-123650000D01*
X92700000Y-97963004D02*
X92303474Y-97566478D01*
X87972772Y-93200000D02*
X88305876Y-92866896D01*
D55*
X92700000Y-95600000D02*
X92700000Y-95565098D01*
X92700000Y-95600000D02*
X92700000Y-94800000D01*
X89500000Y-93200000D02*
X89568672Y-93200000D01*
D56*
X109999080Y-85567500D02*
X113266580Y-85567500D01*
D55*
X69000000Y-98000000D02*
X69000000Y-97350000D01*
D51*
X88700000Y-99600000D02*
X87900000Y-99600000D01*
D52*
X90222188Y-93200000D02*
X89895430Y-92873242D01*
X89200000Y-115000000D02*
X88800000Y-115000000D01*
X67000000Y-102500000D02*
X68325000Y-103825000D01*
X83340000Y-79800000D02*
X82110949Y-79800000D01*
X92000000Y-61000000D02*
X93000000Y-61000000D01*
X76420000Y-85920000D02*
X78500000Y-88000000D01*
D54*
X75000000Y-75000000D02*
X73000000Y-77000000D01*
D55*
X87900000Y-93200000D02*
X87972772Y-93200000D01*
X113266580Y-85567500D02*
X113299080Y-85600000D01*
D52*
X82300000Y-101969738D02*
X82693640Y-101576098D01*
X94800000Y-77400000D02*
X95809782Y-77400000D01*
X69757500Y-116146500D02*
X69757500Y-115242500D01*
D55*
X95813086Y-73400000D02*
X95818721Y-73394365D01*
D52*
X62500000Y-93850000D02*
X62500000Y-92500000D01*
D55*
X92700000Y-98000000D02*
X92700000Y-97963004D01*
D52*
X91934902Y-94800000D02*
X92297230Y-95162328D01*
X100750000Y-123650000D02*
X100400000Y-124000000D01*
D55*
X64000000Y-93850000D02*
X66850000Y-93850000D01*
X89300001Y-93000001D02*
X89500000Y-93200000D01*
X83069738Y-101200000D02*
X83037378Y-101200000D01*
X67825000Y-94825000D02*
X67825000Y-96175000D01*
X67000000Y-102500000D02*
X67000000Y-100000000D01*
D52*
X89568672Y-93200000D02*
X89895430Y-92873242D01*
D55*
X85500000Y-98000000D02*
X85500000Y-97958528D01*
D52*
X83900000Y-101200000D02*
X83100000Y-101200000D01*
D55*
X88700000Y-99600000D02*
X88672527Y-99600000D01*
D52*
X69757500Y-115242500D02*
X70000000Y-115000000D01*
X68600000Y-85920000D02*
X73000000Y-85920000D01*
X91936996Y-97200000D02*
X92303474Y-97566478D01*
X59500000Y-103000000D02*
X59000000Y-103000000D01*
X88800000Y-115000000D02*
X88000000Y-115000000D01*
D55*
X88700000Y-93200000D02*
X88899999Y-93000001D01*
D52*
X59257500Y-120542500D02*
X59600000Y-120200000D01*
X89500000Y-115300000D02*
X89200000Y-115000000D01*
X112257500Y-119257500D02*
X113000000Y-120000000D01*
X52000000Y-94850000D02*
X52000000Y-93500000D01*
D54*
X73000000Y-77000000D02*
X73000000Y-85920000D01*
D55*
X82300000Y-101200000D02*
X82317542Y-101200000D01*
D52*
X79825000Y-120825000D02*
X79600000Y-120600000D01*
D55*
X86300000Y-94800000D02*
X86305130Y-94800000D01*
X91900000Y-97200000D02*
X92700000Y-97200000D01*
D52*
X89500000Y-116043000D02*
X89500000Y-115300000D01*
X94800000Y-61800000D02*
X94800000Y-63000000D01*
X95811056Y-82200000D02*
X95813996Y-82197060D01*
D55*
X88865000Y-115065000D02*
X88800000Y-115000000D01*
X66850000Y-93850000D02*
X67825000Y-94825000D01*
X87900000Y-99900000D02*
X88000000Y-100000000D01*
X87900000Y-99600000D02*
X87978079Y-99600000D01*
D56*
X109999080Y-85567500D02*
X109999080Y-88600000D01*
D52*
X79190000Y-121750000D02*
X79190000Y-121010000D01*
X59257500Y-121396500D02*
X59257500Y-120542500D01*
X68325000Y-103825000D02*
X68325000Y-105500000D01*
X94000000Y-61000000D02*
X94800000Y-61800000D01*
X82341178Y-101200000D02*
X82689278Y-100851900D01*
%TO.N,+1V1*%
X86179419Y-100520581D02*
X87000000Y-100520581D01*
D55*
X87100000Y-98165927D02*
X87428210Y-98494137D01*
X91100000Y-95600000D02*
X91100000Y-95542589D01*
X87900000Y-94800000D02*
X87100000Y-94800000D01*
X91100000Y-95542589D02*
X90713243Y-95155832D01*
X87900000Y-94800000D02*
X87778124Y-94800000D01*
X87900000Y-94800000D02*
X88700000Y-94800000D01*
D52*
X92700000Y-101200000D02*
X92000000Y-100500000D01*
D55*
X87100000Y-95478124D02*
X87440048Y-95138076D01*
X87101972Y-94800000D02*
X87440048Y-95138076D01*
X87100000Y-95600000D02*
X87100000Y-95478124D01*
X89944666Y-99144666D02*
X89844666Y-99144666D01*
D54*
X110249080Y-101700000D02*
X111314080Y-101700000D01*
D52*
X92700000Y-102000000D02*
X92700000Y-101200000D01*
D55*
X87100000Y-98800000D02*
X87900000Y-98800000D01*
X90357411Y-94800000D02*
X90713243Y-95155832D01*
X87122347Y-98800000D02*
X87428210Y-98494137D01*
X91100000Y-98800000D02*
X91100000Y-98000000D01*
X87100000Y-94800000D02*
X87101972Y-94800000D01*
X91100000Y-98800000D02*
X91084215Y-98800000D01*
X90300000Y-98800000D02*
X90448813Y-98800000D01*
X87778124Y-94800000D02*
X87440048Y-95138076D01*
X90448813Y-98800000D02*
X90766514Y-98482299D01*
X87734073Y-98800000D02*
X87428210Y-98494137D01*
X88700000Y-98800000D02*
X89500000Y-98800000D01*
X87100000Y-97200000D02*
X87100000Y-98000000D01*
X91100000Y-97200000D02*
X91100000Y-96400000D01*
X87100000Y-94800000D02*
X87100000Y-95600000D01*
X91100000Y-96400000D02*
X91100000Y-95600000D01*
X87100000Y-95600000D02*
X87100000Y-96400000D01*
X87100000Y-96400000D02*
X87100000Y-97200000D01*
X91100000Y-98000000D02*
X91100000Y-98148813D01*
X90300000Y-94800000D02*
X89500000Y-94800000D01*
D52*
X85500000Y-101200000D02*
X86179419Y-100520581D01*
D55*
X90300000Y-94800000D02*
X90357411Y-94800000D01*
X91100000Y-98148813D02*
X90766514Y-98482299D01*
X91084215Y-98800000D02*
X90766514Y-98482299D01*
X87100000Y-98000000D02*
X87100000Y-98165927D01*
X89500000Y-98800000D02*
X90300000Y-98800000D01*
X87900000Y-98800000D02*
X87734073Y-98800000D01*
X91100000Y-94800000D02*
X91069075Y-94800000D01*
X91100000Y-94800000D02*
X90300000Y-94800000D01*
X111249080Y-103450000D02*
X111249080Y-101765000D01*
X87900000Y-98800000D02*
X88700000Y-98800000D01*
X91100000Y-98000000D02*
X91100000Y-97200000D01*
X90300000Y-98800000D02*
X91100000Y-98800000D01*
X91069075Y-94800000D02*
X90713243Y-95155832D01*
X87100000Y-98800000D02*
X87122347Y-98800000D01*
X111249080Y-101765000D02*
X111314080Y-101700000D01*
D52*
X89844666Y-99144666D02*
X89500000Y-98800000D01*
X85500000Y-102000000D02*
X85500000Y-101200000D01*
D55*
X87100000Y-98000000D02*
X87100000Y-98800000D01*
X91100000Y-95600000D02*
X91100000Y-94800000D01*
X89500000Y-94800000D02*
X88700000Y-94800000D01*
D54*
%TO.N,+2V5*%
X111264080Y-95200000D02*
X111264080Y-93235000D01*
D52*
X92708775Y-93200000D02*
X93006669Y-92902106D01*
D51*
X85500000Y-93200000D02*
X85500000Y-93102033D01*
D55*
X85500000Y-93200000D02*
X85121803Y-92821803D01*
D52*
X85500000Y-99600000D02*
X85500000Y-99900000D01*
D54*
X111264080Y-93235000D02*
X113199080Y-91300000D01*
D55*
X109736470Y-93235000D02*
X109701470Y-93200000D01*
D52*
X85500000Y-99900000D02*
X85350000Y-100050000D01*
D55*
X92700000Y-93200000D02*
X92708775Y-93200000D01*
D54*
X111264080Y-93235000D02*
X109736470Y-93235000D01*
X92700000Y-99600000D02*
X92700000Y-99823053D01*
D53*
X85121803Y-92821803D02*
X85120739Y-92821803D01*
D54*
X92700000Y-99823053D02*
X92945220Y-100068273D01*
D56*
%TO.N,USB5V*%
X62175000Y-72900000D02*
X54675000Y-72900000D01*
D52*
%TO.N,CARD5V*%
X68000000Y-121000000D02*
X68000000Y-120200000D01*
X112257500Y-123353500D02*
X112257500Y-124742500D01*
X89500000Y-124500000D02*
X89000000Y-125000000D01*
X99000000Y-127000000D02*
X100115000Y-127000000D01*
X112257500Y-124742500D02*
X111800000Y-125200000D01*
X77400000Y-125900000D02*
X78500000Y-127000000D01*
D56*
X113499325Y-129100675D02*
X115800000Y-126800000D01*
D52*
X98200000Y-125200000D02*
X98200000Y-126200000D01*
D55*
X69550057Y-122400000D02*
X68200000Y-122400000D01*
D52*
X56761063Y-125738937D02*
X57238937Y-125738937D01*
X59257500Y-126603500D02*
X58103500Y-126603500D01*
X89500000Y-121250000D02*
X89500000Y-124500000D01*
D55*
X86990597Y-119409403D02*
X87000000Y-119400000D01*
D52*
X110400000Y-123800000D02*
X111800000Y-125200000D01*
X59892500Y-126603500D02*
X59257500Y-126603500D01*
X68353500Y-121353500D02*
X68000000Y-121000000D01*
X86990597Y-121026187D02*
X86990597Y-119409403D01*
D56*
X113499325Y-133580513D02*
X113499325Y-129100675D01*
D55*
X69757500Y-121353500D02*
X69757500Y-122192557D01*
D56*
X115800000Y-126800000D02*
X117800000Y-126800000D01*
D55*
X58103500Y-126603500D02*
X58000000Y-126500000D01*
D52*
X77400000Y-125200000D02*
X77400000Y-125900000D01*
X100750000Y-127000000D02*
X100115000Y-127000000D01*
X79825000Y-126957000D02*
X79190000Y-126957000D01*
X69757500Y-121353500D02*
X68353500Y-121353500D01*
X79190000Y-126957000D02*
X78543000Y-126957000D01*
X57238937Y-125738937D02*
X58000000Y-126500000D01*
X88865000Y-124865000D02*
X89000000Y-125000000D01*
D55*
X69757500Y-122192557D02*
X69550057Y-122400000D01*
D52*
X110400000Y-121775000D02*
X110400000Y-123800000D01*
X68000000Y-122600000D02*
X68000000Y-125044617D01*
D55*
X68200000Y-122400000D02*
X68000000Y-122600000D01*
X78543000Y-126957000D02*
X78500000Y-127000000D01*
D52*
X88865000Y-121250000D02*
X88865000Y-124865000D01*
X98200000Y-126200000D02*
X99000000Y-127000000D01*
D55*
%TO.N,Net-(D3-K)*%
X51224000Y-97724000D02*
X51224000Y-92338500D01*
X51224000Y-92338500D02*
X52062500Y-91500000D01*
X52000000Y-98500000D02*
X51224000Y-97724000D01*
%TO.N,FT3V3OUT*%
X54500000Y-92062500D02*
X53937500Y-91500000D01*
X54500000Y-95125000D02*
X54500000Y-92062500D01*
X53937500Y-91500000D02*
X53937500Y-87500000D01*
%TO.N,Net-(D19-K)*%
X51850000Y-84000000D02*
X51850000Y-87287500D01*
X51850000Y-87287500D02*
X52062500Y-87500000D01*
%TO.N,D2_5V*%
X72297500Y-123102500D02*
X70800000Y-124600000D01*
X72297500Y-121353500D02*
X72297500Y-123102500D01*
%TO.N,A8_5V*%
X75399325Y-129001675D02*
X75801000Y-128600000D01*
X75399325Y-133580513D02*
X75399325Y-129001675D01*
X75801000Y-128600000D02*
X80934700Y-128600000D01*
X80934700Y-128600000D02*
X81730000Y-127804700D01*
X81730000Y-127804700D02*
X81730000Y-126957000D01*
%TO.N,A7_5V*%
X80460000Y-127740000D02*
X80460000Y-126957000D01*
X80000000Y-128200000D02*
X80460000Y-127740000D01*
X72859325Y-133580513D02*
X72859325Y-128740675D01*
X73400000Y-128200000D02*
X80000000Y-128200000D01*
X72859325Y-128740675D02*
X73400000Y-128200000D01*
%TO.N,D0_5V*%
X70428700Y-122800000D02*
X70000000Y-122800000D01*
X71027500Y-121353500D02*
X71027500Y-122201200D01*
X71027500Y-122201200D02*
X70428700Y-122800000D01*
%TO.N,A5_5V*%
X65032900Y-128200000D02*
X67400000Y-128200000D01*
X67779325Y-128579325D02*
X67779325Y-133580513D01*
X64337500Y-127504600D02*
X65032900Y-128200000D01*
X67400000Y-128200000D02*
X67779325Y-128579325D01*
X64337500Y-126603500D02*
X64337500Y-127504600D01*
%TO.N,~{I{slash}O_STROBE}_5V*%
X100799325Y-133580513D02*
X102020000Y-132359838D01*
X102020000Y-132359838D02*
X102020000Y-127000000D01*
%TO.N,DMA_OUT_5V*%
X110959325Y-128440675D02*
X111800000Y-127600000D01*
X113167100Y-127600000D02*
X114797500Y-125969600D01*
X111800000Y-127600000D02*
X113167100Y-127600000D01*
X114797500Y-125969600D02*
X114797500Y-123353500D01*
X110959325Y-133580513D02*
X110959325Y-128440675D01*
%TO.N,~{INH}_5V*%
X91405000Y-127405000D02*
X91800000Y-127800000D01*
X91405000Y-121250000D02*
X91405000Y-127405000D01*
%TO.N,7M_5V*%
X90770000Y-125630000D02*
X89000000Y-127400000D01*
X90770000Y-121250000D02*
X90770000Y-125630000D01*
%TO.N,A2_5V*%
X61198000Y-128802000D02*
X62432500Y-127567500D01*
X60159325Y-133580513D02*
X60159325Y-128842675D01*
X60159325Y-128842675D02*
X60200000Y-128802000D01*
X62432500Y-127567500D02*
X62432500Y-126603500D01*
X60200000Y-128802000D02*
X61198000Y-128802000D01*
%TO.N,A14_5V*%
X92800000Y-128000000D02*
X90639325Y-130160675D01*
X92800000Y-127400000D02*
X92800000Y-128000000D01*
X92040000Y-121250000D02*
X92040000Y-126640000D01*
X90639325Y-130160675D02*
X90639325Y-133580513D01*
X92040000Y-126640000D02*
X92800000Y-127400000D01*
%TO.N,A10_5V*%
X80479325Y-130520675D02*
X83000000Y-128000000D01*
X83000000Y-128000000D02*
X83000000Y-126957000D01*
X80479325Y-133580513D02*
X80479325Y-130520675D01*
%TO.N,~{RES}_5V*%
X102655000Y-127000000D02*
X102655000Y-125506604D01*
X102655000Y-125506604D02*
X102648396Y-125500000D01*
%TO.N,D1_5V*%
X71000000Y-123400000D02*
X70800000Y-123400000D01*
X71662500Y-122737500D02*
X71000000Y-123400000D01*
X71662500Y-121353500D02*
X71662500Y-122737500D01*
%TO.N,A4_5V*%
X63702500Y-126603500D02*
X63702500Y-127502500D01*
X65239325Y-129039325D02*
X65239325Y-133580513D01*
X63702500Y-127502500D02*
X65239325Y-129039325D01*
%TO.N,R{slash}~{W}_5V*%
X94580000Y-121250000D02*
X94580000Y-127780000D01*
X76991100Y-120200000D02*
X70698300Y-120200000D01*
X87600000Y-120600000D02*
X87600000Y-122600000D01*
X70392500Y-120505800D02*
X70392500Y-121353500D01*
X94400000Y-120200000D02*
X88000000Y-120200000D01*
X88000000Y-120200000D02*
X87600000Y-120600000D01*
X87200000Y-123000000D02*
X78600000Y-123000000D01*
X78600000Y-123000000D02*
X78400000Y-122800000D01*
X95719325Y-128919325D02*
X95719325Y-133580513D01*
X87600000Y-122600000D02*
X87200000Y-123000000D01*
X94580000Y-120380000D02*
X94400000Y-120200000D01*
X94580000Y-127780000D02*
X95719325Y-128919325D01*
X70698300Y-120200000D02*
X70392500Y-120505800D01*
X78400000Y-121608900D02*
X76991100Y-120200000D01*
X78400000Y-122800000D02*
X78400000Y-121608900D01*
X94580000Y-121250000D02*
X94580000Y-120380000D01*
%TO.N,RDY_5V*%
X103339325Y-128739325D02*
X103339325Y-133580513D01*
X103925000Y-128153650D02*
X103925000Y-127000000D01*
X103339325Y-128739325D02*
X103925000Y-128153650D01*
%TO.N,Q3_5V*%
X90135000Y-121250000D02*
X90135000Y-125065000D01*
X90135000Y-125065000D02*
X89000000Y-126200000D01*
%TO.N,A12_5V*%
X85559325Y-133580513D02*
X85559325Y-129759325D01*
X84270000Y-128470000D02*
X84270000Y-126957000D01*
X85559325Y-129759325D02*
X84270000Y-128470000D01*
%TO.N,A6_5V*%
X70200000Y-127800000D02*
X65200000Y-127800000D01*
X64972500Y-127572500D02*
X64972500Y-126603500D01*
X70319325Y-133580513D02*
X70319325Y-127919325D01*
X70319325Y-127919325D02*
X70200000Y-127800000D01*
X65200000Y-127800000D02*
X64972500Y-127572500D01*
%TO.N,~{NMI}_5V*%
X104560000Y-127000000D02*
X104560000Y-128560000D01*
X104560000Y-128560000D02*
X104600000Y-128600000D01*
%TO.N,D7_5V*%
X75472500Y-124927500D02*
X74200000Y-126200000D01*
X75472500Y-121353500D02*
X75472500Y-124927500D01*
X74200000Y-126200000D02*
X74200000Y-127400000D01*
%TO.N,~{I{slash}O_SELECT}_5V*%
X60400000Y-127600000D02*
X53000000Y-127600000D01*
X53000000Y-127600000D02*
X52539325Y-128060675D01*
X60527500Y-127472500D02*
X60400000Y-127600000D01*
X52539325Y-128060675D02*
X52539325Y-133580513D01*
X60527500Y-126603500D02*
X60527500Y-127472500D01*
%TO.N,DMA_IN_5V*%
X105830000Y-127000000D02*
X105830000Y-125230000D01*
X105830000Y-125230000D02*
X105800000Y-125200000D01*
%TO.N,A13_5V*%
X84905000Y-126957000D02*
X84905000Y-127804700D01*
X88099325Y-130999025D02*
X88099325Y-133580513D01*
X84905000Y-127804700D02*
X88099325Y-130999025D01*
%TO.N,INT_IN_5V*%
X105195000Y-127000000D02*
X105195000Y-127995000D01*
X105195000Y-127995000D02*
X105800000Y-128600000D01*
%TO.N,PHI0_5V*%
X92675000Y-122606220D02*
X92667771Y-122613449D01*
X92675000Y-121250000D02*
X92675000Y-122606220D01*
%TO.N,PHI1_5V*%
X93310000Y-123690000D02*
X93200000Y-123800000D01*
X93310000Y-121250000D02*
X93310000Y-123690000D01*
%TO.N,A1_5V*%
X61797500Y-127569600D02*
X61797500Y-126603500D01*
X57619325Y-128581675D02*
X57800000Y-128401000D01*
X60966100Y-128401000D02*
X61797500Y-127569600D01*
X57800000Y-128401000D02*
X60966100Y-128401000D01*
X57619325Y-133580513D02*
X57619325Y-128581675D01*
%TO.N,~{DEVICE_SELECT}_5V*%
X81095000Y-126957000D02*
X81095000Y-125905000D01*
X81095000Y-125905000D02*
X81200000Y-125800000D01*
%TO.N,D5_5V*%
X74202500Y-121353500D02*
X74202500Y-124597500D01*
X74202500Y-124597500D02*
X71800000Y-127000000D01*
%TO.N,A15_5V*%
X93945000Y-127855000D02*
X93179325Y-128620675D01*
X93945000Y-121250000D02*
X93945000Y-127855000D01*
X93179325Y-128620675D02*
X93179325Y-133580513D01*
X94000000Y-121195000D02*
X93945000Y-121250000D01*
%TO.N,A11_5V*%
X83019325Y-128980675D02*
X83635000Y-128365000D01*
X83635000Y-128365000D02*
X83635000Y-126957000D01*
X83019325Y-133580513D02*
X83019325Y-128980675D01*
%TO.N,D6_5V*%
X72800000Y-126800000D02*
X72800000Y-127400000D01*
X74837500Y-124762500D02*
X72800000Y-126800000D01*
X74837500Y-121353500D02*
X74837500Y-124762500D01*
%TO.N,A3_5V*%
X63067500Y-126603500D02*
X63067500Y-128132500D01*
X63067500Y-128132500D02*
X62699325Y-128500675D01*
X62699325Y-128500675D02*
X62699325Y-133580513D01*
%TO.N,D4_5V*%
X73567500Y-124032500D02*
X70800000Y-126800000D01*
X73567500Y-121353500D02*
X73567500Y-124032500D01*
X70800000Y-126800000D02*
X67400000Y-126800000D01*
%TO.N,A9_5V*%
X77939325Y-129061675D02*
X78000000Y-129001000D01*
X81168700Y-129001000D02*
X82365000Y-127804700D01*
X77939325Y-133580513D02*
X77939325Y-129061675D01*
X82365000Y-127804700D02*
X82365000Y-126957000D01*
X78000000Y-129001000D02*
X81168700Y-129001000D01*
%TO.N,INT_OUT_5V*%
X111643839Y-126800000D02*
X113400000Y-126800000D01*
X114162500Y-126037500D02*
X114162500Y-123353500D01*
X108419325Y-133580513D02*
X108419325Y-130024514D01*
X108419325Y-130024514D02*
X111643839Y-126800000D01*
X113400000Y-126800000D02*
X114162500Y-126037500D01*
%TO.N,USER1_5V*%
X113527500Y-123353500D02*
X113527500Y-122505800D01*
X113527500Y-122505800D02*
X112621700Y-121600000D01*
X112621700Y-121600000D02*
X112200000Y-121600000D01*
%TO.N,A0_5V*%
X55079325Y-133580513D02*
X55079325Y-128120675D01*
X61162500Y-127637500D02*
X61162500Y-126603500D01*
X55079325Y-128120675D02*
X55200000Y-128000000D01*
X55200000Y-128000000D02*
X60800000Y-128000000D01*
X60800000Y-128000000D02*
X61162500Y-127637500D01*
%TO.N,D3_5V*%
X72932500Y-123467500D02*
X70800000Y-125600000D01*
X72932500Y-121353500D02*
X72932500Y-123467500D01*
%TO.N,FTDI_nRXLED*%
X52849000Y-99301000D02*
X52000000Y-100150000D01*
X52849000Y-97847702D02*
X52849000Y-99301000D01*
X53134202Y-97562500D02*
X52849000Y-97847702D01*
X53562500Y-97562500D02*
X53134202Y-97562500D01*
%TO.N,nRESET*%
X52437500Y-96062500D02*
X53562500Y-96062500D01*
X52000000Y-96500000D02*
X52437500Y-96062500D01*
%TO.N,/flash/FLASH_nWP*%
X63500000Y-109500000D02*
X64000000Y-109500000D01*
X82622054Y-104722054D02*
X82622054Y-104724587D01*
X60494000Y-106494000D02*
X62000000Y-108000000D01*
X60494000Y-103803058D02*
X60494000Y-106494000D01*
X82300000Y-104400000D02*
X82622054Y-104722054D01*
X61000000Y-95500000D02*
X62365000Y-96865000D01*
X62000000Y-108000000D02*
X63500000Y-109500000D01*
X62365000Y-96865000D02*
X62365000Y-98198000D01*
X62365000Y-101932058D02*
X60494000Y-103803058D01*
X62365000Y-98198000D02*
X62365000Y-101932058D01*
%TO.N,/flash/FLASH_nHOLD*%
X63635000Y-104472058D02*
X64656058Y-103451000D01*
X63635000Y-104802000D02*
X63635000Y-104472058D01*
X81844171Y-103944171D02*
X81844171Y-103947155D01*
X66224000Y-104521058D02*
X66224000Y-105049000D01*
X66224000Y-105218214D02*
X66675000Y-105669214D01*
X63635000Y-104802000D02*
X63635000Y-105865000D01*
X63635000Y-105865000D02*
X63500000Y-106000000D01*
X81500000Y-103600000D02*
X81844171Y-103944171D01*
X65153942Y-103451000D02*
X66224000Y-104521058D01*
X64656058Y-103451000D02*
X65153942Y-103451000D01*
X66224000Y-105049000D02*
X66224000Y-105218214D01*
%TO.N,/flash/FLASH_MOSI*%
X61095000Y-105595000D02*
X64000000Y-108500000D01*
X82643198Y-103943198D02*
X82651444Y-103943198D01*
X82300000Y-103600000D02*
X82643198Y-103943198D01*
X61095000Y-104802000D02*
X61095000Y-105595000D01*
%TO.N,/flash/FLASH_MISO*%
X63635000Y-98198000D02*
X63635000Y-99865000D01*
D51*
X82300000Y-102800000D02*
X82300000Y-102787043D01*
D55*
X63635000Y-98198000D02*
X63635000Y-95865000D01*
X63635000Y-95865000D02*
X64000000Y-95500000D01*
D51*
X82300000Y-102800000D02*
X81920694Y-102420694D01*
D55*
%TO.N,/flash/FLASH_SCK*%
X82746161Y-102353839D02*
X82743614Y-102353839D01*
X83100000Y-102000000D02*
X82746161Y-102353839D01*
X65850000Y-103000000D02*
X67000000Y-104150000D01*
X62365000Y-104802000D02*
X62365000Y-105865000D01*
X62365000Y-104052000D02*
X63417000Y-103000000D01*
X62365000Y-104802000D02*
X62365000Y-104052000D01*
X62365000Y-105865000D02*
X64000000Y-107500000D01*
X63417000Y-103000000D02*
X65850000Y-103000000D01*
%TO.N,/flash/FLASH_nCS*%
X66363062Y-99636938D02*
X67825000Y-98175000D01*
X64905000Y-99636938D02*
X66363062Y-99636938D01*
X82300000Y-100400000D02*
X81912060Y-100787940D01*
X81912060Y-100787940D02*
X81912060Y-100801271D01*
X67825000Y-98175000D02*
X67825000Y-97825000D01*
X64905000Y-98198000D02*
X64905000Y-99636938D01*
%TO.N,/flash/FPGA_PROGRAMN*%
X83100000Y-103600000D02*
X83500000Y-104000000D01*
%TO.N,/flash/FPGA_DONE*%
X83100000Y-104400000D02*
X83500000Y-104800000D01*
%TO.N,/flash/FPGA_INITN*%
X83100000Y-102800000D02*
X83424177Y-103124177D01*
X83424177Y-103124177D02*
X83428247Y-103124177D01*
%TO.N,FTDI_nTXLED*%
X55500000Y-84000000D02*
X53500000Y-84000000D01*
X56000000Y-95125000D02*
X56000000Y-84500000D01*
X56000000Y-84500000D02*
X55500000Y-84000000D01*
%TO.N,/usb/FTD-*%
X60325000Y-89000000D02*
X60325000Y-88325000D01*
X60325000Y-88325000D02*
X58500000Y-86500000D01*
X58500000Y-86500000D02*
X58500000Y-76500000D01*
X55550000Y-73550000D02*
X54675000Y-73550000D01*
X58500000Y-76500000D02*
X55550000Y-73550000D01*
%TO.N,USB_FTDI_D-*%
X55000000Y-92500000D02*
X55000000Y-90637319D01*
X58675000Y-89000000D02*
X58675000Y-89675000D01*
X58675000Y-89675000D02*
X59500000Y-90500000D01*
X55000000Y-90637319D02*
X55295483Y-90341836D01*
X55000000Y-95125000D02*
X55000000Y-92500000D01*
%TO.N,USB_FTDI_D+*%
X55500000Y-95125000D02*
X55500000Y-92013979D01*
X57675000Y-93000000D02*
X56500000Y-93000000D01*
X55500000Y-92013979D02*
X55500000Y-91479437D01*
X55500000Y-91479437D02*
X55487010Y-91466447D01*
%TO.N,/usb/FTD+*%
X56401000Y-90076000D02*
X56401000Y-75051000D01*
X59325000Y-93000000D02*
X56401000Y-90076000D01*
X55550000Y-74200000D02*
X54675000Y-74200000D01*
X56401000Y-75051000D02*
X55550000Y-74200000D01*
%TO.N,7M_3V3*%
X100198000Y-111302000D02*
X100198000Y-106015100D01*
X95100000Y-101200000D02*
X94797358Y-100897358D01*
X91405000Y-116043000D02*
X91405000Y-115195300D01*
X95100300Y-111500000D02*
X100000000Y-111500000D01*
X100000000Y-111500000D02*
X100198000Y-111302000D01*
X91405000Y-115195300D02*
X95100300Y-111500000D01*
X100198000Y-106015100D02*
X100015100Y-106015100D01*
X100015100Y-106015100D02*
X98500000Y-104500000D01*
D53*
%TO.N,SDRAM_D11*%
X83500000Y-87500000D02*
X81828000Y-85828000D01*
X83500000Y-89600000D02*
X83500000Y-87500000D01*
X83100000Y-90000000D02*
X83500000Y-89600000D01*
X79500000Y-85000000D02*
X79500000Y-84500000D01*
X81828000Y-85828000D02*
X80328000Y-85828000D01*
D55*
X79500000Y-79000000D02*
X79500000Y-84500000D01*
X83340000Y-78200000D02*
X80300000Y-78200000D01*
X80300000Y-78200000D02*
X79500000Y-79000000D01*
D53*
X80328000Y-85828000D02*
X79500000Y-85000000D01*
D55*
%TO.N,R{slash}~{W}_3V3*%
X102500000Y-114500000D02*
X102889000Y-114111000D01*
X95215000Y-115195300D02*
X95910300Y-114500000D01*
X102889000Y-103956100D02*
X100132900Y-101200000D01*
X102889000Y-114111000D02*
X102889000Y-103956100D01*
X100132900Y-101200000D02*
X96700000Y-101200000D01*
X95215000Y-116043000D02*
X95215000Y-115195300D01*
X95910300Y-114500000D02*
X102500000Y-114500000D01*
%TO.N,RDY_3V3*%
X100234200Y-99600000D02*
X96700000Y-99600000D01*
X104560000Y-121793000D02*
X104560000Y-103925800D01*
X104560000Y-103925800D02*
X100234200Y-99600000D01*
D53*
%TO.N,CLK_25MHz*%
X82702500Y-93602500D02*
X79102500Y-93602500D01*
X83100000Y-94000000D02*
X82702500Y-93602500D01*
D55*
X73000000Y-91000000D02*
X76500000Y-91000000D01*
D53*
X79102500Y-93602500D02*
X79000000Y-93500000D01*
D55*
X76500000Y-91000000D02*
X79000000Y-93500000D01*
%TO.N,SDRAM_D0*%
X85865699Y-91165699D02*
X85865699Y-91174471D01*
X85500000Y-90800000D02*
X85865699Y-91165699D01*
X94800000Y-83000000D02*
X96000000Y-83000000D01*
X96000000Y-83000000D02*
X96500000Y-83500000D01*
%TO.N,D6_3V3*%
X75472500Y-116146500D02*
X75472500Y-114527500D01*
X81100000Y-100400000D02*
X81500000Y-100400000D01*
X78000000Y-112000000D02*
X78000000Y-103500000D01*
X78000000Y-103500000D02*
X81100000Y-100400000D01*
X75472500Y-114527500D02*
X78000000Y-112000000D01*
D53*
%TO.N,PHI0_3V3*%
X95900000Y-102000000D02*
X96297500Y-102397500D01*
D55*
X95505300Y-113000000D02*
X101000000Y-113000000D01*
X93310000Y-115195300D02*
X95505300Y-113000000D01*
X101000000Y-113000000D02*
X101500000Y-112500000D01*
X101500000Y-105000000D02*
X98891500Y-102391500D01*
X93310000Y-116043000D02*
X93310000Y-115195300D01*
D53*
X98885500Y-102397500D02*
X98891500Y-102391500D01*
D55*
X101500000Y-112500000D02*
X101500000Y-105000000D01*
D53*
X96297500Y-102397500D02*
X98885500Y-102397500D01*
D55*
%TO.N,SDRAM_D13*%
X83340000Y-80600000D02*
X82316198Y-80600000D01*
X82316198Y-80600000D02*
X82279193Y-80637005D01*
X84700000Y-90800000D02*
X85106287Y-90393713D01*
X85106287Y-90393713D02*
X85106287Y-90389280D01*
D53*
%TO.N,SDRAM_A8*%
X87100000Y-89200000D02*
X87100000Y-86745447D01*
D55*
X87000000Y-67000000D02*
X87396000Y-67396000D01*
D53*
X87100000Y-86745447D02*
X87396000Y-86449447D01*
D55*
X87396000Y-68500000D02*
X87396000Y-85500000D01*
D53*
X87396000Y-86449447D02*
X87396000Y-85500000D01*
D55*
X87396000Y-67396000D02*
X87396000Y-68500000D01*
X83340000Y-67000000D02*
X87000000Y-67000000D01*
D51*
%TO.N,SDRAM_A0*%
X90703000Y-89597000D02*
X90703000Y-87500000D01*
D55*
X90703000Y-68500000D02*
X90703000Y-87500000D01*
D51*
X90300000Y-90000000D02*
X90703000Y-89597000D01*
D55*
X94800000Y-66200000D02*
X91003000Y-66200000D01*
X90703000Y-66500000D02*
X90703000Y-68500000D01*
X91003000Y-66200000D02*
X90703000Y-66500000D01*
%TO.N,D0_3V3*%
X77877300Y-97988500D02*
X79488500Y-97988500D01*
X79488500Y-97988500D02*
X79500000Y-98000000D01*
X74000000Y-109000000D02*
X74000000Y-101865800D01*
D53*
X81500000Y-98000000D02*
X79500000Y-98000000D01*
D55*
X71662500Y-111337500D02*
X74000000Y-109000000D01*
X71662500Y-116146500D02*
X71662500Y-111337500D01*
X74000000Y-101865800D02*
X77877300Y-97988500D01*
D51*
%TO.N,SDRAM_A10*%
X91100000Y-89200000D02*
X91100000Y-87600000D01*
D55*
X91104000Y-87596000D02*
X91100000Y-87600000D01*
X94800000Y-67000000D02*
X91500000Y-67000000D01*
X91500000Y-67000000D02*
X91104000Y-67396000D01*
X91104000Y-67396000D02*
X91104000Y-87596000D01*
%TO.N,SDRAM_nCAS*%
X93609000Y-71000000D02*
X93109000Y-71500000D01*
D51*
X93097250Y-89602750D02*
X93097250Y-87603250D01*
X93097250Y-87603250D02*
X93109000Y-87591500D01*
X92700000Y-90000000D02*
X93097250Y-89602750D01*
D55*
X93109000Y-71500000D02*
X93109000Y-87591500D01*
X94800000Y-71000000D02*
X93609000Y-71000000D01*
D51*
%TO.N,SDRAM_D5*%
X95100000Y-87400000D02*
X95500000Y-87000000D01*
X95100000Y-89200000D02*
X95100000Y-87400000D01*
D55*
X94800000Y-76600000D02*
X96734200Y-76600000D01*
D51*
X97000000Y-87000000D02*
X99500000Y-84500000D01*
D55*
X96734200Y-76600000D02*
X99500000Y-79365800D01*
D51*
X95500000Y-87000000D02*
X97000000Y-87000000D01*
D55*
X99500000Y-79365800D02*
X99500000Y-84500000D01*
%TO.N,D7_3V3*%
X79000000Y-112500000D02*
X79000000Y-103700000D01*
X76107500Y-116146500D02*
X76107500Y-115392500D01*
X76107500Y-115392500D02*
X79000000Y-112500000D01*
X79000000Y-103700000D02*
X81500000Y-101200000D01*
%TO.N,Q3_3V3*%
X95033200Y-111000000D02*
X99500000Y-111000000D01*
X90770000Y-115263200D02*
X95033200Y-111000000D01*
X90770000Y-116043000D02*
X90770000Y-115263200D01*
X99500000Y-111000000D02*
X99797000Y-110703000D01*
X95100000Y-102000000D02*
X95500000Y-102400000D01*
X99797000Y-106797000D02*
X98500000Y-105500000D01*
X99797000Y-110703000D02*
X99797000Y-106797000D01*
%TO.N,JTAG_TDO*%
X83900000Y-102800000D02*
X84225404Y-103125404D01*
X56500000Y-95125000D02*
X56500000Y-94000000D01*
X84225404Y-103125404D02*
X84229955Y-103125404D01*
%TO.N,D2_3V3*%
X75000000Y-110000000D02*
X75000000Y-102000000D01*
X75000000Y-102000000D02*
X78209500Y-98790500D01*
X72932500Y-116146500D02*
X72932500Y-112067500D01*
X72932500Y-112067500D02*
X75000000Y-110000000D01*
X78209500Y-98790500D02*
X79200000Y-98790500D01*
D53*
X81500000Y-98800000D02*
X79200000Y-98800000D01*
D51*
%TO.N,SDRAM_A3*%
X89500000Y-89200000D02*
X89500000Y-87000000D01*
D55*
X90700000Y-63800000D02*
X94800000Y-63800000D01*
X89500000Y-65000000D02*
X90700000Y-63800000D01*
X89500000Y-87000000D02*
X89500000Y-65000000D01*
D51*
%TO.N,SDRAM_DQM0*%
X102500000Y-85000000D02*
X102500000Y-84500000D01*
X98000000Y-89500000D02*
X102500000Y-85000000D01*
X95900000Y-90000000D02*
X96400000Y-89500000D01*
X96400000Y-89500000D02*
X98000000Y-89500000D01*
D55*
X94800000Y-72600000D02*
X95686252Y-72600000D01*
X95686252Y-72600000D02*
X102500000Y-79413748D01*
X102500000Y-79413748D02*
X102500000Y-84500000D01*
%TO.N,~{DEVICE_SELECT}_3V3*%
X81000000Y-105000000D02*
X81500000Y-105500000D01*
X81500000Y-102800000D02*
X81000000Y-103300000D01*
X81000000Y-103300000D02*
X81000000Y-105000000D01*
X81730000Y-105730000D02*
X81500000Y-105500000D01*
X81730000Y-121750000D02*
X81730000Y-105730000D01*
D53*
%TO.N,SDRAM_D10*%
X83100000Y-87636138D02*
X82435862Y-86972000D01*
X82435862Y-86972000D02*
X80472000Y-86972000D01*
X80472000Y-86972000D02*
X78500000Y-85000000D01*
X78500000Y-85000000D02*
X78500000Y-84500000D01*
X83100000Y-88580500D02*
X83100000Y-87636138D01*
D55*
X78500000Y-79432900D02*
X78500000Y-84500000D01*
D53*
X83100000Y-89200000D02*
X83100000Y-88580500D01*
D55*
X81332900Y-76600000D02*
X78500000Y-79432900D01*
X83340000Y-76600000D02*
X81332900Y-76600000D01*
%TO.N,SDRAM_D3*%
X98500000Y-83500000D02*
X97500000Y-84500000D01*
D51*
X95173670Y-85500000D02*
X96500000Y-85500000D01*
D55*
X94800000Y-79000000D02*
X98000000Y-79000000D01*
X98500000Y-79500000D02*
X98500000Y-83500000D01*
X98000000Y-79000000D02*
X98500000Y-79500000D01*
D51*
X94300000Y-89200000D02*
X94300000Y-86373670D01*
X94300000Y-86373670D02*
X95173670Y-85500000D01*
X96500000Y-85500000D02*
X97500000Y-84500000D01*
%TO.N,SDRAM_nCS*%
X92297250Y-87714250D02*
X92291500Y-87708500D01*
D55*
X94800000Y-69400000D02*
X92600000Y-69400000D01*
D51*
X91900000Y-90800000D02*
X92297250Y-90402750D01*
D55*
X92600000Y-69400000D02*
X92307000Y-69693000D01*
X92307000Y-69693000D02*
X92307000Y-87693000D01*
D51*
X92297250Y-90402750D02*
X92297250Y-87714250D01*
D55*
X92307000Y-87693000D02*
X92291500Y-87708500D01*
%TO.N,SDRAM_nRAS*%
X92708000Y-87782862D02*
X92700000Y-87790862D01*
X94800000Y-70200000D02*
X93300000Y-70200000D01*
D51*
X92700000Y-89200000D02*
X92700000Y-87790862D01*
D55*
X93300000Y-70200000D02*
X92708000Y-70792000D01*
X92708000Y-70792000D02*
X92708000Y-87782862D01*
D53*
%TO.N,D1_3V3*%
X79167947Y-98402500D02*
X79154947Y-98389500D01*
X81902500Y-98402500D02*
X79167947Y-98402500D01*
X82300000Y-98800000D02*
X81902500Y-98402500D01*
D55*
X78043400Y-98389500D02*
X79154947Y-98389500D01*
X72297500Y-111702500D02*
X74500000Y-109500000D01*
X72297500Y-116146500D02*
X72297500Y-111702500D01*
X74500000Y-109500000D02*
X74500000Y-101932900D01*
X74500000Y-101932900D02*
X78043400Y-98389500D01*
%TO.N,SDRAM_A1*%
X91100000Y-65400000D02*
X94800000Y-65400000D01*
X90302000Y-87798000D02*
X90302000Y-66198000D01*
D51*
X90300000Y-89200000D02*
X90300000Y-87800000D01*
D55*
X90300000Y-87800000D02*
X90302000Y-87798000D01*
X90302000Y-66198000D02*
X91100000Y-65400000D01*
%TO.N,DMA_OUT_3V3*%
X96713500Y-97186500D02*
X101320700Y-97186500D01*
X114600000Y-108400000D02*
X115432500Y-109232500D01*
X108000000Y-103865800D02*
X108000000Y-107500000D01*
X108000000Y-107500000D02*
X108900000Y-108400000D01*
X101320700Y-97186500D02*
X108000000Y-103865800D01*
X96700000Y-97200000D02*
X96713500Y-97186500D01*
X108900000Y-108400000D02*
X114600000Y-108400000D01*
X115432500Y-109232500D02*
X115432500Y-118146500D01*
%TO.N,SDRAM_A5*%
X87699000Y-64600000D02*
X83340000Y-64600000D01*
D53*
X88297500Y-89597500D02*
X88297500Y-88702500D01*
X88700000Y-90000000D02*
X88297500Y-89597500D01*
X88599000Y-88401000D02*
X88599000Y-86500000D01*
D55*
X88599000Y-65500000D02*
X87699000Y-64600000D01*
D53*
X88297500Y-88702500D02*
X88599000Y-88401000D01*
D55*
X88599000Y-86500000D02*
X88599000Y-65500000D01*
%TO.N,SDRAM_D15*%
X87900000Y-90800000D02*
X87521009Y-90421009D01*
X82144493Y-83000000D02*
X82138923Y-82994430D01*
X83340000Y-83000000D02*
X82144493Y-83000000D01*
X87521009Y-90421009D02*
X87521009Y-90419267D01*
%TO.N,~{NMI}_3V3*%
X105195000Y-103993700D02*
X100392800Y-99191500D01*
X105195000Y-121793000D02*
X105195000Y-103993700D01*
D53*
X97494000Y-99197500D02*
X97500000Y-99191500D01*
X96297500Y-99197500D02*
X97494000Y-99197500D01*
D55*
X100392800Y-99191500D02*
X97500000Y-99191500D01*
D53*
X95900000Y-98800000D02*
X96297500Y-99197500D01*
D55*
%TO.N,SDRAM_A4*%
X89000000Y-65000000D02*
X87800000Y-63800000D01*
X89000000Y-87000000D02*
X89000000Y-82500000D01*
D51*
X88700000Y-88800000D02*
X89000000Y-88500000D01*
X89000000Y-88500000D02*
X89000000Y-87000000D01*
D55*
X89000000Y-82500000D02*
X89000000Y-76000000D01*
X87800000Y-63800000D02*
X83340000Y-63800000D01*
D51*
X88700000Y-89200000D02*
X88700000Y-88800000D01*
D55*
X89000000Y-76000000D02*
X89000000Y-65000000D01*
D53*
%TO.N,SDRAM_A12*%
X85902500Y-89597500D02*
X85902500Y-86290500D01*
D55*
X83340000Y-69400000D02*
X85900000Y-69400000D01*
D53*
X85500000Y-90000000D02*
X85902500Y-89597500D01*
D55*
X86193000Y-69693000D02*
X86193000Y-86000000D01*
X85900000Y-69400000D02*
X86000000Y-69500000D01*
D53*
X85902500Y-86290500D02*
X86193000Y-86000000D01*
D55*
X86000000Y-69500000D02*
X86193000Y-69693000D01*
%TO.N,SDRAM_D7*%
X101500000Y-79826834D02*
X101500000Y-84500000D01*
D51*
X97300000Y-89200000D02*
X101500000Y-85000000D01*
X101500000Y-85000000D02*
X101500000Y-84500000D01*
D55*
X95873166Y-74200000D02*
X101500000Y-79826834D01*
D51*
X95900000Y-89200000D02*
X97300000Y-89200000D01*
D55*
X94800000Y-74200000D02*
X95873166Y-74200000D01*
%TO.N,DMA_IN_3V3*%
X106465000Y-121793000D02*
X106465000Y-104129500D01*
D53*
X96297500Y-98397500D02*
X98740700Y-98397500D01*
X95900000Y-98000000D02*
X96297500Y-98397500D01*
D55*
X106465000Y-104129500D02*
X100725000Y-98389500D01*
X100725000Y-98389500D02*
X98748700Y-98389500D01*
D53*
X98740700Y-98397500D02*
X98748700Y-98389500D01*
%TO.N,D5_3V3*%
X81900000Y-100000000D02*
X80849943Y-100000000D01*
D55*
X77000000Y-103849943D02*
X80849943Y-100000000D01*
X74837500Y-113662500D02*
X77000000Y-111500000D01*
X77000000Y-111500000D02*
X77000000Y-103849943D01*
X74837500Y-116146500D02*
X74837500Y-113662500D01*
D53*
X82300000Y-99600000D02*
X81900000Y-100000000D01*
D55*
%TO.N,SDRAM_BA1*%
X91505000Y-87995000D02*
X91500000Y-88000000D01*
X94800000Y-67800000D02*
X91705000Y-67800000D01*
X91505000Y-68000000D02*
X91505000Y-87995000D01*
D51*
X91100000Y-90000000D02*
X91500000Y-89600000D01*
X91500000Y-89600000D02*
X91500000Y-88000000D01*
D55*
X91705000Y-67800000D02*
X91505000Y-68000000D01*
%TO.N,SDRAM_CLK*%
X85391000Y-71500000D02*
X85391000Y-84500000D01*
D53*
X85097500Y-85730638D02*
X85279932Y-85548206D01*
D55*
X83340000Y-71000000D02*
X84891000Y-71000000D01*
D53*
X84700000Y-90000000D02*
X85097500Y-89602500D01*
X85279932Y-85548206D02*
X85391000Y-85437138D01*
D55*
X84891000Y-71000000D02*
X85391000Y-71500000D01*
D53*
X85391000Y-85437138D02*
X85391000Y-84500000D01*
X85097500Y-89602500D02*
X85097500Y-85730638D01*
D51*
%TO.N,SDRAM_D4*%
X95500000Y-86000000D02*
X97000000Y-86000000D01*
X97000000Y-86000000D02*
X98500000Y-84500000D01*
D55*
X94800000Y-78200000D02*
X97767100Y-78200000D01*
D51*
X94697250Y-86802750D02*
X95500000Y-86000000D01*
X94697250Y-89602750D02*
X94697250Y-86802750D01*
D55*
X99000000Y-79432900D02*
X99000000Y-84000000D01*
X99000000Y-84000000D02*
X98500000Y-84500000D01*
D51*
X94300000Y-90000000D02*
X94697250Y-89602750D01*
D55*
X97767100Y-78200000D02*
X99000000Y-79432900D01*
%TO.N,INT_OUT_3V3*%
X108301000Y-108801000D02*
X114301000Y-108801000D01*
D53*
X97467000Y-97597500D02*
X97473000Y-97591500D01*
X95900000Y-97200000D02*
X96297500Y-97597500D01*
X96297500Y-97597500D02*
X97467000Y-97597500D01*
D55*
X107500000Y-103932900D02*
X107500000Y-108000000D01*
X101154600Y-97587500D02*
X107500000Y-103932900D01*
X114797500Y-109297500D02*
X114797500Y-118146500D01*
X97473000Y-97591500D02*
X97477000Y-97587500D01*
X97477000Y-97587500D02*
X101154600Y-97587500D01*
X107500000Y-108000000D02*
X108301000Y-108801000D01*
X114301000Y-108801000D02*
X114797500Y-109297500D01*
%TO.N,INT_IN_3V3*%
X105830000Y-104061600D02*
X100558900Y-98790500D01*
X100558900Y-98790500D02*
X97309500Y-98790500D01*
X97309500Y-98790500D02*
X97300000Y-98800000D01*
X105830000Y-121793000D02*
X105830000Y-104061600D01*
X97300000Y-98800000D02*
X96700000Y-98800000D01*
%TO.N,JTAG_TDI*%
X84700000Y-100400000D02*
X84327261Y-100027261D01*
X57437500Y-97562500D02*
X58937500Y-97562500D01*
X84327261Y-100027261D02*
X84327261Y-100026579D01*
%TO.N,~{RES}_3V3*%
X103290000Y-103790000D02*
X103290000Y-121793000D01*
X96700000Y-100400000D02*
X99900000Y-100400000D01*
X99900000Y-100400000D02*
X103290000Y-103790000D01*
%TO.N,D4_3V3*%
X76000000Y-103000000D02*
X79400000Y-99600000D01*
X74202500Y-116146500D02*
X74202500Y-112797500D01*
D53*
X81500000Y-99600000D02*
X79600000Y-99600000D01*
D55*
X76000000Y-111000000D02*
X76000000Y-103000000D01*
X79400000Y-99600000D02*
X79600000Y-99600000D01*
X74202500Y-112797500D02*
X76000000Y-111000000D01*
%TO.N,~{INH}_3V3*%
X92040000Y-116043000D02*
X92040000Y-115195300D01*
X100599000Y-111713597D02*
X100599000Y-105849000D01*
X94300000Y-100400000D02*
X94700000Y-100000000D01*
X100599000Y-105849000D02*
X98494014Y-103744014D01*
X95235300Y-112000000D02*
X100312597Y-112000000D01*
X100312597Y-112000000D02*
X100599000Y-111713597D01*
X92040000Y-115195300D02*
X95235300Y-112000000D01*
%TO.N,JTAG_TCK*%
X84307190Y-100807190D02*
X84307190Y-100803406D01*
X58448135Y-96562500D02*
X59937500Y-96562500D01*
X84700000Y-101200000D02*
X84307190Y-100807190D01*
X57437500Y-96562500D02*
X58448135Y-96562500D01*
D51*
%TO.N,SDRAM_BA0*%
X91900000Y-89200000D02*
X91900000Y-87506000D01*
X91900000Y-87506000D02*
X91906000Y-87500000D01*
D55*
X94800000Y-68600000D02*
X92400000Y-68600000D01*
X91906000Y-69094000D02*
X91906000Y-87500000D01*
X92400000Y-68600000D02*
X91906000Y-69094000D01*
D51*
%TO.N,SDRAM_D2*%
X93500000Y-90000000D02*
X93902750Y-89597250D01*
D55*
X97100000Y-80600000D02*
X94800000Y-80600000D01*
X98000000Y-81500000D02*
X97100000Y-80600000D01*
D51*
X96000000Y-85000000D02*
X96500000Y-84500000D01*
D55*
X98000000Y-83000000D02*
X96500000Y-84500000D01*
D51*
X93902750Y-85770920D02*
X94673670Y-85000000D01*
X94673670Y-85000000D02*
X96000000Y-85000000D01*
D55*
X98000000Y-83000000D02*
X98000000Y-81500000D01*
D51*
X93902750Y-89597250D02*
X93902750Y-85770920D01*
D55*
%TO.N,SDRAM_A11*%
X86594000Y-86258056D02*
X86551398Y-86300658D01*
D53*
X86300000Y-86603674D02*
X86577207Y-86326467D01*
D55*
X83340000Y-68600000D02*
X86100000Y-68600000D01*
D53*
X86300000Y-87040539D02*
X86300000Y-86603674D01*
X86300000Y-89200000D02*
X86300000Y-87040539D01*
D55*
X86594000Y-69094000D02*
X86594000Y-86258056D01*
X86100000Y-68600000D02*
X86594000Y-69094000D01*
D51*
%TO.N,SDRAM_nWE*%
X93500000Y-89200000D02*
X93500000Y-87963862D01*
D55*
X93510000Y-87953862D02*
X93500000Y-87963862D01*
X93700000Y-71800000D02*
X93510000Y-71990000D01*
X94800000Y-71800000D02*
X93700000Y-71800000D01*
X93510000Y-71990000D02*
X93510000Y-87953862D01*
D53*
%TO.N,SDRAM_D9*%
X82300000Y-87800000D02*
X82000000Y-87500000D01*
X80000000Y-87500000D02*
X77500000Y-85000000D01*
X77500000Y-85000000D02*
X77500000Y-84500000D01*
X82300000Y-89200000D02*
X82300000Y-87800000D01*
D55*
X83340000Y-75800000D02*
X81565800Y-75800000D01*
D53*
X82000000Y-87500000D02*
X80000000Y-87500000D01*
D55*
X81565800Y-75800000D02*
X77500000Y-79865800D01*
X77500000Y-79865800D02*
X77500000Y-84500000D01*
%TO.N,SDRAM_CKE*%
X85500000Y-70500000D02*
X85792000Y-70792000D01*
X85792000Y-71000000D02*
X85792000Y-85500000D01*
X85792000Y-70792000D02*
X85792000Y-71000000D01*
X85200000Y-70200000D02*
X85500000Y-70500000D01*
D53*
X85500000Y-89200000D02*
X85500000Y-85792000D01*
X85500000Y-85792000D02*
X85792000Y-85500000D01*
D55*
X83340000Y-70200000D02*
X85200000Y-70200000D01*
D53*
%TO.N,SDRAM_D12*%
X83900000Y-87600000D02*
X83900000Y-87400000D01*
D55*
X80500000Y-79500000D02*
X80500000Y-84500000D01*
D53*
X80500000Y-85000000D02*
X80500000Y-84500000D01*
X83900000Y-89200000D02*
X83900000Y-87600000D01*
X83900000Y-87400000D02*
X82000000Y-85500000D01*
X81000000Y-85500000D02*
X80500000Y-85000000D01*
D55*
X83340000Y-79000000D02*
X81000000Y-79000000D01*
D53*
X82000000Y-85500000D02*
X81000000Y-85500000D01*
D55*
X81000000Y-79000000D02*
X80500000Y-79500000D01*
%TO.N,SDRAM_D1*%
X84700000Y-91600000D02*
X85045058Y-91254942D01*
X94800000Y-81400000D02*
X96900000Y-81400000D01*
X85045058Y-91254942D02*
X85045058Y-91249071D01*
X96900000Y-81400000D02*
X97000000Y-81500000D01*
D53*
%TO.N,SDRAM_A6*%
X88198000Y-86000000D02*
X88198000Y-86838138D01*
D55*
X83340000Y-65400000D02*
X87400000Y-65400000D01*
X87400000Y-65400000D02*
X87500000Y-65500000D01*
D53*
X87900000Y-89200000D02*
X87844000Y-89144000D01*
D55*
X87500000Y-65500000D02*
X88198000Y-66198000D01*
D53*
X88198000Y-86838138D02*
X87844000Y-87192138D01*
X87844000Y-89144000D02*
X87844000Y-87192138D01*
D55*
X88198000Y-66198000D02*
X88198000Y-86000000D01*
D53*
%TO.N,SDRAM_DQM1*%
X84762790Y-88500710D02*
X84762790Y-86036500D01*
D55*
X84990000Y-72000000D02*
X84990000Y-85133515D01*
D53*
X84700000Y-89200000D02*
X84700000Y-88563500D01*
X84762790Y-86036500D02*
X84726290Y-86000000D01*
X84700000Y-88563500D02*
X84762790Y-88500710D01*
D55*
X84790000Y-71800000D02*
X84990000Y-72000000D01*
X83340000Y-71800000D02*
X84790000Y-71800000D01*
X84726290Y-85397225D02*
X84726290Y-86000000D01*
X84990000Y-85133515D02*
X84726290Y-85397225D01*
%TO.N,USER1_3V3*%
X114162500Y-109662500D02*
X114162500Y-118146500D01*
X107000000Y-108500000D02*
X107702000Y-109202000D01*
X100988500Y-97988500D02*
X107000000Y-104000000D01*
X98569100Y-98002000D02*
X98582600Y-97988500D01*
X98582600Y-97988500D02*
X100988500Y-97988500D01*
X96702000Y-98002000D02*
X98569100Y-98002000D01*
X107000000Y-104000000D02*
X107000000Y-108500000D01*
X96700000Y-98000000D02*
X96702000Y-98002000D01*
X113702000Y-109202000D02*
X114162500Y-109662500D01*
X107702000Y-109202000D02*
X113702000Y-109202000D01*
%TO.N,SDRAM_D14*%
X86300000Y-90800000D02*
X85918040Y-90418040D01*
X83340000Y-81400000D02*
X82168408Y-81400000D01*
X82168408Y-81400000D02*
X82146693Y-81378285D01*
X85918040Y-90418040D02*
X85915021Y-90418040D01*
%TO.N,JTAG_TMS*%
X59040042Y-96062500D02*
X59062276Y-96084734D01*
X85005208Y-102305208D02*
X85005208Y-102310111D01*
X84700000Y-102000000D02*
X85005208Y-102305208D01*
X57437500Y-96062500D02*
X59040042Y-96062500D01*
%TO.N,SDRAM_D8*%
X84589000Y-75500000D02*
X84589000Y-84967415D01*
X84589000Y-84967415D02*
X84325290Y-85231125D01*
X84200000Y-74200000D02*
X84500000Y-74500000D01*
X84589000Y-74589000D02*
X84589000Y-75500000D01*
D53*
X84297500Y-89602500D02*
X84297500Y-86027790D01*
D55*
X84325290Y-85231125D02*
X84325290Y-86000000D01*
D53*
X83900000Y-90000000D02*
X84297500Y-89602500D01*
D55*
X83340000Y-74200000D02*
X84200000Y-74200000D01*
X84500000Y-74500000D02*
X84589000Y-74589000D01*
%TO.N,SDRAM_D6*%
X96501300Y-75800000D02*
X100500000Y-79798700D01*
D51*
X97500000Y-87500000D02*
X100500000Y-84500000D01*
X96000000Y-87500000D02*
X97500000Y-87500000D01*
X95100000Y-90000000D02*
X95500000Y-89600000D01*
X95500000Y-89600000D02*
X95500000Y-88000000D01*
D55*
X100500000Y-79798700D02*
X100500000Y-84500000D01*
X94800000Y-75800000D02*
X96501300Y-75800000D01*
D51*
X95500000Y-88000000D02*
X96000000Y-87500000D01*
D55*
%TO.N,PHI1_3V3*%
X95640300Y-113500000D02*
X101500000Y-113500000D01*
X101500000Y-113500000D02*
X102000000Y-113000000D01*
X93945000Y-116043000D02*
X93945000Y-115195300D01*
X93945000Y-115195300D02*
X95640300Y-113500000D01*
D53*
X96700000Y-102000000D02*
X99000000Y-102000000D01*
D55*
X102000000Y-104579100D02*
X99422900Y-102002000D01*
X102000000Y-113000000D02*
X102000000Y-104579100D01*
X99422900Y-102002000D02*
X99000000Y-102002000D01*
%TO.N,D3_3V3*%
X78808500Y-99191500D02*
X79293019Y-99191500D01*
X73567500Y-112432500D02*
X75500000Y-110500000D01*
D53*
X79299019Y-99197500D02*
X79293019Y-99191500D01*
X82702500Y-99197500D02*
X79299019Y-99197500D01*
D55*
X73567500Y-116146500D02*
X73567500Y-112432500D01*
D53*
X83100000Y-98800000D02*
X82702500Y-99197500D01*
D55*
X75500000Y-102500000D02*
X78808500Y-99191500D01*
X75500000Y-110500000D02*
X75500000Y-102500000D01*
%TO.N,SDRAM_A7*%
X87797000Y-67000000D02*
X87797000Y-85500000D01*
D53*
X87500000Y-89600000D02*
X87900000Y-90000000D01*
D55*
X87500000Y-66500000D02*
X87797000Y-66797000D01*
D53*
X87797000Y-86000000D02*
X87833500Y-86036500D01*
D55*
X83340000Y-66200000D02*
X87200000Y-66200000D01*
X87797000Y-85500000D02*
X87797000Y-86000000D01*
D53*
X87833500Y-86738776D02*
X87500000Y-87072276D01*
X87833500Y-86036500D02*
X87833500Y-86738776D01*
D55*
X87797000Y-66797000D02*
X87797000Y-67000000D01*
X87200000Y-66200000D02*
X87500000Y-66500000D01*
D53*
X87500000Y-87072276D02*
X87500000Y-89600000D01*
D55*
%TO.N,SDRAM_A2*%
X90900000Y-64600000D02*
X94800000Y-64600000D01*
D57*
X89900000Y-89600000D02*
X89900000Y-89367100D01*
D55*
X89901000Y-87599000D02*
X89901000Y-65599000D01*
D57*
X89900000Y-87600000D02*
X89901000Y-87599000D01*
D55*
X89901000Y-65599000D02*
X90900000Y-64600000D01*
D57*
X89500000Y-90000000D02*
X89900000Y-89600000D01*
X89900000Y-89367100D02*
X89900000Y-87600000D01*
D53*
%TO.N,SDRAM_A9*%
X86702500Y-86690812D02*
X86689612Y-86677924D01*
X86995000Y-86372536D02*
X86995000Y-85500000D01*
X86702500Y-89602500D02*
X86702500Y-86690812D01*
D55*
X86995000Y-67995000D02*
X86995000Y-70500000D01*
D53*
X87100000Y-90000000D02*
X86702500Y-89602500D01*
D55*
X83340000Y-67800000D02*
X86800000Y-67800000D01*
D53*
X86689612Y-86677924D02*
X86995000Y-86372536D01*
D55*
X86800000Y-67800000D02*
X86995000Y-67995000D01*
X86995000Y-70500000D02*
X86995000Y-85500000D01*
D53*
%TO.N,~{I{slash}O_STROBE}_3V3*%
X95900000Y-99600000D02*
X96300000Y-100000000D01*
D55*
X103925000Y-119392161D02*
X103950368Y-119417529D01*
X103925000Y-103857900D02*
X103925000Y-119392161D01*
X102655000Y-121793000D02*
X102655000Y-120655000D01*
X102655000Y-120655000D02*
X102000000Y-120000000D01*
D53*
X96300000Y-100000000D02*
X97000000Y-100000000D01*
D55*
X103925000Y-103857900D02*
X100067100Y-100000000D01*
X100067100Y-100000000D02*
X97000000Y-100000000D01*
D53*
%TO.N,A12_3V3*%
X93897500Y-100797500D02*
X93897500Y-106102500D01*
D55*
X84905000Y-121750000D02*
X84905000Y-115095000D01*
X84905000Y-115095000D02*
X93500000Y-106500000D01*
D53*
X93500000Y-100400000D02*
X93897500Y-100797500D01*
X93897500Y-106102500D02*
X93500000Y-106500000D01*
D55*
%TO.N,A9_3V3*%
X83000000Y-114000000D02*
X91000000Y-106000000D01*
X93858750Y-98441250D02*
X93861449Y-98441250D01*
X83000000Y-121750000D02*
X83000000Y-114000000D01*
X93500000Y-98800000D02*
X93858750Y-98441250D01*
%TO.N,A0_3V3*%
X61797500Y-121396500D02*
X61797500Y-114202500D01*
X61797500Y-114202500D02*
X70500000Y-105500000D01*
X70500000Y-105500000D02*
X70500000Y-100357585D01*
X70500000Y-100357585D02*
X76059585Y-94798000D01*
X76059585Y-94798000D02*
X78078500Y-94798000D01*
X78078500Y-94798000D02*
X78080500Y-94800000D01*
D53*
X81500000Y-94800000D02*
X78080500Y-94800000D01*
%TO.N,~{I{slash}O_SELECT}_3V3*%
X75904985Y-94397500D02*
X75898985Y-94391500D01*
D55*
X61162500Y-121396500D02*
X61162500Y-114270400D01*
X69966450Y-105466450D02*
X69966450Y-100324035D01*
D53*
X82300000Y-94000000D02*
X81902500Y-94397500D01*
X81902500Y-94397500D02*
X75904985Y-94397500D01*
D55*
X61162500Y-114270400D02*
X69966450Y-105466450D01*
X69966450Y-100324035D02*
X75898985Y-94391500D01*
%TO.N,A14_3V3*%
X101000000Y-105500000D02*
X98500000Y-103000000D01*
X95100000Y-100400000D02*
X95500000Y-100000000D01*
X92675000Y-116043000D02*
X92675000Y-115195300D01*
X101000000Y-112000000D02*
X101000000Y-105500000D01*
X100500000Y-112500000D02*
X101000000Y-112000000D01*
X92675000Y-115195300D02*
X95370300Y-112500000D01*
X95370300Y-112500000D02*
X100500000Y-112500000D01*
%TO.N,A4_3V3*%
X72500000Y-107432900D02*
X72500000Y-101500000D01*
X72500000Y-101500000D02*
X77600000Y-96400000D01*
D53*
X81500000Y-96400000D02*
X78100000Y-96400000D01*
D55*
X64337500Y-121396500D02*
X64337500Y-115595400D01*
X64337500Y-115595400D02*
X72500000Y-107432900D01*
X77600000Y-96400000D02*
X78100000Y-96400000D01*
D53*
%TO.N,A15_3V3*%
X95900000Y-101200000D02*
X95900000Y-101482842D01*
D55*
X94580000Y-116043000D02*
X94580000Y-115195300D01*
X102000000Y-114000000D02*
X102488000Y-113512000D01*
D53*
X95900000Y-101482842D02*
X96018158Y-101601000D01*
D55*
X95775300Y-114000000D02*
X102000000Y-114000000D01*
X102488000Y-104500000D02*
X99589000Y-101601000D01*
D53*
X96018158Y-101601000D02*
X98973000Y-101601000D01*
D55*
X99589000Y-101601000D02*
X98973000Y-101601000D01*
X94580000Y-115195300D02*
X95775300Y-114000000D01*
X102488000Y-113512000D02*
X102488000Y-104500000D01*
%TO.N,A7_3V3*%
X81095000Y-106595000D02*
X81095000Y-121750000D01*
X81500000Y-102000000D02*
X80118000Y-103382000D01*
X80118000Y-103382000D02*
X80118000Y-105618000D01*
X80118000Y-105618000D02*
X81095000Y-106595000D01*
%TO.N,A2_3V3*%
X71500000Y-100491785D02*
X76391785Y-95600000D01*
X63067500Y-114932500D02*
X71500000Y-106500000D01*
X76391785Y-95600000D02*
X77900000Y-95600000D01*
D53*
X81500000Y-95600000D02*
X77900000Y-95600000D01*
D55*
X71500000Y-106500000D02*
X71500000Y-100491785D01*
X63067500Y-121396500D02*
X63067500Y-114932500D01*
%TO.N,A10_3V3*%
X83635000Y-121750000D02*
X83635000Y-114365000D01*
X93500000Y-99600000D02*
X93885949Y-99214051D01*
X83635000Y-114365000D02*
X92000000Y-106000000D01*
D53*
%TO.N,A3_3V3*%
X82300000Y-96400000D02*
X81900000Y-96000000D01*
X81900000Y-96000000D02*
X78000000Y-96000000D01*
D55*
X77000000Y-96000000D02*
X78000000Y-96000000D01*
X72000000Y-101000000D02*
X77000000Y-96000000D01*
X63702500Y-115297500D02*
X72000000Y-107000000D01*
X72000000Y-107000000D02*
X72000000Y-101000000D01*
X63702500Y-121396500D02*
X63702500Y-115297500D01*
%TO.N,A6_3V3*%
X78098700Y-97200000D02*
X78800000Y-97200000D01*
D53*
X81500000Y-97200000D02*
X78800000Y-97200000D01*
D55*
X65607500Y-115892500D02*
X73500000Y-108000000D01*
X73500000Y-101798700D02*
X78098700Y-97200000D01*
X65607500Y-121396500D02*
X65607500Y-115892500D01*
X73500000Y-108000000D02*
X73500000Y-101798700D01*
%TO.N,A11_3V3*%
X84270000Y-114730000D02*
X93000000Y-106000000D01*
X84270000Y-121750000D02*
X84270000Y-114730000D01*
X94685338Y-99214662D02*
X94698036Y-99214662D01*
X94300000Y-99600000D02*
X94685338Y-99214662D01*
%TO.N,A8_3V3*%
X94300000Y-98000000D02*
X93930385Y-97630385D01*
X93930385Y-97630385D02*
X93930385Y-97620462D01*
X82365000Y-113635000D02*
X90000000Y-106000000D01*
X82365000Y-121750000D02*
X82365000Y-113635000D01*
%TO.N,A1_3V3*%
X71000000Y-106000000D02*
X71000000Y-100424685D01*
X71000000Y-100424685D02*
X76225685Y-95199000D01*
X62432500Y-121396500D02*
X62432500Y-114567500D01*
D53*
X82300000Y-94800000D02*
X81901000Y-95199000D01*
X81901000Y-95199000D02*
X77708500Y-95199000D01*
D55*
X62432500Y-114567500D02*
X71000000Y-106000000D01*
X76225685Y-95199000D02*
X77708500Y-95199000D01*
%TO.N,A13_3V3*%
X85540000Y-115460000D02*
X94500000Y-106500000D01*
D53*
X94697500Y-102397500D02*
X94300000Y-102000000D01*
X94500000Y-106500000D02*
X94697500Y-106302500D01*
X94697500Y-106302500D02*
X94697500Y-102397500D01*
D55*
X85540000Y-121750000D02*
X85540000Y-115460000D01*
D53*
%TO.N,A5_3V3*%
X81902500Y-96802500D02*
X77929100Y-96802500D01*
X77929100Y-96802500D02*
X77923100Y-96808500D01*
D55*
X73000000Y-107500000D02*
X73000000Y-101731600D01*
X73000000Y-101731600D02*
X77923100Y-96808500D01*
X64972500Y-115527500D02*
X73000000Y-107500000D01*
D53*
X82300000Y-97200000D02*
X81902500Y-96802500D01*
D55*
X64972500Y-121396500D02*
X64972500Y-115527500D01*
%TO.N,/power/L1*%
X126299080Y-102750000D02*
X126299080Y-100250000D01*
X126299080Y-100250000D02*
X126249080Y-100200000D01*
%TO.N,/power/L2*%
X125799080Y-92900000D02*
X125799080Y-94660000D01*
X125799080Y-94660000D02*
X126539080Y-95400000D01*
%TO.N,/power/L3*%
X128399080Y-80530000D02*
X127669080Y-79800000D01*
X127999080Y-85200000D02*
X128399080Y-84800000D01*
X127199080Y-85200000D02*
X127999080Y-85200000D01*
X128399080Y-84800000D02*
X128399080Y-80530000D01*
D53*
%TO.N,I{slash}O_PIN_10*%
X96700000Y-93200000D02*
X101638304Y-93200000D01*
%TD*%
M02*
