%TF.GenerationSoftware,KiCad,Pcbnew,9.0.5*%
%TF.CreationDate,2025-12-06T10:01:17-08:00*%
%TF.ProjectId,project_byte_hamr,70726f6a-6563-4745-9f62-7974655f6861,rev?*%
%TF.SameCoordinates,Original*%
%TF.FileFunction,Paste,Top*%
%TF.FilePolarity,Positive*%
%FSLAX46Y46*%
G04 Gerber Fmt 4.6, Leading zero omitted, Abs format (unit mm)*
G04 Created by KiCad (PCBNEW 9.0.5) date 2025-12-06 10:01:17*
%MOMM*%
%LPD*%
G01*
G04 APERTURE LIST*
G04 Aperture macros list*
%AMRoundRect*
0 Rectangle with rounded corners*
0 $1 Rounding radius*
0 $2 $3 $4 $5 $6 $7 $8 $9 X,Y pos of 4 corners*
0 Add a 4 corners polygon primitive as box body*
4,1,4,$2,$3,$4,$5,$6,$7,$8,$9,$2,$3,0*
0 Add four circle primitives for the rounded corners*
1,1,$1+$1,$2,$3*
1,1,$1+$1,$4,$5*
1,1,$1+$1,$6,$7*
1,1,$1+$1,$8,$9*
0 Add four rect primitives between the rounded corners*
20,1,$1+$1,$2,$3,$4,$5,0*
20,1,$1+$1,$4,$5,$6,$7,0*
20,1,$1+$1,$6,$7,$8,$9,0*
20,1,$1+$1,$8,$9,$2,$3,0*%
G04 Aperture macros list end*
%ADD10R,0.700000X1.200000*%
%ADD11RoundRect,0.200000X-0.275000X0.200000X-0.275000X-0.200000X0.275000X-0.200000X0.275000X0.200000X0*%
%ADD12R,0.304800X1.295400*%
%ADD13RoundRect,0.250000X-0.475000X0.250000X-0.475000X-0.250000X0.475000X-0.250000X0.475000X0.250000X0*%
%ADD14RoundRect,0.200000X0.275000X-0.200000X0.275000X0.200000X-0.275000X0.200000X-0.275000X-0.200000X0*%
%ADD15RoundRect,0.200000X0.200000X0.275000X-0.200000X0.275000X-0.200000X-0.275000X0.200000X-0.275000X0*%
%ADD16RoundRect,0.250000X0.475000X-0.250000X0.475000X0.250000X-0.475000X0.250000X-0.475000X-0.250000X0*%
%ADD17RoundRect,0.250000X-0.250000X-0.475000X0.250000X-0.475000X0.250000X0.475000X-0.250000X0.475000X0*%
%ADD18RoundRect,0.225000X0.250000X-0.225000X0.250000X0.225000X-0.250000X0.225000X-0.250000X-0.225000X0*%
%ADD19RoundRect,0.200000X-0.200000X-0.275000X0.200000X-0.275000X0.200000X0.275000X-0.200000X0.275000X0*%
%ADD20RoundRect,0.243750X-0.243750X-0.456250X0.243750X-0.456250X0.243750X0.456250X-0.243750X0.456250X0*%
%ADD21RoundRect,0.225000X-0.250000X0.225000X-0.250000X-0.225000X0.250000X-0.225000X0.250000X0.225000X0*%
%ADD22C,0.350000*%
%ADD23R,1.200000X0.700000*%
%ADD24RoundRect,0.250000X-1.000000X-0.650000X1.000000X-0.650000X1.000000X0.650000X-1.000000X0.650000X0*%
%ADD25R,1.200000X2.400000*%
%ADD26R,1.350000X0.400000*%
%ADD27R,1.646000X1.546000*%
%ADD28R,1.346000X1.846000*%
%ADD29R,1.646000X1.646000*%
%ADD30RoundRect,0.250000X0.250000X0.475000X-0.250000X0.475000X-0.250000X-0.475000X0.250000X-0.475000X0*%
%ADD31R,0.600000X2.100000*%
%ADD32O,0.600000X2.100000*%
%ADD33R,1.200000X0.560000*%
%ADD34O,1.200000X0.560000*%
%ADD35RoundRect,0.198400X0.201600X0.201600X-0.201600X0.201600X-0.201600X-0.201600X0.201600X-0.201600X0*%
%ADD36RoundRect,0.062500X0.350000X0.062500X-0.350000X0.062500X-0.350000X-0.062500X0.350000X-0.062500X0*%
%ADD37RoundRect,0.062500X0.062500X0.350000X-0.062500X0.350000X-0.062500X-0.350000X0.062500X-0.350000X0*%
%ADD38R,1.500000X1.900000*%
%ADD39RoundRect,0.225000X0.225000X0.250000X-0.225000X0.250000X-0.225000X-0.250000X0.225000X-0.250000X0*%
G04 APERTURE END LIST*
D10*
%TO.C,U5*%
X125299080Y-85200000D03*
X126249080Y-85200000D03*
X127199080Y-85200000D03*
X127199080Y-82600000D03*
X125299080Y-82600000D03*
%TD*%
D11*
%TO.C,R11*%
X61000000Y-93850000D03*
X61000000Y-95500000D03*
%TD*%
D12*
%TO.C,U13*%
X88865000Y-121250000D03*
X89500000Y-121250000D03*
X90135000Y-121250000D03*
X90770000Y-121250000D03*
X91405000Y-121250000D03*
X92040000Y-121250000D03*
X92675000Y-121250000D03*
X93310000Y-121250000D03*
X93945000Y-121250000D03*
X94580000Y-121250000D03*
X95215000Y-121250000D03*
X95850000Y-121250000D03*
X95850000Y-116043000D03*
X95215000Y-116043000D03*
X94580000Y-116043000D03*
X93945000Y-116043000D03*
X93310000Y-116043000D03*
X92675000Y-116043000D03*
X92040000Y-116043000D03*
X91405000Y-116043000D03*
X90770000Y-116043000D03*
X90135000Y-116043000D03*
X89500000Y-116043000D03*
X88865000Y-116043000D03*
%TD*%
D13*
%TO.C,C12*%
X118599080Y-95000000D03*
X118599080Y-96900000D03*
%TD*%
D14*
%TO.C,RB3*%
X118599080Y-86050000D03*
X118599080Y-84400000D03*
%TD*%
D15*
%TO.C,R12*%
X68325000Y-105669214D03*
X66675000Y-105669214D03*
%TD*%
D14*
%TO.C,RA2*%
X118580782Y-92179275D03*
X118580782Y-90529275D03*
%TD*%
D16*
%TO.C,C1*%
X127999080Y-105400000D03*
X127999080Y-103500000D03*
%TD*%
D17*
%TO.C,C5*%
X124699080Y-86800000D03*
X126599080Y-86800000D03*
%TD*%
D12*
%TO.C,U8*%
X59257500Y-126603500D03*
X59892500Y-126603500D03*
X60527500Y-126603500D03*
X61162500Y-126603500D03*
X61797500Y-126603500D03*
X62432500Y-126603500D03*
X63067500Y-126603500D03*
X63702500Y-126603500D03*
X64337500Y-126603500D03*
X64972500Y-126603500D03*
X65607500Y-126603500D03*
X66242500Y-126603500D03*
X66242500Y-121396500D03*
X65607500Y-121396500D03*
X64972500Y-121396500D03*
X64337500Y-121396500D03*
X63702500Y-121396500D03*
X63067500Y-121396500D03*
X62432500Y-121396500D03*
X61797500Y-121396500D03*
X61162500Y-121396500D03*
X60527500Y-121396500D03*
X59892500Y-121396500D03*
X59257500Y-121396500D03*
%TD*%
D11*
%TO.C,R28*%
X64000000Y-93850000D03*
X64000000Y-95500000D03*
%TD*%
D18*
%TO.C,C32*%
X59500000Y-103000000D03*
X59500000Y-101450000D03*
%TD*%
D19*
%TO.C,R50*%
X57675000Y-93000000D03*
X59325000Y-93000000D03*
%TD*%
D20*
%TO.C,D3*%
X52062500Y-91500000D03*
X53937500Y-91500000D03*
%TD*%
D18*
%TO.C,C10*%
X115799080Y-92200000D03*
X115799080Y-90650000D03*
%TD*%
D21*
%TO.C,C2*%
X115749080Y-103450000D03*
X115749080Y-105000000D03*
%TD*%
D11*
%TO.C,R29*%
X67000000Y-102500000D03*
X67000000Y-104150000D03*
%TD*%
D21*
%TO.C,C6*%
X118999080Y-80850000D03*
X118999080Y-82400000D03*
%TD*%
D22*
%TO.C,U1*%
X82300000Y-89200000D03*
X83100000Y-89200000D03*
X83900000Y-89200000D03*
X84700000Y-89200000D03*
X85500000Y-89200000D03*
X86300000Y-89200000D03*
X87100000Y-89200000D03*
X87900000Y-89200000D03*
X88700000Y-89200000D03*
X89500000Y-89200000D03*
X90300000Y-89200000D03*
X91100000Y-89200000D03*
X91900000Y-89200000D03*
X92700000Y-89200000D03*
X93500000Y-89200000D03*
X94300000Y-89200000D03*
X95100000Y-89200000D03*
X95900000Y-89200000D03*
X81500000Y-90000000D03*
X82300000Y-90000000D03*
X83100000Y-90000000D03*
X83900000Y-90000000D03*
X84700000Y-90000000D03*
X85500000Y-90000000D03*
X86300000Y-90000000D03*
X87100000Y-90000000D03*
X87900000Y-90000000D03*
X88700000Y-90000000D03*
X89500000Y-90000000D03*
X90300000Y-90000000D03*
X91100000Y-90000000D03*
X91900000Y-90000000D03*
X92700000Y-90000000D03*
X93500000Y-90000000D03*
X94300000Y-90000000D03*
X95100000Y-90000000D03*
X95900000Y-90000000D03*
X96700000Y-90000000D03*
X81500000Y-90800000D03*
X82300000Y-90800000D03*
X83100000Y-90800000D03*
X83900000Y-90800000D03*
X84700000Y-90800000D03*
X85500000Y-90800000D03*
X86300000Y-90800000D03*
X87100000Y-90800000D03*
X87900000Y-90800000D03*
X88700000Y-90800000D03*
X89500000Y-90800000D03*
X90300000Y-90800000D03*
X91100000Y-90800000D03*
X91900000Y-90800000D03*
X92700000Y-90800000D03*
X93500000Y-90800000D03*
X94300000Y-90800000D03*
X95100000Y-90800000D03*
X95900000Y-90800000D03*
X96700000Y-90800000D03*
X81500000Y-91600000D03*
X82300000Y-91600000D03*
X83100000Y-91600000D03*
X83900000Y-91600000D03*
X84700000Y-91600000D03*
X85500000Y-91600000D03*
X86300000Y-91600000D03*
X87100000Y-91600000D03*
X87900000Y-91600000D03*
X88700000Y-91600000D03*
X89500000Y-91600000D03*
X90300000Y-91600000D03*
X91100000Y-91600000D03*
X91900000Y-91600000D03*
X92700000Y-91600000D03*
X93500000Y-91600000D03*
X94300000Y-91600000D03*
X95100000Y-91600000D03*
X95900000Y-91600000D03*
X96700000Y-91600000D03*
X81500000Y-92400000D03*
X82300000Y-92400000D03*
X83100000Y-92400000D03*
X83900000Y-92400000D03*
X84700000Y-92400000D03*
X85500000Y-92400000D03*
X86300000Y-92400000D03*
X87100000Y-92400000D03*
X87900000Y-92400000D03*
X88700000Y-92400000D03*
X89500000Y-92400000D03*
X90300000Y-92400000D03*
X91100000Y-92400000D03*
X91900000Y-92400000D03*
X92700000Y-92400000D03*
X93500000Y-92400000D03*
X94300000Y-92400000D03*
X95100000Y-92400000D03*
X95900000Y-92400000D03*
X96700000Y-92400000D03*
X81500000Y-93200000D03*
X82300000Y-93200000D03*
X83100000Y-93200000D03*
X83900000Y-93200000D03*
X84700000Y-93200000D03*
X85500000Y-93200000D03*
X86300000Y-93200000D03*
X87100000Y-93200000D03*
X87900000Y-93200000D03*
X88700000Y-93200000D03*
X89500000Y-93200000D03*
X90300000Y-93200000D03*
X91100000Y-93200000D03*
X91900000Y-93200000D03*
X92700000Y-93200000D03*
X93500000Y-93200000D03*
X94300000Y-93200000D03*
X95100000Y-93200000D03*
X95900000Y-93200000D03*
X96700000Y-93200000D03*
X81500000Y-94000000D03*
X82300000Y-94000000D03*
X83100000Y-94000000D03*
X83900000Y-94000000D03*
X84700000Y-94000000D03*
X85500000Y-94000000D03*
X86300000Y-94000000D03*
X87100000Y-94000000D03*
X87900000Y-94000000D03*
X88700000Y-94000000D03*
X89500000Y-94000000D03*
X90300000Y-94000000D03*
X91100000Y-94000000D03*
X91900000Y-94000000D03*
X92700000Y-94000000D03*
X93500000Y-94000000D03*
X94300000Y-94000000D03*
X95100000Y-94000000D03*
X95900000Y-94000000D03*
X96700000Y-94000000D03*
X81500000Y-94800000D03*
X82300000Y-94800000D03*
X83100000Y-94800000D03*
X83900000Y-94800000D03*
X84700000Y-94800000D03*
X85500000Y-94800000D03*
X86300000Y-94800000D03*
X87100000Y-94800000D03*
X87900000Y-94800000D03*
X88700000Y-94800000D03*
X89500000Y-94800000D03*
X90300000Y-94800000D03*
X91100000Y-94800000D03*
X91900000Y-94800000D03*
X92700000Y-94800000D03*
X93500000Y-94800000D03*
X94300000Y-94800000D03*
X95100000Y-94800000D03*
X95900000Y-94800000D03*
X96700000Y-94800000D03*
X81500000Y-95600000D03*
X82300000Y-95600000D03*
X83100000Y-95600000D03*
X83900000Y-95600000D03*
X84700000Y-95600000D03*
X85500000Y-95600000D03*
X86300000Y-95600000D03*
X87100000Y-95600000D03*
X87900000Y-95600000D03*
X88700000Y-95600000D03*
X89500000Y-95600000D03*
X90300000Y-95600000D03*
X91100000Y-95600000D03*
X91900000Y-95600000D03*
X92700000Y-95600000D03*
X93500000Y-95600000D03*
X94300000Y-95600000D03*
X95100000Y-95600000D03*
X95900000Y-95600000D03*
X96700000Y-95600000D03*
X81500000Y-96400000D03*
X82300000Y-96400000D03*
X83100000Y-96400000D03*
X83900000Y-96400000D03*
X84700000Y-96400000D03*
X85500000Y-96400000D03*
X86300000Y-96400000D03*
X87100000Y-96400000D03*
X87900000Y-96400000D03*
X88700000Y-96400000D03*
X89500000Y-96400000D03*
X90300000Y-96400000D03*
X91100000Y-96400000D03*
X91900000Y-96400000D03*
X92700000Y-96400000D03*
X93500000Y-96400000D03*
X94300000Y-96400000D03*
X95100000Y-96400000D03*
X95900000Y-96400000D03*
X96700000Y-96400000D03*
X81500000Y-97200000D03*
X82300000Y-97200000D03*
X83100000Y-97200000D03*
X83900000Y-97200000D03*
X84700000Y-97200000D03*
X85500000Y-97200000D03*
X86300000Y-97200000D03*
X87100000Y-97200000D03*
X87900000Y-97200000D03*
X88700000Y-97200000D03*
X89500000Y-97200000D03*
X90300000Y-97200000D03*
X91100000Y-97200000D03*
X91900000Y-97200000D03*
X92700000Y-97200000D03*
X93500000Y-97200000D03*
X94300000Y-97200000D03*
X95100000Y-97200000D03*
X95900000Y-97200000D03*
X96700000Y-97200000D03*
X81500000Y-98000000D03*
X82300000Y-98000000D03*
X83100000Y-98000000D03*
X83900000Y-98000000D03*
X84700000Y-98000000D03*
X85500000Y-98000000D03*
X86300000Y-98000000D03*
X87100000Y-98000000D03*
X87900000Y-98000000D03*
X88700000Y-98000000D03*
X89500000Y-98000000D03*
X90300000Y-98000000D03*
X91100000Y-98000000D03*
X91900000Y-98000000D03*
X92700000Y-98000000D03*
X93500000Y-98000000D03*
X94300000Y-98000000D03*
X95100000Y-98000000D03*
X95900000Y-98000000D03*
X96700000Y-98000000D03*
X81500000Y-98800000D03*
X82300000Y-98800000D03*
X83100000Y-98800000D03*
X83900000Y-98800000D03*
X84700000Y-98800000D03*
X85500000Y-98800000D03*
X86300000Y-98800000D03*
X87100000Y-98800000D03*
X87900000Y-98800000D03*
X88700000Y-98800000D03*
X89500000Y-98800000D03*
X90300000Y-98800000D03*
X91100000Y-98800000D03*
X91900000Y-98800000D03*
X92700000Y-98800000D03*
X93500000Y-98800000D03*
X94300000Y-98800000D03*
X95100000Y-98800000D03*
X95900000Y-98800000D03*
X96700000Y-98800000D03*
X81500000Y-99600000D03*
X82300000Y-99600000D03*
X83100000Y-99600000D03*
X83900000Y-99600000D03*
X84700000Y-99600000D03*
X85500000Y-99600000D03*
X86300000Y-99600000D03*
X87100000Y-99600000D03*
X87900000Y-99600000D03*
X88700000Y-99600000D03*
X89500000Y-99600000D03*
X90300000Y-99600000D03*
X91100000Y-99600000D03*
X91900000Y-99600000D03*
X92700000Y-99600000D03*
X93500000Y-99600000D03*
X94300000Y-99600000D03*
X95100000Y-99600000D03*
X95900000Y-99600000D03*
X96700000Y-99600000D03*
X81500000Y-100400000D03*
X82300000Y-100400000D03*
X83100000Y-100400000D03*
X83900000Y-100400000D03*
X84700000Y-100400000D03*
X93500000Y-100400000D03*
X94300000Y-100400000D03*
X95100000Y-100400000D03*
X95900000Y-100400000D03*
X96700000Y-100400000D03*
X81500000Y-101200000D03*
X82300000Y-101200000D03*
X83100000Y-101200000D03*
X83900000Y-101200000D03*
X84700000Y-101200000D03*
X85500000Y-101200000D03*
X86300000Y-101200000D03*
X87100000Y-101200000D03*
X87900000Y-101200000D03*
X88700000Y-101200000D03*
X89500000Y-101200000D03*
X90300000Y-101200000D03*
X91100000Y-101200000D03*
X91900000Y-101200000D03*
X92700000Y-101200000D03*
X93500000Y-101200000D03*
X94300000Y-101200000D03*
X95100000Y-101200000D03*
X95900000Y-101200000D03*
X96700000Y-101200000D03*
X81500000Y-102000000D03*
X82300000Y-102000000D03*
X83100000Y-102000000D03*
X83900000Y-102000000D03*
X84700000Y-102000000D03*
X85500000Y-102000000D03*
X86300000Y-102000000D03*
X87100000Y-102000000D03*
X87900000Y-102000000D03*
X88700000Y-102000000D03*
X89500000Y-102000000D03*
X90300000Y-102000000D03*
X91100000Y-102000000D03*
X91900000Y-102000000D03*
X92700000Y-102000000D03*
X93500000Y-102000000D03*
X94300000Y-102000000D03*
X95100000Y-102000000D03*
X95900000Y-102000000D03*
X96700000Y-102000000D03*
X81500000Y-102800000D03*
X82300000Y-102800000D03*
X83100000Y-102800000D03*
X83900000Y-102800000D03*
X84700000Y-102800000D03*
X85500000Y-102800000D03*
X86300000Y-102800000D03*
X87100000Y-102800000D03*
X87900000Y-102800000D03*
X88700000Y-102800000D03*
X89500000Y-102800000D03*
X90300000Y-102800000D03*
X91100000Y-102800000D03*
X91900000Y-102800000D03*
X92700000Y-102800000D03*
X93500000Y-102800000D03*
X94300000Y-102800000D03*
X95100000Y-102800000D03*
X95900000Y-102800000D03*
X96700000Y-102800000D03*
X81500000Y-103600000D03*
X82300000Y-103600000D03*
X83100000Y-103600000D03*
X83900000Y-103600000D03*
X84700000Y-103600000D03*
X85500000Y-103600000D03*
X86300000Y-103600000D03*
X87100000Y-103600000D03*
X87900000Y-103600000D03*
X88700000Y-103600000D03*
X89500000Y-103600000D03*
X90300000Y-103600000D03*
X91100000Y-103600000D03*
X91900000Y-103600000D03*
X92700000Y-103600000D03*
X93500000Y-103600000D03*
X94300000Y-103600000D03*
X95100000Y-103600000D03*
X95900000Y-103600000D03*
X96700000Y-103600000D03*
X82300000Y-104400000D03*
X83100000Y-104400000D03*
X84700000Y-104400000D03*
X85500000Y-104400000D03*
X86300000Y-104400000D03*
X87100000Y-104400000D03*
X89500000Y-104400000D03*
X90300000Y-104400000D03*
X91900000Y-104400000D03*
X92700000Y-104400000D03*
X93500000Y-104400000D03*
X94300000Y-104400000D03*
X95900000Y-104400000D03*
%TD*%
D16*
%TO.C,C22*%
X115749080Y-101600000D03*
X115749080Y-99700000D03*
%TD*%
D19*
%TO.C,R49*%
X58675000Y-89000000D03*
X60325000Y-89000000D03*
%TD*%
D23*
%TO.C,U3*%
X126299080Y-104650000D03*
X126299080Y-103700000D03*
X126299080Y-102750000D03*
X123699080Y-102750000D03*
X123699080Y-104650000D03*
%TD*%
D20*
%TO.C,D19*%
X52062500Y-87500000D03*
X53937500Y-87500000D03*
%TD*%
D24*
%TO.C,D2*%
X117800000Y-126800000D03*
X121800000Y-126800000D03*
%TD*%
D12*
%TO.C,U9*%
X100115000Y-127000000D03*
X100750000Y-127000000D03*
X101385000Y-127000000D03*
X102020000Y-127000000D03*
X102655000Y-127000000D03*
X103290000Y-127000000D03*
X103925000Y-127000000D03*
X104560000Y-127000000D03*
X105195000Y-127000000D03*
X105830000Y-127000000D03*
X106465000Y-127000000D03*
X107100000Y-127000000D03*
X107100000Y-121793000D03*
X106465000Y-121793000D03*
X105830000Y-121793000D03*
X105195000Y-121793000D03*
X104560000Y-121793000D03*
X103925000Y-121793000D03*
X103290000Y-121793000D03*
X102655000Y-121793000D03*
X102020000Y-121793000D03*
X101385000Y-121793000D03*
X100750000Y-121793000D03*
X100115000Y-121793000D03*
%TD*%
%TO.C,U12*%
X69757500Y-121353500D03*
X70392500Y-121353500D03*
X71027500Y-121353500D03*
X71662500Y-121353500D03*
X72297500Y-121353500D03*
X72932500Y-121353500D03*
X73567500Y-121353500D03*
X74202500Y-121353500D03*
X74837500Y-121353500D03*
X75472500Y-121353500D03*
X76107500Y-121353500D03*
X76742500Y-121353500D03*
X76742500Y-116146500D03*
X76107500Y-116146500D03*
X75472500Y-116146500D03*
X74837500Y-116146500D03*
X74202500Y-116146500D03*
X73567500Y-116146500D03*
X72932500Y-116146500D03*
X72297500Y-116146500D03*
X71662500Y-116146500D03*
X71027500Y-116146500D03*
X70392500Y-116146500D03*
X69757500Y-116146500D03*
%TD*%
D18*
%TO.C,C13*%
X56761063Y-125738937D03*
X56761063Y-124188937D03*
%TD*%
D12*
%TO.C,U11*%
X79190000Y-126957000D03*
X79825000Y-126957000D03*
X80460000Y-126957000D03*
X81095000Y-126957000D03*
X81730000Y-126957000D03*
X82365000Y-126957000D03*
X83000000Y-126957000D03*
X83635000Y-126957000D03*
X84270000Y-126957000D03*
X84905000Y-126957000D03*
X85540000Y-126957000D03*
X86175000Y-126957000D03*
X86175000Y-121750000D03*
X85540000Y-121750000D03*
X84905000Y-121750000D03*
X84270000Y-121750000D03*
X83635000Y-121750000D03*
X83000000Y-121750000D03*
X82365000Y-121750000D03*
X81730000Y-121750000D03*
X81095000Y-121750000D03*
X80460000Y-121750000D03*
X79825000Y-121750000D03*
X79190000Y-121750000D03*
%TD*%
D14*
%TO.C,RB1*%
X120999080Y-106200000D03*
X120999080Y-104550000D03*
%TD*%
D25*
%TO.C,L1*%
X126249080Y-100200000D03*
X123709080Y-100200000D03*
%TD*%
D26*
%TO.C,US1*%
X54675000Y-72900000D03*
X54675000Y-73550000D03*
X54675000Y-74200000D03*
X54675000Y-74850000D03*
X54675000Y-75500000D03*
D27*
X52000000Y-70400000D03*
D28*
X54550000Y-71100000D03*
D29*
X52000000Y-73000000D03*
X52000000Y-75400000D03*
D28*
X54550000Y-77300000D03*
D27*
X52000000Y-78000000D03*
%TD*%
D11*
%TO.C,RA3*%
X121599080Y-80550000D03*
X121599080Y-82200000D03*
%TD*%
D30*
%TO.C,C16*%
X90000000Y-61000000D03*
X88100000Y-61000000D03*
%TD*%
D23*
%TO.C,U4*%
X125799080Y-91000000D03*
X125799080Y-91950000D03*
X125799080Y-92900000D03*
X128399080Y-92900000D03*
X128399080Y-91000000D03*
%TD*%
D14*
%TO.C,R9*%
X52000000Y-96500000D03*
X52000000Y-94850000D03*
%TD*%
D25*
%TO.C,L2*%
X126539080Y-95400000D03*
X123999080Y-95400000D03*
%TD*%
D31*
%TO.C,U10*%
X64905000Y-98198000D03*
D32*
X63635000Y-98198000D03*
X62365000Y-98198000D03*
X61095000Y-98198000D03*
X61095000Y-104802000D03*
X62365000Y-104802000D03*
X63635000Y-104802000D03*
X64905000Y-104802000D03*
%TD*%
D24*
%TO.C,D1*%
X62175000Y-72900000D03*
X66175000Y-72900000D03*
%TD*%
D16*
%TO.C,C7*%
X116799080Y-80550000D03*
X116799080Y-78650000D03*
%TD*%
D11*
%TO.C,RA1*%
X118499080Y-103450000D03*
X118499080Y-105100000D03*
%TD*%
D25*
%TO.C,L3*%
X127669080Y-79800000D03*
X125129080Y-79800000D03*
%TD*%
D16*
%TO.C,C3*%
X121249080Y-101600000D03*
X121249080Y-99700000D03*
%TD*%
D17*
%TO.C,C20*%
X113299080Y-85600000D03*
X115199080Y-85600000D03*
%TD*%
D18*
%TO.C,C18*%
X87000000Y-119400000D03*
X87000000Y-117850000D03*
%TD*%
D33*
%TO.C,U2*%
X94800000Y-83800000D03*
D34*
X94800000Y-83000000D03*
X94800000Y-82200000D03*
X94800000Y-81400000D03*
X94800000Y-80600000D03*
X94800000Y-79800000D03*
X94800000Y-79000000D03*
X94800000Y-78200000D03*
X94800000Y-77400000D03*
X94800000Y-76600000D03*
X94800000Y-75800000D03*
X94800000Y-75000000D03*
X94800000Y-74200000D03*
X94800000Y-73400000D03*
X94800000Y-72600000D03*
X94800000Y-71800000D03*
X94800000Y-71000000D03*
X94800000Y-70200000D03*
X94800000Y-69400000D03*
X94800000Y-68600000D03*
X94800000Y-67800000D03*
X94800000Y-67000000D03*
X94800000Y-66200000D03*
X94800000Y-65400000D03*
X94800000Y-64600000D03*
X94800000Y-63800000D03*
X94800000Y-63000000D03*
X83340000Y-63000000D03*
X83340000Y-63800000D03*
X83340000Y-64600000D03*
X83340000Y-65400000D03*
X83340000Y-66200000D03*
X83340000Y-67000000D03*
X83340000Y-67800000D03*
X83340000Y-68600000D03*
X83340000Y-69400000D03*
X83340000Y-70200000D03*
X83340000Y-71000000D03*
X83340000Y-71800000D03*
X83340000Y-72600000D03*
X83340000Y-73400000D03*
X83340000Y-74200000D03*
X83340000Y-75000000D03*
X83340000Y-75800000D03*
X83340000Y-76600000D03*
X83340000Y-77400000D03*
X83340000Y-78200000D03*
X83340000Y-79000000D03*
X83340000Y-79800000D03*
X83340000Y-80600000D03*
X83340000Y-81400000D03*
X83340000Y-82200000D03*
X83340000Y-83000000D03*
X83340000Y-83800000D03*
%TD*%
D35*
%TO.C,U6*%
X56000000Y-97562500D03*
X56000000Y-96562500D03*
X55000000Y-97562500D03*
X55000000Y-96562500D03*
D36*
X57437500Y-98062500D03*
X57437500Y-97562500D03*
X57437500Y-97062500D03*
X57437500Y-96562500D03*
X57437500Y-96062500D03*
D37*
X56500000Y-95125000D03*
X56000000Y-95125000D03*
X55500000Y-95125000D03*
X55000000Y-95125000D03*
X54500000Y-95125000D03*
D36*
X53562500Y-96062500D03*
X53562500Y-96562500D03*
X53562500Y-97062500D03*
X53562500Y-97562500D03*
X53562500Y-98062500D03*
D37*
X54500000Y-99000000D03*
X55000000Y-99000000D03*
X55500000Y-99000000D03*
X56000000Y-99000000D03*
X56500000Y-99000000D03*
%TD*%
D18*
%TO.C,C15*%
X77400000Y-125200000D03*
X77400000Y-123650000D03*
%TD*%
%TO.C,C36*%
X110400000Y-121775000D03*
X110400000Y-120225000D03*
%TD*%
D16*
%TO.C,C8*%
X113399080Y-80400000D03*
X113399080Y-78500000D03*
%TD*%
D13*
%TO.C,C17*%
X111249080Y-103450000D03*
X111249080Y-105350000D03*
%TD*%
D16*
%TO.C,C4*%
X118499080Y-101650000D03*
X118499080Y-99750000D03*
%TD*%
D18*
%TO.C,C21*%
X98200000Y-125200000D03*
X98200000Y-123650000D03*
%TD*%
D11*
%TO.C,R30*%
X67825000Y-96175000D03*
X67825000Y-97825000D03*
%TD*%
D14*
%TO.C,R1*%
X52000000Y-100150000D03*
X52000000Y-98500000D03*
%TD*%
D15*
%TO.C,R37*%
X53500000Y-84000000D03*
X51850000Y-84000000D03*
%TD*%
D13*
%TO.C,C9*%
X124199080Y-90000000D03*
X124199080Y-91900000D03*
%TD*%
D21*
%TO.C,C34*%
X66500000Y-87725000D03*
X66500000Y-89275000D03*
%TD*%
D16*
%TO.C,C19*%
X113199080Y-91300000D03*
X113199080Y-89400000D03*
%TD*%
D12*
%TO.C,U14*%
X112257500Y-123353500D03*
X112892500Y-123353500D03*
X113527500Y-123353500D03*
X114162500Y-123353500D03*
X114797500Y-123353500D03*
X115432500Y-123353500D03*
X116067500Y-123353500D03*
X116702500Y-123353500D03*
X117337500Y-123353500D03*
X117972500Y-123353500D03*
X118607500Y-123353500D03*
X119242500Y-123353500D03*
X119242500Y-118146500D03*
X118607500Y-118146500D03*
X117972500Y-118146500D03*
X117337500Y-118146500D03*
X116702500Y-118146500D03*
X116067500Y-118146500D03*
X115432500Y-118146500D03*
X114797500Y-118146500D03*
X114162500Y-118146500D03*
X113527500Y-118146500D03*
X112892500Y-118146500D03*
X112257500Y-118146500D03*
%TD*%
D16*
%TO.C,C24*%
X109999080Y-80500000D03*
X109999080Y-78600000D03*
%TD*%
D38*
%TO.C,Y1*%
X68600000Y-85920000D03*
X68600000Y-91000000D03*
X73000000Y-91000000D03*
X73000000Y-85920000D03*
%TD*%
D18*
%TO.C,C14*%
X68000000Y-120200000D03*
X68000000Y-118650000D03*
%TD*%
D11*
%TO.C,RB2*%
X121599080Y-88750000D03*
X121599080Y-90400000D03*
%TD*%
D13*
%TO.C,C23*%
X115799080Y-94900000D03*
X115799080Y-96800000D03*
%TD*%
D39*
%TO.C,C48*%
X55500000Y-100500000D03*
X53950000Y-100500000D03*
%TD*%
D13*
%TO.C,C11*%
X121199080Y-95100000D03*
X121199080Y-97000000D03*
%TD*%
M02*
