M48
; DRILL file {KiCad 9.0.5} date 2025-12-06T10:01:20-0800
; FORMAT={-:-/ absolute / metric / decimal}
; #@! TF.CreationDate,2025-12-06T10:01:20-08:00
; #@! TF.GenerationSoftware,Kicad,Pcbnew,9.0.5
; #@! TF.FileFunction,Plated,1,4,PTH
FMAT,2
METRIC
; #@! TA.AperFunction,Plated,PTH,ViaDrill
T1C0.200
; #@! TA.AperFunction,Plated,PTH,ComponentDrill
T2C1.000
; #@! TA.AperFunction,Plated,PTH,ComponentDrill
T3C3.000
%
G90
G05
T1
X52.0Y-93.5
X52.5Y-97.5
X55.295Y-90.342
X55.5Y-91.479
X56.5Y-93.0
X56.5Y-94.0
X56.5Y-100.5
X58.0Y-126.5
X58.938Y-97.562
X59.0Y-94.5
X59.04Y-96.062
X59.5Y-90.5
X59.6Y-120.2
X59.938Y-96.562
X61.0Y-86.0
X61.0Y-101.5
X62.5Y-92.5
X63.5Y-106.0
X63.635Y-99.865
X64.0Y-107.5
X64.0Y-108.5
X64.0Y-109.5
X64.6Y-124.0
X64.905Y-99.637
X64.905Y-106.405
X67.4Y-126.8
X68.0Y-125.045
X70.0Y-115.0
X70.0Y-122.8
X70.8Y-123.4
X70.8Y-124.6
X70.8Y-125.6
X71.8Y-127.0
X72.8Y-127.4
X74.2Y-127.4
X76.4Y-122.8
X78.5Y-88.0
X78.5Y-127.0
X78.8Y-101.2
X78.8Y-115.4
X79.6Y-120.6
X80.5Y-120.0
X81.2Y-125.8
X81.5Y-88.5
X81.844Y-103.944
X81.912Y-100.788
X81.921Y-102.421
X81.946Y-97.646
X82.0Y-77.5
X82.105Y-75.0
X82.111Y-79.8
X82.144Y-83.0
X82.147Y-81.378
X82.169Y-83.8
X82.217Y-82.217
X82.316Y-80.6
X82.6Y-95.3
X82.622Y-104.725
X82.651Y-103.943
X82.689Y-100.852
X82.694Y-101.576
X82.746Y-102.354
X83.428Y-103.124
X83.5Y-100.0
X83.5Y-104.0
X83.5Y-104.8
X83.6Y-91.3
X83.6Y-94.3
X83.6Y-102.3
X84.23Y-103.125
X84.307Y-100.803
X84.327Y-100.027
X84.5Y-61.0
X85.005Y-102.31
X85.045Y-91.249
X85.106Y-90.389
X85.122Y-92.822
X85.35Y-100.05
X85.8Y-124.0
X85.866Y-91.166
X85.869Y-95.236
X85.869Y-97.589
X85.889Y-103.202
X85.915Y-90.418
X86.6Y-90.3
X86.625Y-95.995
X86.692Y-99.993
X86.702Y-93.577
X86.991Y-121.026
X87.0Y-100.521
X87.428Y-98.494
X87.44Y-95.138
X87.505Y-102.399
X87.521Y-90.419
X88.0Y-100.0
X88.0Y-115.0
X88.303Y-97.581
X88.306Y-92.867
X89.0Y-125.0
X89.0Y-126.2
X89.0Y-127.4
X89.097Y-93.649
X89.1Y-95.3
X89.106Y-97.581
X89.895Y-92.873
X89.908Y-97.593
X89.945Y-99.145
X90.0Y-106.0
X90.694Y-102.407
X90.713Y-95.156
X90.767Y-98.482
X91.0Y-106.0
X91.469Y-93.602
X91.496Y-102.397
X91.498Y-100.098
X91.6Y-90.3
X91.8Y-127.8
X92.0Y-100.5
X92.0Y-106.0
X92.26Y-98.456
X92.277Y-96.008
X92.297Y-95.162
X92.303Y-97.566
X92.668Y-122.613
X92.945Y-100.068
X93.0Y-61.0
X93.0Y-106.0
X93.007Y-92.902
X93.2Y-123.8
X93.861Y-98.441
X93.886Y-99.214
X93.93Y-97.63
X94.698Y-99.215
X94.7Y-100.0
X94.797Y-100.897
X94.8Y-84.494
X95.5Y-100.0
X95.5Y-102.4
X95.584Y-94.484
X95.585Y-90.483
X95.6Y-118.6
X95.81Y-77.4
X95.813Y-73.4
X95.814Y-82.197
X96.0Y-75.0
X96.0Y-107.0
X96.061Y-79.728
X96.211Y-100.71
X96.285Y-103.187
X96.5Y-83.5
X97.0Y-81.5
X98.494Y-103.744
X98.5Y-103.0
X98.5Y-104.5
X98.5Y-105.5
X99.0Y-127.0
X100.4Y-124.0
X102.0Y-97.0
X102.0Y-120.0
X102.424Y-96.637
X102.648Y-125.5
X102.909Y-96.235
X102.959Y-92.073
X103.335Y-95.844
X103.429Y-92.316
X103.857Y-95.396
X103.95Y-119.418
X104.342Y-95.001
X104.5Y-91.5
X104.6Y-128.6
X104.772Y-94.0
X104.777Y-94.602
X105.8Y-125.2
X105.8Y-128.6
X106.265Y-92.419
X106.8Y-123.8
X107.323Y-92.551
X109.701Y-93.2
X109.999Y-88.6
X110.249Y-101.7
X111.8Y-125.2
X112.2Y-121.6
X113.0Y-120.0
X113.5Y-76.0
X115.5Y-121.0
X115.8Y-126.8
X116.249Y-107.7
X117.111Y-104.224
X117.293Y-93.478
X117.599Y-87.6
X118.399Y-98.2
X119.0Y-77.5
X119.0Y-113.5
X119.4Y-115.6
X122.749Y-102.7
X123.199Y-92.8
X125.599Y-88.2
X125.599Y-89.8
X126.199Y-81.8
X127.843Y-88.226
X128.399Y-94.0
X129.399Y-102.6
T2
X53.96Y-106.92
X53.96Y-109.46
X53.96Y-112.0
X56.5Y-106.92
X56.5Y-109.46
X56.5Y-112.0
X143.5Y-75.56
X143.5Y-78.1
X143.5Y-80.64
X143.5Y-83.18
X143.5Y-85.72
X143.5Y-88.26
X143.5Y-90.8
X143.5Y-93.34
X143.5Y-95.88
X143.5Y-98.42
X143.5Y-100.96
X143.5Y-103.5
T3
X53.75Y-53.75
X53.75Y-120.75
X171.75Y-53.75
X171.75Y-120.75
M30
